<svg><metadata>Created by FontForge 20090622 at Tue Jul 24 13:47:21 2018 By deploy user Samsung Sharp Sans is a customized version of Sharp Sans, which is copyright (c) 2015 by Lucas Sharp. All rights reserved.</metadata><defs><font id="SamsungSharpSans-Bold" horiz-adv-x="646"><font-face x-height="585" ascent="800" bbox="-91 -283 1414 1100" cap-height="730" descent="-200" font-family="Samsung Sharp Sans Bold" font-stretch="normal" font-weight="700" panose-1="0 0 0 0 0 0 0 0 0 0" underline-position="-50" underline-thickness="50" unicode-range="U+000D-U+FB79" units-per-em="1000"/><glyph d="M197 187l-4.5 98.5t-4 109.5t-2.5 112t-1 106v2q-24 -12 -38.5 -33t-20.5 -46l-126 43q19 72 80.5 116.5t157.5 44.5q55 0 100.5 -15t77.5 -42.5t50 -66t18 -85.5t-14 -76.5t-35.5 -50t-46.5 -37t-46.5 -37.5t-35.5 -51.5t-14 -79.5v-12h-95zM163 69q0 37 22 59.5 t60 22.5t59.5 -22.5t21.5 -59.5q0 -36 -22 -58.5t-60 -22.5t-59.5 22.5t-21.5 58.5zM348 533q0 26 -12 46.5t-37 33.5q0 -92 -6 -190q22 24 38.5 47t16.5 63z" glyph-name="interrobang" horiz-adv-x="517" unicode="!?"/><glyph d="M279 -240q-55 0 -100.5 15t-78 42.5t-50.5 66t-18 85.5q0 48 14.5 77t35.5 49.5t46.5 37t46.5 37.5t35.5 51.5t14.5 79.5v12h95q2 -45 4 -98.5l4 -109.5t3 -112t1 -106v-2q23 12 38 33t21 46l126 -43q-19 -72 -80.5 -116.5t-157.5 -44.5zM194 431q0 37 22 59.5t60 22.5 t59.5 -22.5t21.5 -59.5q0 -36 -22 -58.5t-60 -22.5t-59.5 22.5t-21.5 58.5zM168 -33q0 -26 12.5 -46.5t37.5 -33.5q0 45 1 93t4 97q-22 -24 -38.5 -46.5t-16.5 -63.5z" glyph-name="interrobangdown" horiz-adv-x="517" unicode="¡¿"/><glyph d="M35 0v596h214q53 0 95 -15t70.5 -42.5t43.5 -66t15 -85.5q0 -51 -22.5 -96.5t-67.5 -72.5l107 -218h-147l-83 179h-89v-179h-136zM236 304q56 0 76.5 25.5t20.5 61.5t-23 57.5t-74 21.5h-65v-166h65z" arabic-form="isolated" glyph-name="r.smcp.alt" horiz-adv-x="493" unicode="ڃ"/><glyph d="M35 0v596h214q53 0 95 -15t70.5 -42.5t43.5 -66t15 -85.5q0 -51 -22.5 -96.5t-67.5 -72.5l107 -218h-147l-83 179h-89v-179h-136zM236 304q56 0 76.5 25.5t20.5 61.5t-23 57.5t-74 21.5h-65v-166h65zM286 816h126l-150 -170h-91z" arabic-form="final" glyph-name="racute.smcp.alt" horiz-adv-x="493" unicode="ڃ"/><glyph d="M35 0v596h214q53 0 95 -15t70.5 -42.5t43.5 -66t15 -85.5q0 -51 -22.5 -96.5t-67.5 -72.5l107 -218h-147l-83 179h-89v-179h-136zM76 816h102l59 -89l59 89h102l-119 -170h-84zM236 304q56 0 76.5 25.5t20.5 61.5t-23 57.5t-74 21.5h-65v-166h65z" arabic-form="initial" glyph-name="rcaron.smcp.alt" horiz-adv-x="493" unicode="ڃ"/><glyph d="M35 0v596h214q53 0 95 -15t70.5 -42.5t43.5 -66t15 -85.5q0 -51 -22.5 -96.5t-67.5 -72.5l107 -218h-147l-83 179h-89v-179h-136zM236 304q56 0 76.5 25.5t20.5 61.5t-23 57.5t-74 21.5h-65v-166h65zM154 -252l34 204h119l-70 -204h-83z" arabic-form="medial" glyph-name="rcommaaccent.smcp.alt" horiz-adv-x="493" unicode="ڃ"/><glyph d="M100 730h726v-730h-726v730zM236 130h454v470h-454v-470zM260 240l123 127l-124 129l80 78l122 -126l124 127l80 -78l-126 -130l125 -128l-80 -78l-123 126l-121 -125z" glyph-name=".notdef" horiz-adv-x="926"/><glyph glyph-name=".null" horiz-adv-x="0"/><glyph glyph-name=".null" horiz-adv-x="0"/><glyph glyph-name="nonmarkingreturn" horiz-adv-x="250"/><glyph glyph-name="space" horiz-adv-x="245"/><glyph d="M68 198q-7 45 -12.5 96.5t-9.5 105.5t-6.5 108.5t-2.5 104.5v117h134v-117q0 -50 -2 -104.5t-6 -108.5t-9.5 -105.5t-12.5 -96.5h-73zM22 69q0 37 22 59.5t60 22.5t59.5 -22.5t21.5 -59.5q0 -36 -22 -58.5t-60 -22.5t-59.5 22.5t-21.5 58.5z" glyph-name="exclam" horiz-adv-x="209" unicode="!"/><glyph d="M70 500q-4 9 -9.5 28.5t-11 41.5t-9.5 43t-4 33v84h105v-84q0 -13 -4 -34t-9.5 -43t-11 -41t-9.5 -28h-37zM215 500q-4 9 -9.5 28.5t-10.5 41.5t-9 43t-4 33v84h105v-84q0 -13 -4 -34t-9.5 -43t-11.5 -41t-10 -28h-37z" glyph-name="quotedbl" horiz-adv-x="323" unicode="&quot;"/><glyph d="M484 155h-174v-155h-136v155h-148v130h148v170h-148v130h148v145h136v-145h174v145h136v-145h156v-130h-156v-170h156v-130h-156v-155h-136v155zM310 285h174v170h-174v-170z" glyph-name="numbersign" horiz-adv-x="802" unicode="#"/><glyph d="M564 217q0 -37 -13 -73t-38 -66t-61.5 -51.5t-83.5 -30.5v-116h-136v117q-72 12 -126 45.5t-93 78.5l124 97q17 -29 42.5 -50.5t55.5 -33.5v193q-35 11 -70 26.5t-62.5 39.5t-45 57.5t-17.5 80.5q0 38 14 71.5t39.5 60.5t60.5 46t78 26v105h136v-108q57 -11 98 -37 t76 -61l-113 -85q-25 36 -65 54v-174q35 -12 71 -28.5t64.5 -41t46.5 -59.5t18 -83zM426 218q0 26 -17.5 42.5t-44.5 28.5v-159q29 13 45.5 36.5t16.5 51.5zM176 536q0 -26 16 -41t43 -26v141q-28 -10 -43.5 -29.5t-15.5 -44.5z" glyph-name="dollar" horiz-adv-x="588" unicode="$"/><glyph d="M136 562q0 -27 19.5 -46.5t45.5 -19.5t45.5 19.5t19.5 46.5q0 26 -19.5 45.5t-45.5 19.5t-45.5 -19.5t-19.5 -45.5zM446 168q0 37 14 69.5t38.5 56.5t57 38t69.5 14t69.5 -14t56.5 -38t38 -56.5t14 -69.5t-14 -69.5t-38 -57t-56.5 -38.5t-69.5 -14t-69.5 14t-57 38.5 t-38.5 57t-14 69.5zM640 730h172l-627 -730h-172zM560 168q0 -27 19 -46t46 -19q26 0 45 19t19 46q0 26 -19 45.5t-45 19.5q-27 0 -46 -19.5t-19 -45.5zM22 562q0 37 14 69.5t38.5 56.5t57 38t69.5 14t69.5 -14t56.5 -38t38 -56.5t14 -69.5t-14 -69.5t-38 -57t-56.5 -38.5 t-69.5 -14t-69.5 14t-57 38.5t-38.5 57t-14 69.5z" glyph-name="percent" horiz-adv-x="825" unicode="%"/><glyph d="M506 56q-44 -31 -93.5 -49t-103.5 -18q-79 0 -134 21.5t-89.5 55.5t-49.5 76.5t-15 84.5q0 69 35.5 121t90.5 84q-17 27 -25.5 56t-8.5 64q0 40 15.5 74t43.5 59.5t66.5 40t83.5 14.5q46 0 81 -11t61 -29.5t43.5 -43t27.5 -52.5l-132 -47q-8 26 -26 44t-50 18 q-31 0 -51 -19t-20 -48q0 -21 5.5 -38t19 -36t37 -43.5l59.5 -60.5l139 -140q22 31 36.5 65t22.5 69h-123v129h258v-63q0 -69 -29 -144t-80 -141l148 -149h-186zM308 108q30 0 58 8.5t54 24.5l-155 156q-22 21 -41 41q-33 -20 -50.5 -46t-17.5 -64q0 -24 10 -45.5t29 -38 t47.5 -26.5t65.5 -10z" glyph-name="ampersand" horiz-adv-x="749" unicode="&amp;"/><glyph d="M70 500q-4 9 -9.5 28.5t-11 41.5t-9.5 43t-4 33v84h105v-84q0 -13 -4 -34t-9.5 -43t-11 -41t-9.5 -28h-37z" glyph-name="quotesingle" horiz-adv-x="177" unicode="'"/><glyph d="M300 -254q-62 42 -113 94t-88 114.5t-57 136.5t-20 159q0 86 19 157.5t54 131.5t84.5 110.5t109.5 94.5l91 -98q-47 -31 -86.5 -71t-68.5 -89t-45 -107.5t-16 -128.5q0 -132 57 -229t164 -163z" glyph-name="parenleft" horiz-adv-x="388" unicode="("/><glyph d="M224 248q0 70 -16 128.5t-45 107.5t-68.5 89t-86.5 71l91 98q61 -44 110.5 -94.5t84.5 -110.5t54 -131.5t19 -157.5q0 -85 -20.5 -159t-57 -136.5t-88 -114.5t-113.5 -94l-84 112q107 66 163.5 163t56.5 229z" glyph-name="parenright" horiz-adv-x="388" unicode=")"/><glyph d="M238 492l23 -115h-117l22 114l-89 -76l-57 102l110 37l-110 39l60 100l87 -76l-23 114h117l-24 -116l90 78l58 -102l-112 -38l112 -38l-60 -100z" glyph-name="asterisk" horiz-adv-x="405" unicode="*"/><glyph d="M36 422h129v127h113v-127h128v-115h-128v-128h-113v128h-129v115z" glyph-name="plus" horiz-adv-x="442" unicode="+"/><glyph d="M56 87h119l-70 -204h-84z" glyph-name="comma" horiz-adv-x="207" unicode=","/><glyph d="M36 312h370v-115h-370v115z" glyph-name="hyphen" horiz-adv-x="442" unicode="-"/><glyph d="M22 69q0 37 22 59.5t60 22.5t59.5 -22.5t21.5 -59.5q0 -36 -22 -58.5t-60 -22.5t-59.5 22.5t-21.5 58.5z" glyph-name="period" horiz-adv-x="207" unicode="."/><glyph d="M357 730h144l-346 -730h-144z" glyph-name="slash" horiz-adv-x="511" unicode="/"/><glyph d="M293 125q55 0 84 31.5t29 76.5v259q0 52 -28.5 83t-82.5 31q-55 0 -84 -33t-29 -81v-258q0 -48 28 -78.5t83 -30.5zM294 -10q-60 0 -106 17.5t-77.5 49t-48 75.5t-16.5 96v268q0 52 18 96.5t51 77.5t78.5 51.5t100.5 18.5q57 0 102.5 -19t78 -52t50 -77.5t17.5 -94.5 v-269q0 -54 -17 -97.5t-48.5 -75t-77.5 -48.5t-105 -17z" glyph-name="zero" horiz-adv-x="588" unicode="0"/><glyph d="M124 0v603h-89v127h225v-730h-136z" glyph-name="one" horiz-adv-x="331" unicode="1"/><glyph d="M36 128q0 47 17 85t44.5 69.5t62 57.5t68.5 49l52 36.5t44 35t30.5 36t11.5 39.5q0 36 -25.5 61.5t-74.5 25.5q-48 0 -78.5 -29t-49.5 -75l-117 59q34 75 95.5 118.5t150.5 43.5q56 0 99.5 -16t74.5 -43.5t47 -65t16 -80.5t-16 -77.5t-42 -63t-58.5 -52.5t-65.5 -46 l-55 -37.5t-48 -38.5t-34 -42t-13 -48h329v-130h-465v128z" glyph-name="two" horiz-adv-x="536" unicode="2"/><glyph d="M237 -10q-70 0 -128.5 23.5t-105.5 78.5l118 88q23 -35 52 -50.5t63 -15.5q47 0 77.5 25.5t30.5 71.5t-34.5 73.5t-90.5 27.5h-75v125h75q60 0 88 29t28 68q0 40 -28 64t-75 24q-43 0 -68.5 -19t-42.5 -51l-116 60q32 60 92.5 94t132.5 34q53 0 97 -14.5t75 -41t48 -64.5 t17 -85q0 -50 -22 -89.5t-61 -67.5q45 -26 70.5 -68t25.5 -99q0 -47 -16 -87.5t-46.5 -70t-76 -46.5t-104.5 -17z" glyph-name="three" horiz-adv-x="502" unicode="3"/><glyph d="M348 168h-313v124l306 438h139v-438h107v-124h-107v-168h-132v168zM348 292v235l-166 -235h166z" glyph-name="four" horiz-adv-x="623" unicode="4"/><glyph d="M270 -10q-48 0 -87.5 11.5t-71 31t-54 45t-36.5 52.5l126 73q16 -35 45.5 -61.5t78.5 -26.5q22 0 42.5 8.5t36 23.5t24.5 36.5t9 46.5q0 51 -30.5 86t-84.5 35q-43 0 -70.5 -21t-46.5 -53l-121 62l52 391h406v-127h-298l-21 -162q21 14 50 24t64 10q49 0 92 -16t75.5 -47 t51 -76.5t18.5 -105.5q0 -53 -18.5 -97.5t-52 -76t-79.5 -49t-100 -17.5z" glyph-name="five" horiz-adv-x="541" unicode="5"/><glyph d="M282 -10q-57 0 -105 19t-82.5 52.5t-54 79t-19.5 97.5q0 51 15 101t41 88l189 303h160l-160 -248q21 6 43 6q48 0 90 -18.5t73.5 -51.5t49.5 -78.5t18 -100.5t-19.5 -100.5t-54 -78.5t-82 -51.5t-102.5 -18.5zM279 113q26 0 49 10t40.5 27.5t27.5 41t10 50.5 q0 26 -10 49.5t-27.5 40.5t-40.5 27t-49 10t-48.5 -10t-39.5 -27.5t-27 -40.5t-10 -50q0 -26 10 -49.5t27 -41t39.5 -27.5t48.5 -10z" glyph-name="six" horiz-adv-x="562" unicode="6"/><glyph d="M353 600h-318v130h460v-118l-253 -612h-144z" glyph-name="seven" horiz-adv-x="530" unicode="7"/><glyph d="M293 -10q-125 0 -192 61t-67 167q0 57 23.5 99.5t66.5 71.5q-31 26 -48 61.5t-17 81.5q0 47 17 85.5t48.5 65.5t75.5 42t98 15q53 0 96.5 -15t75 -42t48.5 -65.5t17 -85.5t-18.5 -82.5t-50.5 -61.5q42 -29 65 -71.5t23 -98.5q0 -106 -68.5 -167t-192.5 -61zM293 110 q65 0 98 31.5t33 76.5t-32.5 76.5t-95.5 31.5q-64 0 -97.5 -31.5t-33.5 -76.5t31 -76.5t97 -31.5zM295 440q57 0 86.5 27t29.5 65t-29 65.5t-83 27.5q-55 0 -85.5 -27.5t-30.5 -65.5q0 -39 27.5 -65.5t84.5 -26.5z" glyph-name="eight" horiz-adv-x="588" unicode="8"/><glyph d="M296 251q-21 -6 -42 -6q-48 0 -90.5 18t-74.5 50.5t-50.5 77.5t-18.5 100q0 56 20 102t55 78.5t82.5 50.5t101.5 18q57 0 104.5 -19t82 -52.5t54 -79t19.5 -97.5q0 -51 -15 -101t-41 -88l-188 -303h-160zM281 362q26 0 49 10t40 27.5t27 41t10 50.5q0 26 -10 49.5t-27 41 t-40 28t-49 10.5q-25 0 -48.5 -10.5t-40.5 -28.5t-27.5 -41.5t-10.5 -49.5q0 -27 10.5 -50t27.5 -40.5t40.5 -27.5t48.5 -10z" glyph-name="nine" horiz-adv-x="562" unicode="9"/><glyph d="M22 69q0 37 22 59.5t60 22.5t59.5 -22.5t21.5 -59.5q0 -36 -22 -58.5t-60 -22.5t-59.5 22.5t-21.5 58.5zM22 430q0 37 22 59.5t60 22.5t59.5 -22.5t21.5 -59.5q0 -36 -22 -58.5t-60 -22.5t-59.5 22.5t-21.5 58.5z" glyph-name="colon" horiz-adv-x="207" unicode=":"/><glyph d="M56 87h119l-70 -204h-84zM22 430q0 37 22 59.5t60 22.5t59.5 -22.5t21.5 -59.5q0 -36 -22 -58.5t-60 -22.5t-59.5 22.5t-21.5 58.5z" glyph-name="semicolon" horiz-adv-x="207" unicode=";"/><glyph d="M36 306v115l370 133v-118l-224 -73l224 -73v-118z" glyph-name="less" horiz-adv-x="442" unicode="&lt;"/><glyph d="M36 504h370v-115h-370v115zM36 337h370v-115h-370v115z" glyph-name="equal" horiz-adv-x="442" unicode="="/><glyph d="M36 290l223 73l-223 73v118l370 -133v-115l-370 -134v118z" glyph-name="greater" horiz-adv-x="442" unicode="&gt;"/><glyph d="M181 199q0 61 12.5 101t30.5 67t40 45t40 35t30.5 36.5t12.5 49.5q0 38 -26 63.5t-70 25.5q-40 0 -65.5 -24.5t-34.5 -61.5l-126 43q18 72 75 116.5t153 44.5q51 0 93.5 -15t73 -42.5t47.5 -66t17 -85.5t-13.5 -77.5t-33.5 -52t-44 -39t-44 -38.5t-33.5 -50t-13.5 -75 v-11h-121v11zM159 69q0 37 22 59.5t60 22.5t59.5 -22.5t21.5 -59.5q0 -36 -22 -58.5t-60 -22.5t-59.5 22.5t-21.5 58.5z" glyph-name="question" horiz-adv-x="517" unicode="?"/><glyph d="M395 -125q-78 0 -146 29.5t-118.5 80t-79.5 119t-29 146.5t29 146t79.5 119t118.5 80.5t146 29.5q86 0 154.5 -29t117.5 -76t75 -108t26 -124q0 -43 -12 -81t-34.5 -67t-54.5 -46t-71 -17q-45 0 -74 16t-46 39q-19 -25 -50.5 -39.5t-75.5 -14.5q-30 0 -59.5 12t-52 34.5 t-34.5 56.5t-8 77q5 46 23.5 80t44.5 56t55.5 33t55.5 11q32 0 56.5 -10t40.5 -27q1 11 2 17t1 9q1 4 1 5h107l-19 -181q-4 -32 6 -50t35 -18q24 0 39.5 29t15.5 76q0 43 -18.5 84.5t-52.5 74.5t-83 53t-111 20q-56 0 -104.5 -21t-84.5 -58t-57 -86.5t-21 -105.5t21 -105 t57 -86t84.5 -58t104.5 -21q60 0 110 23.5t88 64.5l81 -67q-51 -57 -123 -91t-156 -34zM375 179q35 0 58.5 24t26.5 58q4 33 -15 57t-53 24q-33 0 -59 -23t-28 -58q-5 -35 15.5 -58.5t54.5 -23.5z" glyph-name="at" horiz-adv-x="789" unicode="@"/><glyph d="M275 730h137l260 -730h-142l-45 130h-283l-45 -130h-142zM248 260h192l-96 277z" glyph-name="A" horiz-adv-x="687" unicode="A"/><glyph d="M42 730h230q121 0 187.5 -52t66.5 -152q0 -95 -80 -142q51 -23 78.5 -65t27.5 -103q0 -108 -70.5 -162t-191.5 -54h-248v730zM178 312v-187h112q62 0 93.5 24.5t31.5 69.5t-27.5 69t-103.5 24h-106zM178 605v-166h94q65 0 91 24t26 63q0 41 -27 60t-90 19h-94z" glyph-name="B" horiz-adv-x="573" unicode="B"/><glyph d="M397 -10q-84 0 -153.5 29.5t-118.5 80t-76 119t-27 146.5q0 82 29 150.5t79.5 118.5t119 78t147.5 28q51 0 98.5 -13t89 -36.5t75 -57t57.5 -74.5l-119 -76q-32 57 -81 90t-120 33q-52 0 -96 -18.5t-76 -51t-50 -76.5t-18 -95q0 -50 18 -93.5t49.5 -76t75 -51t94.5 -18.5 q76 0 128.5 38.5t81.5 98.5l124 -65q-24 -46 -58.5 -84.5t-77 -66t-92 -42.5t-103.5 -15z" glyph-name="C" horiz-adv-x="738" unicode="C"/><glyph d="M42 730h199q92 0 164 -28t121.5 -77t75 -115.5t25.5 -144.5t-28 -145t-78.5 -115.5t-120.5 -76.5t-153 -28h-205v730zM178 604v-478h53q60 0 108 18t81.5 50.5t52 76t18.5 94.5q0 53 -16 96.5t-49 75.5t-83 49.5t-118 17.5h-47z" glyph-name="D" horiz-adv-x="648" unicode="D"/><glyph d="M42 730h433v-130h-297v-168h297v-130h-297v-172h297v-130h-433v730z" glyph-name="E" horiz-adv-x="509" unicode="E"/><glyph d="M42 730h413v-130h-277v-168h277v-130h-277v-302h-136v730z" glyph-name="F" horiz-adv-x="491" unicode="F"/><glyph d="M401 -10q-85 0 -155 30t-120 81.5t-77 119.5t-27 144q0 78 28 146.5t77.5 119t118 80t149.5 29.5q57 0 107 -13.5t92.5 -38.5t76 -59.5t56.5 -75.5l-120 -72q-34 63 -86.5 95t-124.5 32q-51 0 -94.5 -19.5t-76 -52.5t-50.5 -77t-18 -94q0 -51 18 -95t50.5 -77t77.5 -52 t98 -19q82 0 136.5 43t74.5 115h-233v130h379v-54q0 -74 -25 -140.5t-71.5 -116.5t-112.5 -79.5t-148 -29.5z" glyph-name="G" horiz-adv-x="780" unicode="G"/><glyph d="M458 301h-280v-301h-136v730h136v-299h280v299h136v-730h-136v301z" glyph-name="H" horiz-adv-x="636" unicode="H"/><glyph d="M47 730h136v-730h-136v730z" glyph-name="I" horiz-adv-x="230" unicode="I"/><glyph d="M247 -10q-88 0 -149 44.5t-79 120.5l134 44q8 -35 32.5 -58.5t59.5 -23.5q42 0 60.5 27.5t18.5 65.5v520h136v-508q0 -110 -55.5 -171t-157.5 -61z" glyph-name="J" horiz-adv-x="501" unicode="J"/><glyph d="M257 351l-79 -98v-253h-136v730h136v-299l241 299h165l-231 -284l252 -446h-155z" glyph-name="K" horiz-adv-x="618" unicode="K"/><glyph d="M42 730h136v-600h267v-130h-403v730z" glyph-name="L" horiz-adv-x="481" unicode="L"/><glyph d="M42 730h135l221 -307l230 307h129v-730h-136v512l-224 -302l-219 297v-507h-136v730z" glyph-name="M" horiz-adv-x="798" unicode="M"/><glyph d="M42 730h154l316 -497v497h136v-730h-145l-325 513v-513h-136v730z" glyph-name="N" horiz-adv-x="690" unicode="N"/><glyph d="M395 -10q-78 0 -146 29.5t-118.5 80t-79.5 119t-29 146.5t29 146t79.5 119t118.5 80.5t146 29.5t146 -29.5t119 -80.5t80 -119t29 -146t-29 -146.5t-80 -119t-119 -80t-146 -29.5zM395 124q50 0 93.5 19t76 51.5t51 76.5t18.5 94t-18.5 94t-51 76.5t-76 51.5t-93.5 19 t-93.5 -19t-75.5 -51.5t-50.5 -76.5t-18.5 -94t18.5 -94t50.5 -76.5t75.5 -51.5t93.5 -19z" glyph-name="O" horiz-adv-x="790" unicode="O"/><glyph d="M42 730h250q57 0 105 -20.5t83 -55.5t55 -82.5t20 -101.5t-20 -102t-55 -83t-83.5 -55.5t-105.5 -20.5h-113v-209h-136v730zM178 604v-269h104q30 0 55 10.5t43 29t28 43t10 52.5t-10 52.5t-28 42.5t-43 28.5t-55 10.5h-104z" glyph-name="P" horiz-adv-x="581" unicode="P"/><glyph d="M342 359h163l92 -120q17 28 27 59.5t10 66.5q0 50 -18.5 94t-51 76.5t-76 51.5t-93.5 19t-93.5 -19t-75.5 -51.5t-50.5 -76.5t-18.5 -94t18.5 -94t50.5 -76.5t75.5 -51.5t93.5 -19q36 0 71 11l85 -111q-74 -34 -156 -34q-78 0 -146 29.5t-118.5 80t-79.5 119t-29 146.5 t29 146t79.5 119t118.5 80.5t146 29.5t146 -29.5t119 -80.5t80 -119t29 -146q0 -69 -22.5 -129t-61.5 -109l98 -127h-166z" glyph-name="Q" horiz-adv-x="790" unicode="Q"/><glyph d="M42 0v730h234q65 0 115.5 -18.5t85.5 -52t53.5 -80t18.5 -103.5q0 -66 -31.5 -123.5t-91.5 -89.5l146 -263h-155l-117 223h-122v-223h-136zM264 348q42 0 70.5 10.5t46 29t25 42.5t7.5 51q0 56 -35.5 89t-113.5 33h-86v-255h86z" glyph-name="R" horiz-adv-x="584" unicode="R"/><glyph d="M288 -10q-99 0 -167 37.5t-118 93.5l124 98q28 -48 69 -73.5t91 -25.5q54 0 82.5 30t28.5 68q0 23 -13 39t-34 27.5t-48.5 20.5l-56.5 18q-37 12 -74 26t-66.5 37.5t-48 58t-18.5 86.5q0 44 18 82t50.5 66.5t77 44.5t96.5 16q44 0 79.5 -8t65 -22t54 -33.5t46.5 -42.5 l-112 -85q-47 70 -132 70q-50 0 -76 -24t-26 -59q0 -22 12 -37t32.5 -26.5t47.5 -20.5l57 -19q37 -12 74.5 -27.5t68 -40t49.5 -60t19 -88.5q0 -43 -17 -84t-49 -72.5t-79 -51t-107 -19.5z" glyph-name="S" horiz-adv-x="563" unicode="S"/><glyph d="M221 600h-195v130h527v-130h-196v-600h-136v600z" glyph-name="T" horiz-adv-x="579" unicode="T"/><glyph d="M304 -10q-57 0 -105 17t-83.5 50t-55 82t-19.5 113v478h136v-486q0 -27 9.5 -50.5t26.5 -40.5t40 -27t50 -10t50 10t40.5 27t27.5 40.5t10 50.5v486h136v-478q0 -64 -20 -113t-55 -82t-83 -50t-105 -17z" glyph-name="U" horiz-adv-x="608" unicode="U"/><glyph d="M15 730h141l173 -522l172 522h141l-245 -730h-137z" glyph-name="V" horiz-adv-x="657" unicode="V"/><glyph d="M14 730h142l138 -511l153 511h134l152 -509l137 509h137l-206 -730h-135l-153 515l-153 -515h-138z" glyph-name="W" horiz-adv-x="1023" unicode="W"/><glyph d="M315 251l-151 -251h-153l223 369l-218 361h152l147 -243l147 243h153l-220 -361l224 -369h-152z" glyph-name="X" horiz-adv-x="630" unicode="X"/><glyph d="M245 346l-232 384h150l151 -253l152 253h150l-235 -387v-343h-136v346z" glyph-name="Y" horiz-adv-x="629" unicode="Y"/><glyph d="M36 125l323 475h-312v130h472v-124l-323 -476h323v-130h-483v125z" glyph-name="Z" horiz-adv-x="556" unicode="Z"/><glyph d="M36 730h273v-130h-137v-700h137v-130h-273v960z" glyph-name="bracketleft" horiz-adv-x="345" unicode="["/><glyph d="M11 730h144l346 -730h-144z" glyph-name="backslash" horiz-adv-x="511" unicode="\"/><glyph d="M36 -100h137v700h-137v130h273v-960h-273v130z" glyph-name="bracketright" horiz-adv-x="345" unicode="]"/><glyph d="M194 719h84l119 -170h-101l-60 89l-59 -89h-102z" glyph-name="asciicircum" horiz-adv-x="472" unicode="^"/><glyph d="M36 -10h375v-115h-375v115z" glyph-name="underscore" horiz-adv-x="447" unicode="_"/><glyph d="M105 720h127l114 -170h-91z" glyph-name="grave" horiz-adv-x="472" unicode="`"/><glyph d="M308 -12q-53 0 -104.5 20.5t-92.5 59.5t-66 95.5t-25 128.5q0 73 24.5 129.5t65 95.5t93 59.5t107.5 20.5q58 0 107 -22t81 -60v70h135v-585h-135v76q-32 -41 -82 -64.5t-108 -23.5zM330 112q38 0 70 14t55 39t36.5 58t13.5 71q0 37 -13.5 70t-36.5 57.5t-55 38.5t-70 14 q-37 0 -69.5 -14t-56.5 -38t-37.5 -57t-13.5 -71t13.5 -71.5t37.5 -58t56.5 -38.5t69.5 -14z" glyph-name="a" horiz-adv-x="671" unicode="a"/><glyph d="M365 -12q-60 0 -110 23t-82 65v-76h-134v740h135v-229q31 39 80.5 62.5t108.5 23.5q55 0 107 -20.5t92 -59.5t64.5 -95.5t24.5 -129.5q0 -72 -25 -128.5t-65.5 -95.5t-91.5 -59.5t-104 -20.5zM342 112q37 0 69 14t56 38.5t37.5 58t13.5 71.5t-13.5 71t-37.5 57t-56 38 t-69 14t-69 -14t-55.5 -38.5t-36.5 -57.5t-13 -70q0 -38 13 -71t36.5 -58t55.5 -39t69 -14z" glyph-name="b" horiz-adv-x="668" unicode="b"/><glyph d="M324 -12q-64 0 -119.5 24t-96.5 65t-64.5 96.5t-23.5 118.5q0 64 23.5 119.5t64.5 97t96.5 65t119.5 23.5q49 0 92.5 -13.5t79.5 -37.5t63 -57t44 -73l-121 -51q-20 48 -61.5 76.5t-95.5 28.5q-37 0 -68.5 -14t-55 -38t-36.5 -56.5t-13 -69.5q0 -36 13 -68.5t36.5 -56.5 t55.5 -38t69 -14q57 0 97.5 30.5t60.5 78.5l121 -52q-17 -40 -44 -74t-62.5 -58.5t-79.5 -38t-95 -13.5z" glyph-name="c" horiz-adv-x="617" unicode="c"/><glyph d="M308 -12q-53 0 -104.5 20.5t-92.5 59.5t-66 95.5t-25 128.5q0 73 24.5 129.5t65 95.5t93 59.5t107.5 20.5q57 0 106 -21.5t81 -59.5v224h136v-740h-135v76q-32 -41 -82 -64.5t-108 -23.5zM330 112q38 0 70 14t55 39t36.5 58t13.5 71q0 37 -13.5 70t-36.5 57.5t-55 38.5 t-70 14q-37 0 -69.5 -14t-56.5 -38t-37.5 -57t-13.5 -71t13.5 -71.5t37.5 -58t56.5 -38.5t69.5 -14z" glyph-name="d" horiz-adv-x="671" unicode="d"/><glyph d="M329 -12q-69 0 -126 23.5t-97.5 64.5t-63 96.5t-22.5 118.5q0 64 23.5 120t64.5 97t96.5 65t119.5 24q65 0 120.5 -22.5t95.5 -63t62.5 -95.5t22.5 -120v-51h-476q14 -62 61 -100t119 -38q57 0 99 28t63 75l111 -64q-38 -71 -106.5 -114.5t-166.5 -43.5zM324 478 q-61 0 -105.5 -33t-62.5 -87h332q-15 59 -58 89.5t-106 30.5z" glyph-name="e" unicode="e"/><glyph d="M17 585h99v1q0 63 13.5 107.5t42.5 72.5t75.5 41t113.5 13h12v-125q-40 0 -64 -5t-36.5 -18t-16 -34t-3.5 -53h120v-121h-120v-464h-137v464h-99v121z" glyph-name="f" horiz-adv-x="391" unicode="f"/><glyph d="M499 78q-32 -42 -82 -66t-109 -24q-53 0 -104.5 20.5t-92.5 59.5t-66 95.5t-25 128.5q0 73 24.5 129.5t65 95.5t93 59.5t107.5 20.5q58 0 107 -23.5t81 -63.5v75h135v-570q0 -62 -19.5 -116t-57.5 -94.5t-94.5 -64t-130.5 -23.5q-57 0 -103.5 12.5t-83.5 35t-65 53 t-48 67.5l120 73q32 -59 72 -88t110 -29q38 0 69 14t52.5 37t33 54t11.5 64v68zM330 112q38 0 70 14t55 39t36.5 58t13.5 71q0 37 -13.5 70t-36.5 57.5t-55 38.5t-70 14q-37 0 -69.5 -14t-56.5 -38t-37.5 -57t-13.5 -71t13.5 -71.5t37.5 -58t56.5 -38.5t69.5 -14z" glyph-name="g" horiz-adv-x="673" unicode="g"/><glyph d="M39 740h135v-225q30 38 74.5 60t100.5 22q109 0 170.5 -66t61.5 -184v-347h-138v332q0 69 -33 108.5t-99 39.5q-28 0 -53 -10.5t-43.5 -30.5t-29 -50t-10.5 -68v-321h-136v740z" glyph-name="h" horiz-adv-x="619" unicode="h"/><glyph d="M39 585h136v-585h-136v585zM22 728q0 38 23 61.5t62 23.5q40 0 62.5 -23.5t22.5 -61.5t-22.5 -61t-62.5 -23q-41 0 -63 23t-22 61z" glyph-name="i" horiz-adv-x="214" unicode="i"/><glyph d="M-82 -142q39 0 63 4t37 16.5t17 35.5t4 62v609h136v-610q0 -69 -12 -116t-40 -75.5t-73.5 -40.5t-112.5 -12h-19v127zM22 728q0 38 23 61.5t62 23.5q40 0 62.5 -23.5t22.5 -61.5t-22.5 -61t-62.5 -23q-41 0 -63 23t-22 61z" glyph-name="j" horiz-adv-x="213" unicode="j"/><glyph d="M39 740h135v-437l249 282h162l-226 -253l234 -332h-151l-175 252l-93 -103v-149h-135v740z" glyph-name="k" horiz-adv-x="601" unicode="k"/><glyph d="M39 740h136v-740h-136v740z" glyph-name="l" horiz-adv-x="214" unicode="l"/><glyph d="M39 585h134v-68q28 37 70.5 58.5t96.5 21.5q69 0 116.5 -26.5t73.5 -74.5q30 46 79.5 73.5t112.5 27.5q118 0 178 -65.5t60 -179.5v-352h-138v341q0 64 -32 101.5t-95 37.5q-55 0 -92 -38t-37 -115v-327h-137v345q0 63 -31 99t-92 36q-57 0 -94.5 -39t-37.5 -117v-324 h-135v585z" glyph-name="m" horiz-adv-x="998" unicode="m"/><glyph d="M39 585h134v-72q29 38 73.5 61t101.5 23q109 0 170.5 -66t61.5 -184v-347h-137v333q0 68 -33 107.5t-99 39.5q-58 0 -97.5 -41t-39.5 -118v-321h-135v585z" glyph-name="n" horiz-adv-x="619" unicode="n"/><glyph d="M323 -12q-63 0 -118.5 23.5t-96.5 65t-64.5 97t-23.5 118.5q0 64 23.5 119.5t64.5 97t96.5 65t118.5 23.5t118 -23.5t96.5 -65t65 -97t23.5 -119.5q0 -63 -23.5 -118.5t-65 -97t-96.5 -65t-118 -23.5zM323 115q36 0 67 14t54 38t36 56.5t13 68.5q0 37 -13 69.5t-36 56.5 t-54 38t-67 14t-67.5 -14t-54 -38t-35.5 -56.5t-13 -69.5q0 -36 13 -68.5t35.5 -56.5t54 -38t67.5 -14z" glyph-name="o" unicode="o"/><glyph d="M364 -12q-60 0 -110 21t-81 60v-338h-134v854h134v-78q31 41 80.5 65.5t109.5 24.5q55 0 107 -20.5t92 -59.5t64.5 -95.5t24.5 -129.5q0 -72 -25 -128.5t-65.5 -95.5t-92 -59.5t-104.5 -20.5zM342 112q37 0 69 14t56 38.5t37.5 58t13.5 71.5t-13.5 71t-37.5 57t-56 38 t-69 14q-38 0 -70 -14t-55 -38.5t-36 -57.5t-13 -70q0 -38 13 -71t36 -58t55 -39t70 -14z" glyph-name="p" horiz-adv-x="668" unicode="p"/><glyph d="M308 -12q-53 0 -104.5 20.5t-92.5 59.5t-66 95.5t-25 128.5q0 73 24.5 129.5t65 95.5t93 59.5t107.5 20.5q58 0 107 -23.5t81 -63.5v75h135v-854h-136v337q-32 -38 -81 -59t-108 -21zM330 112q38 0 70 14t55 39t36.5 58t13.5 71q0 37 -13.5 70t-36.5 57.5t-55 38.5 t-70 14q-37 0 -69.5 -14t-56.5 -38t-37.5 -57t-13.5 -71t13.5 -71.5t37.5 -58t56.5 -38.5t69.5 -14z" glyph-name="q" horiz-adv-x="671" unicode="q"/><glyph d="M39 585h134v-87q41 87 150 87q32 0 57.5 -7t45.5 -18l-51 -128q-15 10 -33.5 16.5t-47.5 6.5q-59 0 -89.5 -33.5t-30.5 -109.5v-312h-135v585z" glyph-name="r" horiz-adv-x="431" unicode="r"/><glyph d="M259 -12q-97 0 -161 36.5t-99 105.5l125 60q21 -41 57 -63t84 -22q50 0 75 21t25 50q0 16 -11.5 26t-30 17.5t-43.5 12.5t-52 11q-38 8 -74.5 19t-65.5 30.5t-47 50t-18 76.5q0 35 16.5 67.5t46.5 57.5t72.5 39.5t94.5 14.5q88 0 146.5 -32.5t92.5 -88.5l-115 -58 q-18 31 -50 49t-74 18q-48 0 -71 -19t-23 -44q0 -29 34 -41.5t100 -26.5q36 -7 72.5 -18.5t66.5 -31t48.5 -50t18.5 -76.5q0 -31 -14 -64.5t-43.5 -62t-74.5 -46.5t-108 -18z" glyph-name="s" horiz-adv-x="518" unicode="s"/><glyph d="M18 585h100v89l136 93v-182h119v-121h-119v-219q0 -38 4 -61.5t16.5 -36t36 -16.5t62.5 -4v-127h-19q-68 0 -113.5 12t-72.5 40.5t-38.5 75t-11.5 116.5v220h-100v121z" glyph-name="t" horiz-adv-x="399" unicode="t"/><glyph d="M566 0h-134v67q-28 -37 -70 -58t-98 -21q-104 0 -164.5 66t-60.5 184v347h137v-333q0 -68 30.5 -107.5t94.5 -39.5q56 0 93 41t37 118v321h135v-585z" glyph-name="u" horiz-adv-x="605" unicode="u"/><glyph d="M9 585h141l151 -412l148 412h139l-220 -585h-136z" glyph-name="v" horiz-adv-x="599" unicode="v"/><glyph d="M18 585h138l129 -403l147 403h134l144 -404l134 404h137l-205 -585h-130l-148 405l-152 -405h-133z" glyph-name="w" horiz-adv-x="995" unicode="w"/><glyph d="M225 298l-212 287h165l133 -186l132 186h160l-210 -289l224 -296h-165l-143 195l-139 -195h-165z" glyph-name="x" horiz-adv-x="614" unicode="x"/><glyph d="M246 29l-240 556h144l163 -394l154 394h142l-349 -855h-137z" glyph-name="y" horiz-adv-x="618" unicode="y"/><glyph d="M28 123l340 342h-333v120h509v-123l-340 -342h346v-120h-522v123z" glyph-name="z" horiz-adv-x="577" unicode="z"/><glyph d="M335 -230q-63 0 -105 11t-67.5 36.5t-36.5 67t-11 102.5v97q0 29 -3 48.5t-12.5 31t-28 16.5t-50.5 5v125q32 0 50.5 4.5t28 16t12.5 31t3 48.5v103q0 61 11 102.5t36.5 67t67.5 36.5t105 11h11v-125q-32 0 -51.5 -3.5t-29.5 -13t-13 -28t-3 -48.5v-103q0 -63 -17 -102.5 t-58 -59.5q42 -20 58.5 -59.5t16.5 -102.5v-97q0 -30 3 -48.5t13 -28t29.5 -13t51.5 -3.5v-125h-11z" glyph-name="braceleft" horiz-adv-x="372" unicode="{"/><glyph d="M36 730h136v-960h-136v960z" glyph-name="bar" horiz-adv-x="209" unicode="|"/><glyph d="M26 -105q32 0 51.5 3.5t29.5 13t13 28t3 48.5v97q0 63 16.5 102.5t58.5 59.5q-42 20 -58.5 59.5t-16.5 102.5v103q0 30 -3 48.5t-13 28t-29.5 13t-51.5 3.5v125h11q63 0 105 -11t67.5 -36.5t36.5 -67t11 -102.5v-103q0 -29 3 -48.5t12.5 -31t28.5 -16t50 -4.5v-125 q-31 0 -50 -5t-28.5 -16.5t-12.5 -31t-3 -48.5v-97q0 -61 -11 -102.5t-36.5 -67t-67.5 -36.5t-105 -11h-11v125z" glyph-name="braceright" horiz-adv-x="372" unicode="}"/><glyph d="M63 574q0 61 27.5 97.5t77.5 36.5q25 0 43 -7.5t33 -16.5l26.5 -16.5t25.5 -7.5q28 0 28 44h78q0 -61 -26 -97.5t-79 -36.5q-29 0 -49.5 10t-37.5 20q-11 7 -21 12t-21 5q-26 0 -26 -43h-79z" glyph-name="asciitilde" horiz-adv-x="471" unicode="~"/><glyph d="M37 -113q0 50 2.5 104.5t6.5 108.5t9.5 106t12.5 97h73q7 -45 12.5 -97t9.5 -106t6 -108.5t2 -104.5v-117h-134v117zM22 430q0 37 22 59.5t60 22.5t59.5 -22.5t21.5 -59.5q0 -36 -22 -58.5t-60 -22.5t-59.5 22.5t-21.5 58.5z" glyph-name="exclamdown" horiz-adv-x="209" unicode="¡"/><glyph d="M234 0q-44 12 -81.5 37t-64.5 60t-42 78t-15 91t15.5 91t42.5 78t64 60t81 37v131h136v-128q68 -14 117.5 -56.5t75.5 -103.5l-121 -52q-17 42 -53 67t-83 25q-31 0 -57.5 -11.5t-46 -32t-31 -47.5t-11.5 -58t11.5 -58t31 -47.5t46.5 -32t58 -11.5q47 0 82.5 25.5 t52.5 65.5l121 -51q-26 -60 -75.5 -103t-117.5 -57v-127h-136v130z" glyph-name="cent" horiz-adv-x="588" unicode="¢"/><glyph d="M54 436h56q-8 22 -13 46t-5 50q0 47 15.5 85.5t44.5 65.5t70 42t92 15q92 0 147 -39.5t76 -106.5l-129 -47q-10 35 -32 55t-60 20q-43 0 -64.5 -25t-21.5 -63q0 -26 7.5 -50t18.5 -48h193v-107h-142q15 -35 25.5 -73t10.5 -85q0 -26 -8 -53q11 -9 20 -14.5t17 -5.5 q20 0 25.5 12t5.5 46v81h139v-77q0 -45 -6.5 -77t-22 -52.5t-42 -30.5t-65.5 -10q-35 0 -63 13.5t-52 33.5q-20 -22 -47 -35t-59 -13q-78 0 -115 30.5t-37 83.5q0 50 33 84t93 34q24 0 45 -6.5t39 -17.5q-6 32 -27.5 64l-46.5 68h-115v107zM177 81q25 0 41 18q-13 10 -25 16 t-25 6q-10 0 -15.5 -5.5t-5.5 -13.5q0 -9 8 -15t22 -6z" glyph-name="sterling" horiz-adv-x="588" unicode="£"/><glyph d="M390 102q-71 0 -130 34l-127 -130l-98 96l129 131q-16 29 -24.5 61.5t-8.5 67.5t9 68t26 62l-133 140l99 93l131 -136q28 16 60 24.5t67 8.5t66.5 -8.5t59.5 -23.5l124 127l98 -95l-125 -128q17 -29 26.5 -62.5t9.5 -69.5q0 -37 -9.5 -70.5t-26.5 -62.5l125 -131l-98 -95 l-126 130q-57 -31 -124 -31zM390 229q27 0 50.5 10.5t41 28.5t27.5 42.5t10 51.5t-10 51.5t-27.5 42.5t-41 28.5t-50.5 10.5t-50.5 -10.5t-40.5 -28.5t-27 -42.5t-10 -51.5t10 -51.5t27 -42.5t40.5 -28.5t50.5 -10.5z" glyph-name="currency" horiz-adv-x="773" unicode="¤"/><glyph d="M80 391h146v24l-203 315h152l120 -198l120 198h150l-203 -315v-24h147v-109h-147v-79h147v-110h-147v-93h-136v93h-146v110h146v79h-146v109z" glyph-name="yen" horiz-adv-x="588" unicode="¥"/><glyph d="M36 730h136v-420h-136v420zM36 190h136v-420h-136v420z" glyph-name="brokenbar" horiz-adv-x="211" unicode="¦"/><glyph d="M285 -10q-48 0 -89 13t-72.5 34.5t-52.5 48.5t-29 55l135 37q9 -33 41 -54.5t77 -21.5q42 0 63 13t21 33q0 14 -11 23.5t-30 16.5t-45.5 13.5l-57.5 13.5q-45 11 -84.5 23.5t-68.5 31.5t-45.5 45t-16.5 62q0 40 24 71t61 47q-32 38 -32 89q0 33 13.5 62t40.5 50t66 33 t90 11q45 0 83.5 -11.5t68 -31t49 -44t26.5 -51.5l-128 -36q-5 29 -32 49t-70 20q-40 0 -60 -12.5t-20 -32.5q0 -27 38.5 -43t100.5 -31q45 -10 84.5 -23.5t69 -32t46 -44t16.5 -60.5q0 -39 -21.5 -68t-55.5 -46q35 -35 35 -88q0 -34 -16.5 -64t-46.5 -52.5t-72 -35.5 t-93 -12zM312 317q20 -5 37.5 -10l33.5 -10q18 6 27.5 17t9.5 24q0 27 -41.5 42.5t-116.5 33.5q-36 9 -67 21q-20 -5 -30 -17t-10 -26q0 -27 41 -42.5t116 -32.5z" glyph-name="section" horiz-adv-x="575" unicode="§"/><glyph d="M69 619q0 32 19.5 52t52.5 20q34 0 53 -20t19 -52t-19 -51.5t-53 -19.5t-53 19.5t-19 51.5zM260 619q0 32 19.5 52t52.5 20t52.5 -20t19.5 -52t-19.5 -51.5t-52.5 -19.5q-35 0 -53.5 19.5t-18.5 51.5z" glyph-name="dieresis" horiz-adv-x="473" unicode="¨"/><glyph d="M395 -10q-78 0 -146 29.5t-118.5 80t-79.5 119t-29 146.5t29 146t79.5 119t118.5 80.5t146 29.5t146 -29.5t119 -80.5t80 -119t29 -146t-29 -146.5t-80 -119t-119 -80t-146 -29.5zM395 94q56 0 105 21.5t85 58t57 86t21 105.5t-21 105.5t-57 86t-85 58t-105 21.5 q-57 0 -105.5 -21.5t-84 -58t-55.5 -86t-20 -105.5t20 -105.5t55.5 -86t84 -58t105.5 -21.5zM401 163q-45 0 -82.5 16t-64.5 43t-42 64t-15 79t15.5 79t42.5 64t64.5 43t81.5 16q61 0 108.5 -31.5t69.5 -78.5l-58.5 -26.5t-30.5 -13.5q-12 -6 -15 -7q-5 19 -24 34.5 t-51 15.5q-39 0 -66 -27.5t-27 -67.5t27 -67.5t66 -27.5q31 0 51.5 16t25.5 35l107 -37q-23 -51 -71 -86t-112 -35z" glyph-name="copyright" horiz-adv-x="790" unicode="©"/><glyph d="M151 435q-21 0 -44 8.5t-42.5 26.5t-32 46.5t-12.5 68.5q0 41 13 69.5t33 46.5t43 26.5t44 8.5q26 0 45 -9t32 -23v26h98v-290h-98v31q-14 -16 -34 -26t-45 -10zM176 525q26 0 41.5 18t15.5 43t-15.5 42.5t-41.5 17.5t-43 -16.5t-17 -43.5q0 -26 17 -43.5t43 -17.5z" glyph-name="ordfeminine" horiz-adv-x="364" unicode="ª"/><glyph d="M248 218v75l183 113v-91l-100 -60l100 -59v-92zM46 218v75l183 113v-91l-100 -60l100 -59v-92z" glyph-name="guillemotleft" horiz-adv-x="477" unicode="«"/><glyph d="M432 387h-404v131h540v-362h-136v231z" glyph-name="logicalnot" horiz-adv-x="603" unicode="¬"/><glyph d="M36 312h370v-115h-370v115z" glyph-name="uni00AD" horiz-adv-x="442" unicode="­"/><glyph d="M395 -125q-78 0 -146 29.5t-118.5 80t-79.5 119t-29 146.5t29 146t79.5 119t118.5 80.5t146 29.5t146 -29.5t119 -80.5t80 -119t29 -146t-29 -146.5t-80 -119t-119 -80t-146 -29.5zM395 -21q56 0 105 21.5t85 58t57 86t21 105.5t-21 105.5t-57 86t-85 58t-105 21.5 q-57 0 -105.5 -21.5t-84 -58t-55.5 -86t-20 -105.5t20 -105.5t55.5 -86t84 -58t105.5 -21.5zM236 439h173q41 0 72.5 -11t53.5 -30t33 -42.5t11 -49.5q0 -42 -19 -72t-57 -44l74 -125h-125l-97 186h50q24 0 41.5 11.5t17.5 37.5t-18 36t-43 10h-54v-281h-113v374z" glyph-name="registered" horiz-adv-x="790" unicode="®"/><glyph d="M105 636h264v-86h-264v86z" glyph-name="macron" horiz-adv-x="472" unicode="¯"/><glyph d="M200 387q-37 0 -69 14t-56 38t-38 56t-14 69q0 36 14 68t38 56t56 38t69 14t69 -14t56 -38t37.5 -56t13.5 -68q0 -37 -13.5 -69t-37.5 -56t-56 -38t-69 -14zM200 501q26 0 44.5 18.5t18.5 44.5t-18.5 44.5t-44.5 18.5t-44.5 -18.5t-18.5 -44.5t18.5 -44.5t44.5 -18.5z" glyph-name="degree" horiz-adv-x="400" unicode="°"/><glyph d="M36 531h129v128h113v-128h128v-114h-128v-128h-113v128h-129v114zM36 231h370v-114h-370v114z" glyph-name="plusminus" horiz-adv-x="442" unicode="±"/><glyph d="M14 391q0 32 10.5 55.5t27 41.5t37 31.5t40.5 23.5q30 17 52.5 31t22.5 33q0 13 -10.5 22.5t-30.5 9.5q-23 0 -38.5 -17t-23.5 -37l-97 50q23 47 63 74t98 27q69 0 111.5 -36t42.5 -92q0 -30 -11 -53t-28 -40t-38 -30t-41 -23q-26 -14 -45 -25.5t-21 -24.5h181v-104h-302 v83z" glyph-name="twosuperior" horiz-adv-x="330" unicode="²"/><glyph d="M158 302q-43 0 -84 12.5t-69 40.5l85 77q27 -28 61 -28q20 0 32.5 9.5t12.5 26.5t-16.5 25t-42.5 8h-44v98h42q25 0 38.5 9.5t13.5 26.5q0 31 -43 31q-16 0 -30 -7.5t-22 -20.5l-80 69q25 27 62.5 42t73.5 15q70 0 113.5 -33.5t43.5 -91.5q0 -50 -42 -83q25 -15 38.5 -38 t13.5 -53q0 -28 -11 -53t-31.5 -43t-49.5 -28.5t-65 -10.5z" glyph-name="threesuperior" horiz-adv-x="325" unicode="³"/><glyph d="M220 720h126l-150 -170h-91z" glyph-name="acute" horiz-adv-x="472" unicode="´"/><glyph d="M32 500h136v-261q0 -64 23 -98.5t71 -34.5q41 0 70 29t29 92v273h134v-500h-133v49q-23 -28 -54.5 -43.5t-70.5 -15.5q-20 0 -38 4.5t-34 12.5v-237h-133v730z" glyph-name="mu" horiz-adv-x="527" unicode="µ"/><glyph d="M32 500h136v-261q0 -64 23 -98.5t71 -34.5q41 0 70 29t29 92v273h134v-500h-133v49q-23 -28 -54.5 -43.5t-70.5 -15.5q-20 0 -38 4.5t-34 12.5v-237h-133v730z" glyph-name="mu" horiz-adv-x="527" unicode="μ"/><glyph d="M329 302h-91q-46 0 -86 16.5t-69 45.5t-45.5 68t-16.5 84t16.5 84t45.5 68t68.5 45.5t85.5 16.5h385v-730h-117v604h-60v-604h-116v302z" glyph-name="paragraph" horiz-adv-x="658" unicode="¶"/><glyph d="M36 323h134v-137h-134v137z" glyph-name="periodcentered" horiz-adv-x="207" unicode="·"/><glyph d="M213 -240q-40 0 -77.5 16.5t-66.5 42.5l78 47q17 -14 33.5 -24t42.5 -10q22 0 38.5 9t16.5 22q0 27 -58 27h-50v110h84v-53q56 2 85.5 -20.5t29.5 -59.5q0 -23 -12 -43t-33 -34t-49.5 -22t-61.5 -8z" glyph-name="cedilla" horiz-adv-x="472" unicode="¸"/><glyph d="M14 412h81v166q-11 -14 -27 -20t-36 -6h-6v107h3q21 0 34.5 7t21.5 17.5t11 23t3 23.5h109v-318h78v-104h-272v104z" glyph-name="onesuperior" horiz-adv-x="298" unicode="¹"/><glyph d="M170 435q-31 0 -58.5 12t-47.5 32t-32 47.5t-12 58.5q0 32 12 59.5t32 47.5t47.5 32t58.5 12t58 -12t47.5 -32t32 -47.5t11.5 -59.5q0 -31 -11.5 -58.5t-32 -47.5t-47.5 -32t-58 -12zM170 528q23 0 39 17t16 40q0 24 -16 41t-39 17q-24 0 -39.5 -17t-15.5 -41 q0 -23 15.5 -40t39.5 -17z" glyph-name="ordmasculine" horiz-adv-x="339" unicode="º"/><glyph d="M248 196l100 59l-100 60v91l183 -113v-75l-183 -114v92zM46 196l100 59l-100 60v91l183 -113v-75l-183 -114v92z" glyph-name="guillemotright" horiz-adv-x="477" unicode="»"/><glyph d="M612 730h156l-527 -730h-156zM674 84h-169v99l168 239h105v-243h62v-95h-62v-84h-104v84zM14 412h81v166q-11 -14 -27 -20t-36 -6h-6v107h3q21 0 34.5 7t21.5 17.5t11 23t3 23.5h109v-318h78v-104h-272v104zM674 179v77l-53 -77h53z" glyph-name="onequarter" horiz-adv-x="854" unicode="¼"/><glyph d="M612 730h156l-527 -730h-156zM553 83q0 32 10.5 55.5t27 41.5t37 31.5t40.5 23.5q30 17 52.5 31t22.5 33q0 13 -10.5 22.5t-30.5 9.5q-23 0 -38.5 -17t-23.5 -37l-97 50q23 47 63 74t98 27q69 0 111.5 -36t42.5 -92q0 -30 -11 -53t-28 -40t-38 -30t-41 -23 q-26 -14 -45 -25.5t-21 -24.5h181v-104h-302v83zM14 412h81v166q-11 -14 -27 -20t-36 -6h-6v107h3q21 0 34.5 7t21.5 17.5t11 23t3 23.5h109v-318h78v-104h-272v104z" glyph-name="onehalf" horiz-adv-x="870" unicode="½"/><glyph d="M619 730h156l-527 -730h-156zM680 84h-169v99l168 239h105v-243h62v-95h-62v-84h-104v84zM158 302q-43 0 -84 12.5t-69 40.5l85 77q27 -28 61 -28q20 0 32.5 9.5t12.5 26.5t-16.5 25t-42.5 8h-44v98h42q25 0 38.5 9.5t13.5 26.5q0 31 -43 31q-16 0 -30 -7.5t-22 -20.5 l-80 69q25 27 62.5 42t73.5 15q70 0 113.5 -33.5t43.5 -91.5q0 -50 -42 -83q25 -15 38.5 -38t13.5 -53q0 -28 -11 -53t-31.5 -43t-49.5 -28.5t-65 -10.5zM680 179v77l-53 -77h53z" glyph-name="threequarters" horiz-adv-x="860" unicode="¾"/><glyph d="M263 -240q-51 0 -93 15t-73 42.5t-48 66t-17 85.5q0 48 13.5 78t34 51.5t44 39t44 38.5t34 50t13.5 75v11h120v-11q0 -61 -12 -101t-30.5 -67t-40 -45t-40 -35t-30.5 -36.5t-12 -49.5q0 -38 25.5 -63.5t69.5 -25.5q41 0 66.5 24.5t34.5 61.5l126 -43q-19 -72 -76 -116.5 t-153 -44.5zM194 431q0 37 22 59.5t60 22.5t59.5 -22.5t21.5 -59.5q0 -36 -22 -58.5t-60 -22.5t-59.5 22.5t-21.5 58.5z" glyph-name="questiondown" horiz-adv-x="517" unicode="¿"/><glyph d="M275 730h137l260 -730h-142l-45 130h-283l-45 -130h-142zM248 260h192l-96 277zM150 950h127l114 -170h-91z" glyph-name="Agrave" horiz-adv-x="687" unicode="À"/><glyph d="M275 730h137l260 -730h-142l-45 130h-283l-45 -130h-142zM248 260h192l-96 277zM412 950h126l-150 -170h-91z" glyph-name="Aacute" horiz-adv-x="687" unicode="Á"/><glyph d="M275 730h137l260 -730h-142l-45 130h-283l-45 -130h-142zM300 950h84l119 -170h-102l-59 89l-59 -89h-102zM248 260h192l-96 277z" glyph-name="Acircumflex" horiz-adv-x="687" unicode="Â"/><glyph d="M275 730h137l260 -730h-142l-45 130h-283l-45 -130h-142zM173 780q0 61 27.5 98t76.5 37q25 0 43 -7.5t34 -16.5q14 -10 26.5 -17.5t25.5 -7.5q28 0 28 45h78q0 -62 -26 -98.5t-79 -36.5q-29 0 -49.5 10.5t-37.5 20.5q-11 7 -21.5 12t-21.5 5q-26 0 -26 -44h-78zM248 260 h192l-96 277z" glyph-name="Atilde" horiz-adv-x="687" unicode="Ã"/><glyph d="M275 730h137l260 -730h-142l-45 130h-283l-45 -130h-142zM248 260h192l-96 277zM176 849q0 32 19.5 52t52.5 20q34 0 53 -20t19 -52t-19 -51.5t-53 -19.5t-53 19.5t-19 51.5zM367 849q0 32 19.5 52t52.5 20t52.5 -20t19.5 -52t-19.5 -51.5t-52.5 -19.5q-35 0 -53.5 19.5 t-18.5 51.5z" glyph-name="Adieresis" horiz-adv-x="687" unicode="Ä"/><glyph d="M260 688q-15 16 -24 37t-9 45q0 25 9 46.5t25 37.5t37 25t45 9t45.5 -9t37.5 -25t25 -37.5t9 -46.5q0 -24 -9 -45t-25 -37l246 -688h-142l-45 130h-283l-45 -130h-142zM248 260h192l-96 277zM343 731q17 0 29 11.5t12 27.5q0 17 -12 29t-29 12t-28.5 -12t-11.5 -29 q0 -16 11.5 -27.5t28.5 -11.5z" glyph-name="Aring" horiz-adv-x="687" unicode="Å"/><glyph d="M346 730h558v-130h-386l42 -168h344v-130h-311l43 -172h268v-130h-378l-32 129h-281l-58 -129h-142zM269 255h194l-68 279z" glyph-name="AE" horiz-adv-x="938" unicode="Æ"/><glyph d="M388 -240q-40 0 -77.5 16.5t-66.5 42.5l78 47q17 -14 33.5 -24t42.5 -10q22 0 38.5 9t16.5 22q0 27 -58 27h-50v104q-73 9 -133 41t-102 81.5t-65 113t-23 135.5q0 82 29 150.5t79.5 118.5t119 78t147.5 28q51 0 98.5 -13t89 -36.5t75 -57t57.5 -74.5l-119 -76 q-32 57 -81 90t-120 33q-52 0 -96 -18.5t-76 -51t-50 -76.5t-18 -95q0 -50 18 -93.5t49.5 -76t75 -51t94.5 -18.5q76 0 128.5 38.5t81.5 98.5l124 -65q-45 -87 -122.5 -142.5t-176.5 -63.5v-45q56 2 85.5 -20.5t29.5 -59.5q0 -23 -12 -43t-33 -34t-49.5 -22t-61.5 -8z" glyph-name="Ccedilla" horiz-adv-x="738" unicode="Ç"/><glyph d="M42 730h433v-130h-297v-168h297v-130h-297v-172h297v-130h-433v730zM72 950h127l114 -170h-91z" glyph-name="Egrave" horiz-adv-x="509" unicode="È"/><glyph d="M42 730h433v-130h-297v-168h297v-130h-297v-172h297v-130h-433v730zM317 950h126l-150 -170h-91z" glyph-name="Eacute" horiz-adv-x="509" unicode="É"/><glyph d="M42 730h433v-130h-297v-168h297v-130h-297v-172h297v-130h-433v730zM216 950h84l119 -170h-102l-59 89l-59 -89h-102z" glyph-name="Ecircumflex" horiz-adv-x="509" unicode="Ê"/><glyph d="M42 730h433v-130h-297v-168h297v-130h-297v-172h297v-130h-433v730zM95 849q0 32 19.5 52t52.5 20q34 0 53 -20t19 -52t-19 -51.5t-53 -19.5t-53 19.5t-19 51.5zM286 849q0 32 19.5 52t52.5 20t52.5 -20t19.5 -52t-19.5 -51.5t-52.5 -19.5q-35 0 -53.5 19.5t-18.5 51.5z" glyph-name="Edieresis" horiz-adv-x="509" unicode="Ë"/><glyph d="M47 730h136v-730h-136v730zM-80 950h127l114 -170h-91z" glyph-name="Igrave" horiz-adv-x="230" unicode="Ì"/><glyph d="M47 730h136v-730h-136v730zM185 950h126l-150 -170h-91z" glyph-name="Iacute" horiz-adv-x="230" unicode="Í"/><glyph d="M47 730h136v-730h-136v730zM73 950h84l119 -170h-102l-59 89l-59 -89h-102z" glyph-name="Icircumflex" horiz-adv-x="230" unicode="Î"/><glyph d="M152 918h134v-137h-134v137zM-55 918h134v-137h-134v137zM47 730h136v-730h-136v730z" glyph-name="Idieresis" horiz-adv-x="230" unicode="Ï"/><glyph d="M20 424h69v306h199q92 0 164 -28t121.5 -77t75 -115.5t25.5 -144.5t-28 -145t-78.5 -115.5t-120.5 -76.5t-153 -28h-205v309h-69v115zM225 604v-180h165v-115h-165v-183h53q60 0 108 18t81.5 50.5t52 76t18.5 94.5q0 53 -16 96.5t-49 75.5t-83 49.5t-118 17.5h-47z" glyph-name="Eth" horiz-adv-x="695" unicode="Ð"/><glyph d="M42 730h154l316 -497v497h136v-730h-145l-325 513v-513h-136v730zM174 780q0 61 27.5 98t76.5 37q25 0 43 -7.5t34 -16.5q14 -10 26.5 -17.5t25.5 -7.5q28 0 28 45h78q0 -62 -26 -98.5t-79 -36.5q-29 0 -49.5 10.5t-37.5 20.5q-11 7 -21.5 12t-21.5 5q-26 0 -26 -44h-78z" glyph-name="Ntilde" horiz-adv-x="690" unicode="Ñ"/><glyph d="M395 -10q-78 0 -146 29.5t-118.5 80t-79.5 119t-29 146.5t29 146t79.5 119t118.5 80.5t146 29.5t146 -29.5t119 -80.5t80 -119t29 -146t-29 -146.5t-80 -119t-119 -80t-146 -29.5zM395 124q50 0 93.5 19t76 51.5t51 76.5t18.5 94t-18.5 94t-51 76.5t-76 51.5t-93.5 19 t-93.5 -19t-75.5 -51.5t-50.5 -76.5t-18.5 -94t18.5 -94t50.5 -76.5t75.5 -51.5t93.5 -19zM199 950h127l114 -170h-91z" glyph-name="Ograve" horiz-adv-x="790" unicode="Ò"/><glyph d="M458 950h126l-150 -170h-91zM395 -10q-78 0 -146 29.5t-118.5 80t-79.5 119t-29 146.5t29 146t79.5 119t118.5 80.5t146 29.5t146 -29.5t119 -80.5t80 -119t29 -146t-29 -146.5t-80 -119t-119 -80t-146 -29.5zM395 124q50 0 93.5 19t76 51.5t51 76.5t18.5 94t-18.5 94 t-51 76.5t-76 51.5t-93.5 19t-93.5 -19t-75.5 -51.5t-50.5 -76.5t-18.5 -94t18.5 -94t50.5 -76.5t75.5 -51.5t93.5 -19z" glyph-name="Oacute" horiz-adv-x="790" unicode="Ó"/><glyph d="M395 -10q-78 0 -146 29.5t-118.5 80t-79.5 119t-29 146.5t29 146t79.5 119t118.5 80.5t146 29.5t146 -29.5t119 -80.5t80 -119t29 -146t-29 -146.5t-80 -119t-119 -80t-146 -29.5zM395 124q50 0 93.5 19t76 51.5t51 76.5t18.5 94t-18.5 94t-51 76.5t-76 51.5t-93.5 19 t-93.5 -19t-75.5 -51.5t-50.5 -76.5t-18.5 -94t18.5 -94t50.5 -76.5t75.5 -51.5t93.5 -19zM349 950h84l119 -170h-102l-59 89l-59 -89h-102z" glyph-name="Ocircumflex" horiz-adv-x="790" unicode="Ô"/><glyph d="M395 -10q-78 0 -146 29.5t-118.5 80t-79.5 119t-29 146.5t29 146t79.5 119t118.5 80.5t146 29.5t146 -29.5t119 -80.5t80 -119t29 -146t-29 -146.5t-80 -119t-119 -80t-146 -29.5zM395 124q50 0 93.5 19t76 51.5t51 76.5t18.5 94t-18.5 94t-51 76.5t-76 51.5t-93.5 19 t-93.5 -19t-75.5 -51.5t-50.5 -76.5t-18.5 -94t18.5 -94t50.5 -76.5t75.5 -51.5t93.5 -19zM220 780q0 61 27.5 98t76.5 37q25 0 43 -7.5t34 -16.5q14 -10 26.5 -17.5t25.5 -7.5q28 0 28 45h78q0 -62 -26 -98.5t-79 -36.5q-29 0 -49.5 10.5t-37.5 20.5q-11 7 -21.5 12 t-21.5 5q-26 0 -26 -44h-78z" glyph-name="Otilde" horiz-adv-x="790" unicode="Õ"/><glyph d="M221 849q0 32 19.5 52t52.5 20q34 0 53 -20t19 -52t-19 -51.5t-53 -19.5t-53 19.5t-19 51.5zM412 849q0 32 19.5 52t52.5 20t52.5 -20t19.5 -52t-19.5 -51.5t-52.5 -19.5q-35 0 -53.5 19.5t-18.5 51.5zM395 -10q-78 0 -146 29.5t-118.5 80t-79.5 119t-29 146.5t29 146 t79.5 119t118.5 80.5t146 29.5t146 -29.5t119 -80.5t80 -119t29 -146t-29 -146.5t-80 -119t-119 -80t-146 -29.5zM395 124q50 0 93.5 19t76 51.5t51 76.5t18.5 94t-18.5 94t-51 76.5t-76 51.5t-93.5 19t-93.5 -19t-75.5 -51.5t-50.5 -76.5t-18.5 -94t18.5 -94t50.5 -76.5 t75.5 -51.5t93.5 -19z" glyph-name="Odieresis" horiz-adv-x="790" unicode="Ö"/><glyph d="M37 258l105 105l-106 106l79 79l106 -106l106 106l79 -79l-106 -106l105 -105l-79 -79l-105 105l-105 -105z" glyph-name="multiply" horiz-adv-x="442" unicode="×"/><glyph d="M116 114q-45 51 -69.5 114.5t-24.5 136.5q0 78 29 146t79.5 119t118.5 80.5t146 29.5q51 0 97.5 -13.5t88.5 -36.5l33 40h157l-95 -117q44 -50 68.5 -113t24.5 -135q0 -78 -29 -146.5t-80 -119t-119 -80t-146 -29.5q-51 0 -97 12.5t-87 35.5l-30 -38h-157zM157 365 q0 -41 12 -77.5t34 -66.5l292 362q-23 11 -48 17t-52 6q-50 0 -93.5 -19t-75.5 -51.5t-50.5 -76.5t-18.5 -94zM395 124q50 0 93.5 19t76 51.5t51 76.5t18.5 94q0 39 -12 75t-33 65l-291 -361q45 -20 97 -20z" glyph-name="Oslash" horiz-adv-x="790" unicode="Ø"/><glyph d="M304 -10q-57 0 -105 17t-83.5 50t-55 82t-19.5 113v478h136v-486q0 -27 9.5 -50.5t26.5 -40.5t40 -27t50 -10t50 10t40.5 27t27.5 40.5t10 50.5v486h136v-478q0 -64 -20 -113t-55 -82t-83 -50t-105 -17zM117 950h127l114 -170h-91z" glyph-name="Ugrave" horiz-adv-x="608" unicode="Ù"/><glyph d="M365 950h126l-150 -170h-91zM304 -10q-57 0 -105 17t-83.5 50t-55 82t-19.5 113v478h136v-486q0 -27 9.5 -50.5t26.5 -40.5t40 -27t50 -10t50 10t40.5 27t27.5 40.5t10 50.5v486h136v-478q0 -64 -20 -113t-55 -82t-83 -50t-105 -17z" glyph-name="Uacute" horiz-adv-x="608" unicode="Ú"/><glyph d="M304 -10q-57 0 -105 17t-83.5 50t-55 82t-19.5 113v478h136v-486q0 -27 9.5 -50.5t26.5 -40.5t40 -27t50 -10t50 10t40.5 27t27.5 40.5t10 50.5v486h136v-478q0 -64 -20 -113t-55 -82t-83 -50t-105 -17zM262 950h84l119 -170h-102l-59 89l-59 -89h-102z" glyph-name="Ucircumflex" horiz-adv-x="608" unicode="Û"/><glyph d="M141 849q0 32 19.5 52t52.5 20q34 0 53 -20t19 -52t-19 -51.5t-53 -19.5t-53 19.5t-19 51.5zM332 849q0 32 19.5 52t52.5 20t52.5 -20t19.5 -52t-19.5 -51.5t-52.5 -19.5q-35 0 -53.5 19.5t-18.5 51.5zM304 -10q-57 0 -105 17t-83.5 50t-55 82t-19.5 113v478h136v-486 q0 -27 9.5 -50.5t26.5 -40.5t40 -27t50 -10t50 10t40.5 27t27.5 40.5t10 50.5v486h136v-478q0 -64 -20 -113t-55 -82t-83 -50t-105 -17z" glyph-name="Udieresis" horiz-adv-x="608" unicode="Ü"/><glyph d="M245 346l-232 384h150l151 -253l152 253h150l-235 -387v-343h-136v346zM379 950h126l-150 -170h-91z" glyph-name="Yacute" horiz-adv-x="629" unicode="Ý"/><glyph d="M42 730h136v-127h121q51 0 93.5 -18t73 -49.5t48 -74t17.5 -90.5t-17.5 -90.5t-48 -74t-73.5 -49.5t-94 -18h-120v-139h-136v730zM178 477v-212h113q48 0 76.5 30.5t28.5 75.5q0 44 -28.5 75t-76.5 31h-113z" glyph-name="Thorn" horiz-adv-x="558" unicode="Þ"/><glyph d="M-80 -142q38 0 61.5 5t36 18.5t17 36t4.5 58.5v625q-2 56 14 102.5t48 80t80 52t110 18.5q55 0 101 -17.5t79 -48.5t51 -74.5t18 -94.5q0 -61 -30.5 -107t-85.5 -69q31 -10 58 -28.5t46.5 -44t30.5 -57.5t11 -68q0 -56 -19 -103t-53.5 -81t-83 -53t-108.5 -19 q-20 0 -41 2t-38 9v122q4 -3 14 -5t22 -3.5t23.5 -2t17.5 -0.5q27 0 50.5 10t41 28t27 42.5t9.5 52.5q0 27 -11 50.5t-31 41.5t-49.5 28.5t-65.5 10.5h-26v123h26q60 0 96.5 35t36.5 87q0 25 -8.5 46.5t-23.5 38t-37 26t-49 9.5q-56 0 -89.5 -31t-33.5 -94v-639 q0 -68 -11 -114.5t-37 -75.5t-69.5 -42t-108.5 -13h-21v127z" glyph-name="germandbls" horiz-adv-x="589" unicode="ß"/><glyph d="M308 -12q-53 0 -104.5 20.5t-92.5 59.5t-66 95.5t-25 128.5q0 73 24.5 129.5t65 95.5t93 59.5t107.5 20.5q58 0 107 -22t81 -60v70h135v-585h-135v76q-32 -41 -82 -64.5t-108 -23.5zM330 112q38 0 70 14t55 39t36.5 58t13.5 71q0 37 -13.5 70t-36.5 57.5t-55 38.5t-70 14 q-37 0 -69.5 -14t-56.5 -38t-37.5 -57t-13.5 -71t13.5 -71.5t37.5 -58t56.5 -38.5t69.5 -14zM136 815h127l114 -170h-91z" glyph-name="agrave" horiz-adv-x="671" unicode="à"/><glyph d="M308 -12q-53 0 -104.5 20.5t-92.5 59.5t-66 95.5t-25 128.5q0 73 24.5 129.5t65 95.5t93 59.5t107.5 20.5q58 0 107 -22t81 -60v70h135v-585h-135v76q-32 -41 -82 -64.5t-108 -23.5zM330 112q38 0 70 14t55 39t36.5 58t13.5 71q0 37 -13.5 70t-36.5 57.5t-55 38.5t-70 14 q-37 0 -69.5 -14t-56.5 -38t-37.5 -57t-13.5 -71t13.5 -71.5t37.5 -58t56.5 -38.5t69.5 -14zM386 815h126l-150 -170h-91z" glyph-name="aacute" horiz-adv-x="671" unicode="á"/><glyph d="M308 -12q-53 0 -104.5 20.5t-92.5 59.5t-66 95.5t-25 128.5q0 73 24.5 129.5t65 95.5t93 59.5t107.5 20.5q58 0 107 -22t81 -60v70h135v-585h-135v76q-32 -41 -82 -64.5t-108 -23.5zM330 112q38 0 70 14t55 39t36.5 58t13.5 71q0 37 -13.5 70t-36.5 57.5t-55 38.5t-70 14 q-37 0 -69.5 -14t-56.5 -38t-37.5 -57t-13.5 -71t13.5 -71.5t37.5 -58t56.5 -38.5t69.5 -14zM268 812h84l119 -170h-102l-59 89l-59 -89h-102z" glyph-name="acircumflex" horiz-adv-x="671" unicode="â"/><glyph d="M308 -12q-53 0 -104.5 20.5t-92.5 59.5t-66 95.5t-25 128.5q0 73 24.5 129.5t65 95.5t93 59.5t107.5 20.5q58 0 107 -22t81 -60v70h135v-585h-135v76q-32 -41 -82 -64.5t-108 -23.5zM330 112q38 0 70 14t55 39t36.5 58t13.5 71q0 37 -13.5 70t-36.5 57.5t-55 38.5t-70 14 q-37 0 -69.5 -14t-56.5 -38t-37.5 -57t-13.5 -71t13.5 -71.5t37.5 -58t56.5 -38.5t69.5 -14zM163 645q0 61 27.5 98t76.5 37q25 0 43 -7.5t34 -16.5q14 -10 26.5 -17.5t25.5 -7.5q28 0 28 45h78q0 -62 -26 -98.5t-79 -36.5q-29 0 -49.5 10.5t-37.5 20.5q-11 7 -21.5 12 t-21.5 5q-26 0 -26 -44h-78z" glyph-name="atilde" horiz-adv-x="671" unicode="ã"/><glyph d="M308 -12q-53 0 -104.5 20.5t-92.5 59.5t-66 95.5t-25 128.5q0 73 24.5 129.5t65 95.5t93 59.5t107.5 20.5q58 0 107 -22t81 -60v70h135v-585h-135v76q-32 -41 -82 -64.5t-108 -23.5zM330 112q38 0 70 14t55 39t36.5 58t13.5 71q0 37 -13.5 70t-36.5 57.5t-55 38.5t-70 14 q-37 0 -69.5 -14t-56.5 -38t-37.5 -57t-13.5 -71t13.5 -71.5t37.5 -58t56.5 -38.5t69.5 -14zM156 713q0 32 19.5 52t52.5 20q34 0 53 -20t19 -52t-19 -51.5t-53 -19.5t-53 19.5t-19 51.5zM347 713q0 32 19.5 52t52.5 20t52.5 -20t19.5 -52t-19.5 -51.5t-52.5 -19.5 q-35 0 -53.5 19.5t-18.5 51.5z" glyph-name="adieresis" horiz-adv-x="671" unicode="ä"/><glyph d="M308 -12q-53 0 -104.5 20.5t-92.5 59.5t-66 95.5t-25 128.5q0 73 24.5 129.5t65 95.5t93 59.5t107.5 20.5q58 0 107 -22t81 -60v70h135v-585h-135v76q-32 -41 -82 -64.5t-108 -23.5zM330 112q38 0 70 14t55 39t36.5 58t13.5 71q0 37 -13.5 70t-36.5 57.5t-55 38.5t-70 14 q-37 0 -69.5 -14t-56.5 -38t-37.5 -57t-13.5 -71t13.5 -71.5t37.5 -58t56.5 -38.5t69.5 -14zM329 640q-24 0 -45 9t-37 25t-25 37t-9 45q0 25 9 46.5t25 37.5t37 25t45 9t45.5 -9t37.5 -25t25 -37.5t9 -46.5q0 -24 -9 -45t-25 -37t-37.5 -25t-45.5 -9zM329 717q17 0 29 11.5 t12 27.5q0 17 -12 29t-29 12t-28.5 -12t-11.5 -29q0 -16 11.5 -27.5t28.5 -11.5z" glyph-name="aring" horiz-adv-x="671" unicode="å"/><glyph d="M719 -12q-84 0 -147.5 33t-102.5 90q-15 -25 -38.5 -47.5t-54.5 -39.5t-68 -26.5t-78 -9.5q-55 0 -95 12.5t-66 35t-38.5 52.5t-12.5 66q0 41 14.5 71t40.5 52t61.5 36.5t76.5 24.5q37 10 72 18t62.5 17.5t44.5 22t17 31.5q0 26 -27 44.5t-81 18.5q-73 0 -107 -32.5 t-34 -77.5v-3h-124v2q0 103 68.5 160.5t190.5 57.5q72 0 126 -21.5t84 -63.5q40 40 93.5 62.5t116.5 22.5q65 0 120 -22.5t95.5 -63t63.5 -95.5t23 -120v-47h-477q12 -64 59.5 -103t121.5 -39q57 0 101 29.5t65 76.5l114 -49q-37 -80 -110 -128t-170 -48zM237 100 q36 0 67 14.5t54 35t37 44t17 41.5q0 1 0.5 9.5t0 19t-1 19.5t-1.5 11q-5 -14 -41 -26.5t-93 -25.5q-62 -14 -92.5 -31.5t-30.5 -52.5q0 -26 19.5 -42t64.5 -16zM713 478q-60 0 -103 -32t-63 -84h330q-17 57 -60 86.5t-104 29.5z" glyph-name="ae" horiz-adv-x="1035" unicode="æ"/><glyph d="M316 -245q-40 0 -77.5 16.5t-66.5 42.5l78 47q17 -14 33.5 -24t42.5 -10q22 0 38.5 9t16.5 22q0 27 -58 27h-50v107q-55 9 -101 36t-80 66.5t-53 90t-19 107.5q0 64 23.5 119.5t64.5 97t96.5 65t119.5 23.5q49 0 92.5 -13.5t79.5 -37.5t63 -57t44 -73l-121 -51 q-20 48 -61.5 76.5t-95.5 28.5q-37 0 -68.5 -14t-55 -38t-36.5 -56.5t-13 -69.5q0 -36 13 -68.5t36.5 -56.5t55.5 -38t69 -14q57 0 97.5 30.5t60.5 78.5l121 -52q-32 -75 -95 -124.5t-153 -57.5v-48q56 2 85.5 -20.5t29.5 -59.5q0 -23 -12 -43t-33 -34t-49.5 -22t-61.5 -8z" glyph-name="ccedilla" horiz-adv-x="617" unicode="ç"/><glyph d="M329 -12q-69 0 -126 23.5t-97.5 64.5t-63 96.5t-22.5 118.5q0 64 23.5 120t64.5 97t96.5 65t119.5 24q65 0 120.5 -22.5t95.5 -63t62.5 -95.5t22.5 -120v-51h-476q14 -62 61 -100t119 -38q57 0 99 28t63 75l111 -64q-38 -71 -106.5 -114.5t-166.5 -43.5zM324 478 q-61 0 -105.5 -33t-62.5 -87h332q-15 59 -58 89.5t-106 30.5zM156 810h127l114 -170h-91z" glyph-name="egrave" unicode="è"/><glyph d="M329 -12q-69 0 -126 23.5t-97.5 64.5t-63 96.5t-22.5 118.5q0 64 23.5 120t64.5 97t96.5 65t119.5 24q65 0 120.5 -22.5t95.5 -63t62.5 -95.5t22.5 -120v-51h-476q14 -62 61 -100t119 -38q57 0 99 28t63 75l111 -64q-38 -71 -106.5 -114.5t-166.5 -43.5zM324 478 q-61 0 -105.5 -33t-62.5 -87h332q-15 59 -58 89.5t-106 30.5zM394 815h126l-150 -170h-91z" glyph-name="eacute" unicode="é"/><glyph d="M329 -12q-69 0 -126 23.5t-97.5 64.5t-63 96.5t-22.5 118.5q0 64 23.5 120t64.5 97t96.5 65t119.5 24q65 0 120.5 -22.5t95.5 -63t62.5 -95.5t22.5 -120v-51h-476q14 -62 61 -100t119 -38q57 0 99 28t63 75l111 -64q-38 -71 -106.5 -114.5t-166.5 -43.5zM324 478 q-61 0 -105.5 -33t-62.5 -87h332q-15 59 -58 89.5t-106 30.5zM287 809h84l119 -170h-102l-59 89l-59 -89h-102z" glyph-name="ecircumflex" unicode="ê"/><glyph d="M329 -12q-69 0 -126 23.5t-97.5 64.5t-63 96.5t-22.5 118.5q0 64 23.5 120t64.5 97t96.5 65t119.5 24q65 0 120.5 -22.5t95.5 -63t62.5 -95.5t22.5 -120v-51h-476q14 -62 61 -100t119 -38q57 0 99 28t63 75l111 -64q-38 -71 -106.5 -114.5t-166.5 -43.5zM324 478 q-61 0 -105.5 -33t-62.5 -87h332q-15 59 -58 89.5t-106 30.5zM156 703q0 32 19.5 52t52.5 20q34 0 53 -20t19 -52t-19 -51.5t-53 -19.5t-53 19.5t-19 51.5zM347 703q0 32 19.5 52t52.5 20t52.5 -20t19.5 -52t-19.5 -51.5t-52.5 -19.5q-35 0 -53.5 19.5t-18.5 51.5z" glyph-name="edieresis" unicode="ë"/><glyph d="M39 585h136v-585h-136v585zM-91 805h127l114 -170h-91z" glyph-name="igrave" horiz-adv-x="214" unicode="ì"/><glyph d="M170 805h126l-150 -170h-91zM39 585h136v-585h-136v585z" glyph-name="iacute" horiz-adv-x="214" unicode="í"/><glyph d="M39 585h136v-585h-136v585zM68 805h84l119 -170h-102l-59 89l-59 -89h-102z" glyph-name="icircumflex" horiz-adv-x="214" unicode="î"/><glyph d="M145 791h135v-161h-135v161zM-68 791h136v-161h-136v161zM39 585h136v-585h-136v585z" glyph-name="idieresis" horiz-adv-x="214" unicode="ï"/><glyph d="M249 718l-73.5 55l-86.5 61h193l32 -25.5l29 -24.5l71 50h126l-140 -99q62 -57 105.5 -110t70.5 -106.5t39 -109t12 -117.5q0 -61 -23.5 -116.5t-64.5 -97t-96.5 -66t-119.5 -24.5q-61 0 -116 22.5t-96.5 63.5t-66 98t-24.5 125q0 63 24 117.5t63.5 94.5t91 63t106.5 23 q38 0 64.5 -8.5t46.5 -23.5q-40 52 -108 108l-64 -45h-128zM323 115q36 0 67 14t54 38t36 56.5t13 68.5q0 37 -13 69.5t-36 56.5t-54 38t-67 14t-67.5 -14t-54 -38t-35.5 -56.5t-13 -69.5q0 -36 13 -68.5t35.5 -56.5t54 -38t67.5 -14z" glyph-name="eth" horiz-adv-x="661" unicode="ð"/><glyph d="M39 585h134v-72q29 38 73.5 61t101.5 23q109 0 170.5 -66t61.5 -184v-347h-137v333q0 68 -33 107.5t-99 39.5q-58 0 -97.5 -41t-39.5 -118v-321h-135v585zM167 646q0 61 27.5 98t76.5 37q25 0 43 -7.5t34 -16.5q14 -10 26.5 -17.5t25.5 -7.5q28 0 28 45h78 q0 -62 -26 -98.5t-79 -36.5q-29 0 -49.5 10.5t-37.5 20.5q-11 7 -21.5 12t-21.5 5q-26 0 -26 -44h-78z" glyph-name="ntilde" horiz-adv-x="618" unicode="ñ"/><glyph d="M323 -12q-63 0 -118.5 23.5t-96.5 65t-64.5 97t-23.5 118.5q0 48 13.5 91t38 79.5t58.5 65t75 45.5l-129 147h127l84 -125q9 1 18 1.5t18 0.5q63 0 118 -23.5t96.5 -65t65 -97t23.5 -119.5q0 -63 -23.5 -118.5t-65 -97t-96.5 -65t-118 -23.5zM323 115q36 0 67 14t54 38 t36 56.5t13 68.5q0 37 -13 69.5t-36 56.5t-54 38t-67 14t-67.5 -14t-54 -38t-35.5 -56.5t-13 -69.5q0 -36 13 -68.5t35.5 -56.5t54 -38t67.5 -14z" glyph-name="ograve" unicode="ò"/><glyph d="M392 815h126l-150 -170h-91zM323 -12q-63 0 -118.5 23.5t-96.5 65t-64.5 97t-23.5 118.5q0 64 23.5 119.5t64.5 97t96.5 65t118.5 23.5t118 -23.5t96.5 -65t65 -97t23.5 -119.5q0 -63 -23.5 -118.5t-65 -97t-96.5 -65t-118 -23.5zM323 115q36 0 67 14t54 38t36 56.5 t13 68.5q0 37 -13 69.5t-36 56.5t-54 38t-67 14t-67.5 -14t-54 -38t-35.5 -56.5t-13 -69.5q0 -36 13 -68.5t35.5 -56.5t54 -38t67.5 -14z" glyph-name="oacute" unicode="ó"/><glyph d="M323 -12q-63 0 -118.5 23.5t-96.5 65t-64.5 97t-23.5 118.5q0 64 23.5 119.5t64.5 97t96.5 65t118.5 23.5t118 -23.5t96.5 -65t65 -97t23.5 -119.5q0 -63 -23.5 -118.5t-65 -97t-96.5 -65t-118 -23.5zM323 115q36 0 67 14t54 38t36 56.5t13 68.5q0 37 -13 69.5t-36 56.5 t-54 38t-67 14t-67.5 -14t-54 -38t-35.5 -56.5t-13 -69.5q0 -36 13 -68.5t35.5 -56.5t54 -38t67.5 -14zM284 805h84l119 -170h-102l-59 89l-59 -89h-102z" glyph-name="ocircumflex" unicode="ô"/><glyph d="M323 -12q-63 0 -118.5 23.5t-96.5 65t-64.5 97t-23.5 118.5q0 64 23.5 119.5t64.5 97t96.5 65t118.5 23.5t118 -23.5t96.5 -65t65 -97t23.5 -119.5q0 -63 -23.5 -118.5t-65 -97t-96.5 -65t-118 -23.5zM323 115q36 0 67 14t54 38t36 56.5t13 68.5q0 37 -13 69.5t-36 56.5 t-54 38t-67 14t-67.5 -14t-54 -38t-35.5 -56.5t-13 -69.5q0 -36 13 -68.5t35.5 -56.5t54 -38t67.5 -14zM165 643q0 61 27.5 98t76.5 37q25 0 43 -7.5t34 -16.5q14 -10 26.5 -17.5t25.5 -7.5q28 0 28 45h78q0 -62 -26 -98.5t-79 -36.5q-29 0 -49.5 10.5t-37.5 20.5 q-11 7 -21.5 12t-21.5 5q-26 0 -26 -44h-78z" glyph-name="otilde" unicode="õ"/><glyph d="M154 703q0 32 19.5 52t52.5 20q34 0 53 -20t19 -52t-19 -51.5t-53 -19.5t-53 19.5t-19 51.5zM345 703q0 32 19.5 52t52.5 20t52.5 -20t19.5 -52t-19.5 -51.5t-52.5 -19.5q-35 0 -53.5 19.5t-18.5 51.5zM323 -12q-63 0 -118.5 23.5t-96.5 65t-64.5 97t-23.5 118.5 q0 64 23.5 119.5t64.5 97t96.5 65t118.5 23.5t118 -23.5t96.5 -65t65 -97t23.5 -119.5q0 -63 -23.5 -118.5t-65 -97t-96.5 -65t-118 -23.5zM323 115q36 0 67 14t54 38t36 56.5t13 68.5q0 37 -13 69.5t-36 56.5t-54 38t-67 14t-67.5 -14t-54 -38t-35.5 -56.5t-13 -69.5 q0 -36 13 -68.5t35.5 -56.5t54 -38t67.5 -14z" glyph-name="odieresis" unicode="ö"/><glyph d="M36 422h370v-115h-370v115zM165 579h114v-117h-114v117zM165 267h114v-116h-114v116z" glyph-name="divide" horiz-adv-x="442" unicode="÷"/><glyph d="M323 -12q-40 0 -76.5 9.5t-68.5 26.5l-19 -24h-139l73 92q-35 40 -54 91t-19 109q0 64 23.5 119.5t64.5 97t96.5 65t118.5 23.5q39 0 75 -9.5t68 -26.5l19 24h139l-73 -92q35 -40 55 -91.5t20 -109.5q0 -63 -23.5 -118.5t-65 -97t-96.5 -65t-118 -23.5zM323 115 q36 0 67 14t54.5 38t36.5 56.5t13 68.5q0 26 -7 50.5t-20 45.5l-207 -261q29 -12 63 -12zM152 292q0 -52 25 -94l207 260q-28 12 -61 12q-37 0 -68 -14t-54 -38t-36 -56.5t-13 -69.5z" glyph-name="oslash" unicode="ø"/><glyph d="M569 0h-134v67q-28 -37 -70 -58t-98 -21q-104 0 -164.5 66t-60.5 184v347h137v-333q0 -68 30.5 -107.5t94.5 -39.5q56 0 93 41t37 118v321h135v-585zM118 797h127l114 -170h-91z" glyph-name="ugrave" horiz-adv-x="608" unicode="ù"/><glyph d="M569 0h-134v67q-28 -37 -70 -58t-98 -21q-104 0 -164.5 66t-60.5 184v347h137v-333q0 -68 30.5 -107.5t94.5 -39.5q56 0 93 41t37 118v321h135v-585zM364 794h126l-150 -170h-91z" glyph-name="uacute" horiz-adv-x="608" unicode="ú"/><glyph d="M569 0h-134v67q-28 -37 -70 -58t-98 -21q-104 0 -164.5 66t-60.5 184v347h137v-333q0 -68 30.5 -107.5t94.5 -39.5q56 0 93 41t37 118v321h135v-585zM260 805h84l119 -170h-102l-59 89l-59 -89h-102z" glyph-name="ucircumflex" horiz-adv-x="608" unicode="û"/><glyph d="M569 0h-134v67q-28 -37 -70 -58t-98 -21q-104 0 -164.5 66t-60.5 184v347h137v-333q0 -68 30.5 -107.5t94.5 -39.5q56 0 93 41t37 118v321h135v-585zM138 703q0 32 19.5 52t52.5 20q34 0 53 -20t19 -52t-19 -51.5t-53 -19.5t-53 19.5t-19 51.5zM329 703q0 32 19.5 52 t52.5 20t52.5 -20t19.5 -52t-19.5 -51.5t-52.5 -19.5q-35 0 -53.5 19.5t-18.5 51.5z" glyph-name="udieresis" horiz-adv-x="608" unicode="ü"/><glyph d="M246 29l-240 556h144l163 -394l154 394h142l-349 -855h-137zM372 781h126l-150 -170h-91z" glyph-name="yacute" horiz-adv-x="618" unicode="ý"/><glyph d="M365 -12q-63 0 -112 25.5t-80 66.5v-349h-134v1123h134v-348q31 40 80 65.5t112 25.5q55 0 106.5 -20t91 -59t63.5 -95t24 -128q0 -73 -24.5 -130t-64.5 -96.5t-91.5 -60t-104.5 -20.5zM343 112q38 0 70.5 14.5t56 39t36.5 58t13 71.5q0 37 -13 69.5t-36.5 57t-55.5 38.5 t-71 14q-37 0 -69 -14t-55.5 -38.5t-36.5 -57.5t-13 -70t13.5 -70t36.5 -58t55 -39.5t69 -14.5z" glyph-name="thorn" horiz-adv-x="670" unicode="þ"/><glyph d="M246 29l-240 556h144l163 -394l154 394h142l-349 -855h-137zM144 703q0 32 19.5 52t52.5 20q34 0 53 -20t19 -52t-19 -51.5t-53 -19.5t-53 19.5t-19 51.5zM335 703q0 32 19.5 52t52.5 20t52.5 -20t19.5 -52t-19.5 -51.5t-52.5 -19.5q-35 0 -53.5 19.5t-18.5 51.5z" glyph-name="ydieresis" horiz-adv-x="618" unicode="ÿ"/><glyph d="M275 730h137l260 -730h-142l-45 130h-283l-45 -130h-142zM248 260h192l-96 277zM213 866h264v-86h-264v86z" glyph-name="Amacron" horiz-adv-x="687" unicode="Ā"/><glyph d="M308 -12q-53 0 -104.5 20.5t-92.5 59.5t-66 95.5t-25 128.5q0 73 24.5 129.5t65 95.5t93 59.5t107.5 20.5q58 0 107 -22t81 -60v70h135v-585h-135v76q-32 -41 -82 -64.5t-108 -23.5zM330 112q38 0 70 14t55 39t36.5 58t13.5 71q0 37 -13.5 70t-36.5 57.5t-55 38.5t-70 14 q-37 0 -69.5 -14t-56.5 -38t-37.5 -57t-13.5 -71t13.5 -71.5t37.5 -58t56.5 -38.5t69.5 -14zM203 732h264v-86h-264v86z" glyph-name="amacron" horiz-adv-x="671" unicode="ā"/><glyph d="M275 730h137l260 -730h-142l-45 130h-283l-45 -130h-142zM343 775q-41 0 -71.5 13t-50.5 35.5t-29.5 54t-9.5 67.5h85q0 -48 19.5 -71t56.5 -25q36 2 56 25t20 71h86q0 -36 -11 -67.5t-32 -54t-51 -35.5t-68 -13zM248 260h192l-96 277z" glyph-name="Abreve" horiz-adv-x="687" unicode="Ă"/><glyph d="M308 -12q-53 0 -104.5 20.5t-92.5 59.5t-66 95.5t-25 128.5q0 73 24.5 129.5t65 95.5t93 59.5t107.5 20.5q58 0 107 -22t81 -60v70h135v-585h-135v76q-32 -41 -82 -64.5t-108 -23.5zM330 112q38 0 70 14t55 39t36.5 58t13.5 71q0 37 -13.5 70t-36.5 57.5t-55 38.5t-70 14 q-37 0 -69.5 -14t-56.5 -38t-37.5 -57t-13.5 -71t13.5 -71.5t37.5 -58t56.5 -38.5t69.5 -14zM323 643q-41 0 -71.5 13t-50.5 35.5t-29.5 54t-9.5 67.5h85q0 -48 19.5 -71t56.5 -25q36 2 56 25t20 71h86q0 -36 -11 -67.5t-32 -54t-51 -35.5t-68 -13z" glyph-name="abreve" horiz-adv-x="671" unicode="ă"/><glyph d="M585 -227q-65 0 -104.5 31.5t-39.5 77.5q0 32 18 62t69 62l-43 124h-283l-45 -130h-142l260 730h137l260 -730l-66.5 -44.5t-39.5 -29.5t-19 -20.5t-5 -18.5q0 -17 13 -24t30 -7q20 0 33 9t27 20l79 -54q-26 -24 -64.5 -41t-74.5 -17zM248 260h192l-96 277z" glyph-name="Aogonek" horiz-adv-x="687" unicode="Ą"/><glyph d="M308 -12q-53 0 -104.5 20.5t-92.5 59.5t-66 95.5t-25 128.5q0 73 24.5 129.5t65 95.5t93 59.5t107.5 20.5q58 0 107 -22t81 -60v70h135v-585h1q-57 -35 -81 -64t-24 -47q0 -17 10.5 -25t27.5 -8q15 0 27.5 9t22.5 21l79 -55q-26 -27 -58 -43.5t-76 -16.5 q-58 0 -94.5 30.5t-37.5 77.5q-1 38 17.5 67.5t50.5 56.5v73q-32 -41 -82 -64.5t-108 -23.5zM330 112q38 0 70 14t55 39t36.5 58t13.5 71q0 37 -13.5 70t-36.5 57.5t-55 38.5t-70 14q-37 0 -69.5 -14t-56.5 -38t-37.5 -57t-13.5 -71t13.5 -71.5t37.5 -58t56.5 -38.5 t69.5 -14z" glyph-name="aogonek" horiz-adv-x="671" unicode="ą"/><glyph d="M464 950h126l-150 -170h-91zM397 -10q-84 0 -153.5 29.5t-118.5 80t-76 119t-27 146.5q0 82 29 150.5t79.5 118.5t119 78t147.5 28q51 0 98.5 -13t89 -36.5t75 -57t57.5 -74.5l-119 -76q-32 57 -81 90t-120 33q-52 0 -96 -18.5t-76 -51t-50 -76.5t-18 -95q0 -50 18 -93.5 t49.5 -76t75 -51t94.5 -18.5q76 0 128.5 38.5t81.5 98.5l124 -65q-24 -46 -58.5 -84.5t-77 -66t-92 -42.5t-103.5 -15z" glyph-name="Cacute" horiz-adv-x="738" unicode="Ć"/><glyph d="M391 815h126l-150 -170h-91zM324 -12q-64 0 -119.5 24t-96.5 65t-64.5 96.5t-23.5 118.5q0 64 23.5 119.5t64.5 97t96.5 65t119.5 23.5q49 0 92.5 -13.5t79.5 -37.5t63 -57t44 -73l-121 -51q-20 48 -61.5 76.5t-95.5 28.5q-37 0 -68.5 -14t-55 -38t-36.5 -56.5t-13 -69.5 q0 -36 13 -68.5t36.5 -56.5t55.5 -38t69 -14q57 0 97.5 30.5t60.5 78.5l121 -52q-17 -40 -44 -74t-62.5 -58.5t-79.5 -38t-95 -13.5z" glyph-name="cacute" horiz-adv-x="617" unicode="ć"/><glyph d="M397 -10q-84 0 -153.5 29.5t-118.5 80t-76 119t-27 146.5q0 82 29 150.5t79.5 118.5t119 78t147.5 28q51 0 98.5 -13t89 -36.5t75 -57t57.5 -74.5l-119 -76q-32 57 -81 90t-120 33q-52 0 -96 -18.5t-76 -51t-50 -76.5t-18 -95q0 -50 18 -93.5t49.5 -76t75 -51t94.5 -18.5 q76 0 128.5 38.5t81.5 98.5l124 -65q-24 -46 -58.5 -84.5t-77 -66t-92 -42.5t-103.5 -15zM359 950h84l119 -170h-102l-59 89l-59 -89h-102z" glyph-name="Ccircumflex" horiz-adv-x="738" unicode="Ĉ"/><glyph d="M324 -12q-64 0 -119.5 24t-96.5 65t-64.5 96.5t-23.5 118.5q0 64 23.5 119.5t64.5 97t96.5 65t119.5 23.5q49 0 92.5 -13.5t79.5 -37.5t63 -57t44 -73l-121 -51q-20 48 -61.5 76.5t-95.5 28.5q-37 0 -68.5 -14t-55 -38t-36.5 -56.5t-13 -69.5q0 -36 13 -68.5t36.5 -56.5 t55.5 -38t69 -14q57 0 97.5 30.5t60.5 78.5l121 -52q-17 -40 -44 -74t-62.5 -58.5t-79.5 -38t-95 -13.5zM283 809h84l119 -170h-102l-59 89l-59 -89h-102z" glyph-name="ccircumflex" horiz-adv-x="617" unicode="ĉ"/><glyph d="M397 -10q-84 0 -153.5 29.5t-118.5 80t-76 119t-27 146.5q0 82 29 150.5t79.5 118.5t119 78t147.5 28q51 0 98.5 -13t89 -36.5t75 -57t57.5 -74.5l-119 -76q-32 57 -81 90t-120 33q-52 0 -96 -18.5t-76 -51t-50 -76.5t-18 -95q0 -50 18 -93.5t49.5 -76t75 -51t94.5 -18.5 q76 0 128.5 38.5t81.5 98.5l124 -65q-24 -46 -58.5 -84.5t-77 -66t-92 -42.5t-103.5 -15zM324 849q0 35 21.5 57t57.5 22q37 0 58 -22t21 -57t-21 -56.5t-58 -21.5q-38 0 -58.5 21.5t-20.5 56.5z" glyph-name="Cdotaccent" horiz-adv-x="738" unicode="Ċ"/><glyph d="M324 -12q-64 0 -119.5 24t-96.5 65t-64.5 96.5t-23.5 118.5q0 64 23.5 119.5t64.5 97t96.5 65t119.5 23.5q49 0 92.5 -13.5t79.5 -37.5t63 -57t44 -73l-121 -51q-20 48 -61.5 76.5t-95.5 28.5q-37 0 -68.5 -14t-55 -38t-36.5 -56.5t-13 -69.5q0 -36 13 -68.5t36.5 -56.5 t55.5 -38t69 -14q57 0 97.5 30.5t60.5 78.5l121 -52q-17 -40 -44 -74t-62.5 -58.5t-79.5 -38t-95 -13.5zM244 713q0 35 21.5 57t57.5 22q37 0 58 -22t21 -57t-21 -56.5t-58 -21.5q-38 0 -58.5 21.5t-20.5 56.5z" glyph-name="cdotaccent" horiz-adv-x="617" unicode="ċ"/><glyph d="M397 -10q-84 0 -153.5 29.5t-118.5 80t-76 119t-27 146.5q0 82 29 150.5t79.5 118.5t119 78t147.5 28q51 0 98.5 -13t89 -36.5t75 -57t57.5 -74.5l-119 -76q-32 57 -81 90t-120 33q-52 0 -96 -18.5t-76 -51t-50 -76.5t-18 -95q0 -50 18 -93.5t49.5 -76t75 -51t94.5 -18.5 q76 0 128.5 38.5t81.5 98.5l124 -65q-24 -46 -58.5 -84.5t-77 -66t-92 -42.5t-103.5 -15zM237 950h102l59 -89l59 89h102l-119 -170h-84z" glyph-name="Ccaron" horiz-adv-x="738" unicode="Č"/><glyph d="M324 -12q-64 0 -119.5 24t-96.5 65t-64.5 96.5t-23.5 118.5q0 64 23.5 119.5t64.5 97t96.5 65t119.5 23.5q49 0 92.5 -13.5t79.5 -37.5t63 -57t44 -73l-121 -51q-20 48 -61.5 76.5t-95.5 28.5q-37 0 -68.5 -14t-55 -38t-36.5 -56.5t-13 -69.5q0 -36 13 -68.5t36.5 -56.5 t55.5 -38t69 -14q57 0 97.5 30.5t60.5 78.5l121 -52q-17 -40 -44 -74t-62.5 -58.5t-79.5 -38t-95 -13.5zM172 815h102l59 -89l59 89h102l-119 -170h-84z" glyph-name="ccaron" horiz-adv-x="617" unicode="č"/><glyph d="M42 730h199q92 0 164 -28t121.5 -77t75 -115.5t25.5 -144.5t-28 -145t-78.5 -115.5t-120.5 -76.5t-153 -28h-205v730zM178 604v-478h53q60 0 108 18t81.5 50.5t52 76t18.5 94.5q0 53 -16 96.5t-49 75.5t-83 49.5t-118 17.5h-47zM105 950h102l59 -89l59 89h102l-119 -170 h-84z" glyph-name="Dcaron" horiz-adv-x="648" unicode="Ď"/><glyph d="M308 -12q-53 0 -104.5 20.5t-92.5 59.5t-66 95.5t-25 128.5q0 73 24.5 129.5t65 95.5t93 59.5t107.5 20.5q57 0 106 -21.5t81 -59.5v224h136v-740h-135v76q-32 -41 -82 -64.5t-108 -23.5zM330 112q38 0 70 14t55 39t36.5 58t13.5 71q0 37 -13.5 70t-36.5 57.5t-55 38.5 t-70 14q-37 0 -69.5 -14t-56.5 -38t-37.5 -57t-13.5 -71t13.5 -71.5t37.5 -58t56.5 -38.5t69.5 -14zM679 732h109l-51 -171h-83z" glyph-name="dcaron" horiz-adv-x="742" unicode="ď"/><glyph d="M20 424h69v306h199q92 0 164 -28t121.5 -77t75 -115.5t25.5 -144.5t-28 -145t-78.5 -115.5t-120.5 -76.5t-153 -28h-205v309h-69v115zM225 604v-180h165v-115h-165v-183h53q60 0 108 18t81.5 50.5t52 76t18.5 94.5q0 53 -16 96.5t-49 75.5t-83 49.5t-118 17.5h-47z" glyph-name="Dcroat" horiz-adv-x="695" unicode="Đ"/><glyph d="M430 682h67v58h136v-58h61v-74h-61v-608h-135v76q-32 -41 -82 -64.5t-108 -23.5q-53 0 -104.5 20.5t-92.5 59.5t-66 95.5t-25 128.5q0 73 24.5 129.5t65 95.5t93 59.5t107.5 20.5q57 0 106 -21.5t81 -59.5v92h-67v74zM330 112q38 0 70 14t55 39t36.5 58t13.5 71 q0 37 -13.5 70t-36.5 57.5t-55 38.5t-70 14q-37 0 -69.5 -14t-56.5 -38t-37.5 -57t-13.5 -71t13.5 -71.5t37.5 -58t56.5 -38.5t69.5 -14z" glyph-name="dcroat" horiz-adv-x="679" unicode="đ"/><glyph d="M42 730h433v-130h-297v-168h297v-130h-297v-172h297v-130h-433v730zM127 866h264v-86h-264v86z" glyph-name="Emacron" horiz-adv-x="509" unicode="Ē"/><glyph d="M329 -12q-69 0 -126 23.5t-97.5 64.5t-63 96.5t-22.5 118.5q0 64 23.5 120t64.5 97t96.5 65t119.5 24q65 0 120.5 -22.5t95.5 -63t62.5 -95.5t22.5 -120v-51h-476q14 -62 61 -100t119 -38q57 0 99 28t63 75l111 -64q-38 -71 -106.5 -114.5t-166.5 -43.5zM324 478 q-61 0 -105.5 -33t-62.5 -87h332q-15 59 -58 89.5t-106 30.5zM199 729h264v-86h-264v86z" glyph-name="emacron" unicode="ē"/><glyph d="M42 730h433v-130h-297v-168h297v-130h-297v-172h297v-130h-433v730zM262 775q-41 0 -71.5 13t-50.5 35.5t-29.5 54t-9.5 67.5h85q0 -48 19.5 -71t56.5 -25q36 2 56 25t20 71h86q0 -36 -11 -67.5t-32 -54t-51 -35.5t-68 -13z" glyph-name="Ebreve" horiz-adv-x="509" unicode="Ĕ"/><glyph d="M329 -12q-69 0 -126 23.5t-97.5 64.5t-63 96.5t-22.5 118.5q0 64 23.5 120t64.5 97t96.5 65t119.5 24q65 0 120.5 -22.5t95.5 -63t62.5 -95.5t22.5 -120v-51h-476q14 -62 61 -100t119 -38q57 0 99 28t63 75l111 -64q-38 -71 -106.5 -114.5t-166.5 -43.5zM329 640 q-41 0 -71.5 13t-50.5 35.5t-29.5 54t-9.5 67.5h85q0 -48 19.5 -71t56.5 -25q36 2 56 25t20 71h86q0 -36 -11 -67.5t-32 -54t-51 -35.5t-68 -13zM324 478q-61 0 -105.5 -33t-62.5 -87h332q-15 59 -58 89.5t-106 30.5z" glyph-name="ebreve" unicode="ĕ"/><glyph d="M42 730h433v-130h-297v-168h297v-130h-297v-172h297v-130h-433v730zM197 849q0 35 21.5 57t57.5 22q37 0 58 -22t21 -57t-21 -56.5t-58 -21.5q-38 0 -58.5 21.5t-20.5 56.5z" glyph-name="Edotaccent" horiz-adv-x="509" unicode="Ė"/><glyph d="M329 -12q-69 0 -126 23.5t-97.5 64.5t-63 96.5t-22.5 118.5q0 64 23.5 120t64.5 97t96.5 65t119.5 24q65 0 120.5 -22.5t95.5 -63t62.5 -95.5t22.5 -120v-51h-476q14 -62 61 -100t119 -38q57 0 99 28t63 75l111 -64q-38 -71 -106.5 -114.5t-166.5 -43.5zM324 478 q-61 0 -105.5 -33t-62.5 -87h332q-15 59 -58 89.5t-106 30.5zM247 708q0 35 21.5 57t57.5 22q37 0 58 -22t21 -57t-21 -56.5t-58 -21.5q-38 0 -58.5 21.5t-20.5 56.5z" glyph-name="edotaccent" unicode="ė"/><glyph d="M42 730h433v-130h-297v-168h297v-130h-297v-172h297v-130h1l-66.5 -44.5t-39.5 -29.5t-19 -20.5t-5 -18.5q0 -17 13 -24t30 -7q20 0 33 9t27 20l79 -54q-26 -24 -64.5 -41t-74.5 -17q-65 0 -104.5 31.5t-39.5 77.5q0 30 16 58.5t61 59.5h-280v730z" glyph-name="Eogonek" horiz-adv-x="509" unicode="Ę"/><glyph d="M343 -224q-65 0 -104.5 31.5t-39.5 77.5q0 28 13.5 54.5t50.5 54.5q-55 11 -100 37.5t-76.5 66t-49 89t-17.5 104.5q0 64 23.5 120t64.5 97t96.5 65t119.5 24q65 0 120.5 -22.5t95.5 -63t62.5 -95.5t22.5 -120v-51h-476q14 -62 61 -100t119 -38q57 0 99 28t63 75l111 -64 q-28 -51 -71 -88.5t-102 -55.5l-65.5 -44t-39.5 -29t-19 -20.5t-5 -18.5q0 -17 13 -24t30 -7q20 0 33 9t27 20l79 -54q-26 -24 -64.5 -41t-74.5 -17zM324 478q-61 0 -105.5 -33t-62.5 -87h332q-15 59 -58 89.5t-106 30.5z" glyph-name="eogonek" unicode="ę"/><glyph d="M42 730h433v-130h-297v-168h297v-130h-297v-172h297v-130h-433v730zM96 950h102l59 -89l59 89h102l-119 -170h-84z" glyph-name="Ecaron" horiz-adv-x="509" unicode="Ě"/><glyph d="M329 -12q-69 0 -126 23.5t-97.5 64.5t-63 96.5t-22.5 118.5q0 64 23.5 120t64.5 97t96.5 65t119.5 24q65 0 120.5 -22.5t95.5 -63t62.5 -95.5t22.5 -120v-51h-476q14 -62 61 -100t119 -38q57 0 99 28t63 75l111 -64q-38 -71 -106.5 -114.5t-166.5 -43.5zM324 478 q-61 0 -105.5 -33t-62.5 -87h332q-15 59 -58 89.5t-106 30.5zM166 810h102l59 -89l59 89h102l-119 -170h-84z" glyph-name="ecaron" unicode="ě"/><glyph d="M401 -10q-85 0 -155 30t-120 81.5t-77 119.5t-27 144q0 78 28 146.5t77.5 119t118 80t149.5 29.5q57 0 107 -13.5t92.5 -38.5t76 -59.5t56.5 -75.5l-120 -72q-34 63 -86.5 95t-124.5 32q-51 0 -94.5 -19.5t-76 -52.5t-50.5 -77t-18 -94q0 -51 18 -95t50.5 -77t77.5 -52 t98 -19q82 0 136.5 43t74.5 115h-233v130h379v-54q0 -74 -25 -140.5t-71.5 -116.5t-112.5 -79.5t-148 -29.5zM353 950h84l119 -170h-102l-59 89l-59 -89h-102z" glyph-name="Gcircumflex" horiz-adv-x="780" unicode="Ĝ"/><glyph d="M499 78q-32 -42 -82 -66t-109 -24q-53 0 -104.5 20.5t-92.5 59.5t-66 95.5t-25 128.5q0 73 24.5 129.5t65 95.5t93 59.5t107.5 20.5q58 0 107 -23.5t81 -63.5v75h135v-570q0 -62 -19.5 -116t-57.5 -94.5t-94.5 -64t-130.5 -23.5q-57 0 -103.5 12.5t-83.5 35t-65 53 t-48 67.5l120 73q32 -59 72 -88t110 -29q38 0 69 14t52.5 37t33 54t11.5 64v68zM330 112q38 0 70 14t55 39t36.5 58t13.5 71q0 37 -13.5 70t-36.5 57.5t-55 38.5t-70 14q-37 0 -69.5 -14t-56.5 -38t-37.5 -57t-13.5 -71t13.5 -71.5t37.5 -58t56.5 -38.5t69.5 -14zM302 815 h84l119 -170h-102l-59 89l-59 -89h-102z" glyph-name="gcircumflex" horiz-adv-x="673" unicode="ĝ"/><glyph d="M401 -10q-85 0 -155 30t-120 81.5t-77 119.5t-27 144q0 78 28 146.5t77.5 119t118 80t149.5 29.5q57 0 107 -13.5t92.5 -38.5t76 -59.5t56.5 -75.5l-120 -72q-34 63 -86.5 95t-124.5 32q-51 0 -94.5 -19.5t-76 -52.5t-50.5 -77t-18 -94q0 -51 18 -95t50.5 -77t77.5 -52 t98 -19q82 0 136.5 43t74.5 115h-233v130h379v-54q0 -74 -25 -140.5t-71.5 -116.5t-112.5 -79.5t-148 -29.5zM394 775q-41 0 -71.5 13t-50.5 35.5t-29.5 54t-9.5 67.5h85q0 -48 19.5 -71t56.5 -25q36 2 56 25t20 71h86q0 -36 -11 -67.5t-32 -54t-51 -35.5t-68 -13z" glyph-name="Gbreve" horiz-adv-x="780" unicode="Ğ"/><glyph d="M499 78q-32 -42 -82 -66t-109 -24q-53 0 -104.5 20.5t-92.5 59.5t-66 95.5t-25 128.5q0 73 24.5 129.5t65 95.5t93 59.5t107.5 20.5q58 0 107 -23.5t81 -63.5v75h135v-570q0 -62 -19.5 -116t-57.5 -94.5t-94.5 -64t-130.5 -23.5q-57 0 -103.5 12.5t-83.5 35t-65 53 t-48 67.5l120 73q32 -59 72 -88t110 -29q38 0 69 14t52.5 37t33 54t11.5 64v68zM330 112q38 0 70 14t55 39t36.5 58t13.5 71q0 37 -13.5 70t-36.5 57.5t-55 38.5t-70 14q-37 0 -69.5 -14t-56.5 -38t-37.5 -57t-13.5 -71t13.5 -71.5t37.5 -58t56.5 -38.5t69.5 -14zM340 638 q-41 0 -71.5 13t-50.5 35.5t-29.5 54t-9.5 67.5h85q0 -48 19.5 -71t56.5 -25q36 2 56 25t20 71h86q0 -36 -11 -67.5t-32 -54t-51 -35.5t-68 -13z" glyph-name="gbreve" horiz-adv-x="673" unicode="ğ"/><glyph d="M401 -10q-85 0 -155 30t-120 81.5t-77 119.5t-27 144q0 78 28 146.5t77.5 119t118 80t149.5 29.5q57 0 107 -13.5t92.5 -38.5t76 -59.5t56.5 -75.5l-120 -72q-34 63 -86.5 95t-124.5 32q-51 0 -94.5 -19.5t-76 -52.5t-50.5 -77t-18 -94q0 -51 18 -95t50.5 -77t77.5 -52 t98 -19q82 0 136.5 43t74.5 115h-233v130h379v-54q0 -74 -25 -140.5t-71.5 -116.5t-112.5 -79.5t-148 -29.5zM319 849q0 35 21.5 57t57.5 22q37 0 58 -22t21 -57t-21 -56.5t-58 -21.5q-38 0 -58.5 21.5t-20.5 56.5z" glyph-name="Gdotaccent" horiz-adv-x="780" unicode="Ġ"/><glyph d="M499 78q-32 -42 -82 -66t-109 -24q-53 0 -104.5 20.5t-92.5 59.5t-66 95.5t-25 128.5q0 73 24.5 129.5t65 95.5t93 59.5t107.5 20.5q58 0 107 -23.5t81 -63.5v75h135v-570q0 -62 -19.5 -116t-57.5 -94.5t-94.5 -64t-130.5 -23.5q-57 0 -103.5 12.5t-83.5 35t-65 53 t-48 67.5l120 73q32 -59 72 -88t110 -29q38 0 69 14t52.5 37t33 54t11.5 64v68zM330 112q38 0 70 14t55 39t36.5 58t13.5 71q0 37 -13.5 70t-36.5 57.5t-55 38.5t-70 14q-37 0 -69.5 -14t-56.5 -38t-37.5 -57t-13.5 -71t13.5 -71.5t37.5 -58t56.5 -38.5t69.5 -14zM249 713 q0 35 21.5 57t57.5 22q37 0 58 -22t21 -57t-21 -56.5t-58 -21.5q-38 0 -58.5 21.5t-20.5 56.5z" glyph-name="gdotaccent" horiz-adv-x="673" unicode="ġ"/><glyph d="M401 -10q-85 0 -155 30t-120 81.5t-77 119.5t-27 144q0 78 28 146.5t77.5 119t118 80t149.5 29.5q57 0 107 -13.5t92.5 -38.5t76 -59.5t56.5 -75.5l-120 -72q-34 63 -86.5 95t-124.5 32q-51 0 -94.5 -19.5t-76 -52.5t-50.5 -77t-18 -94q0 -51 18 -95t50.5 -77t77.5 -52 t98 -19q82 0 136.5 43t74.5 115h-233v130h379v-54q0 -74 -25 -140.5t-71.5 -116.5t-112.5 -79.5t-148 -29.5zM314 -250l34 204h119l-70 -204h-83z" glyph-name="Gcommaaccent" horiz-adv-x="780" unicode="Ģ"/><glyph d="M499 78q-32 -42 -82 -66t-109 -24q-53 0 -104.5 20.5t-92.5 59.5t-66 95.5t-25 128.5q0 73 24.5 129.5t65 95.5t93 59.5t107.5 20.5q58 0 107 -23.5t81 -63.5v75h135v-570q0 -62 -19.5 -116t-57.5 -94.5t-94.5 -64t-130.5 -23.5q-57 0 -103.5 12.5t-83.5 35t-65 53 t-48 67.5l120 73q32 -59 72 -88t110 -29q38 0 69 14t52.5 37t33 54t11.5 64v68zM330 112q38 0 70 14t55 39t36.5 58t13.5 71q0 37 -13.5 70t-36.5 57.5t-55 38.5t-70 14q-37 0 -69.5 -14t-56.5 -38t-37.5 -57t-13.5 -71t13.5 -71.5t37.5 -58t56.5 -38.5t69.5 -14zM279 645 l34 204h119l-70 -204h-83z" glyph-name="gcommaaccent" horiz-adv-x="673" unicode="ģ"/><glyph d="M458 301h-280v-301h-136v730h136v-299h280v299h136v-730h-136v301zM275 950h84l119 -170h-102l-59 89l-59 -89h-102z" glyph-name="Hcircumflex" horiz-adv-x="636" unicode="Ĥ"/><glyph d="M39 740h135v-225q30 38 74.5 60t100.5 22q109 0 170.5 -66t61.5 -184v-347h-138v332q0 69 -33 108.5t-99 39.5q-28 0 -53 -10.5t-43.5 -30.5t-29 -50t-10.5 -68v-321h-136v740zM67 946h84l119 -170h-102l-59 89l-59 -89h-102z" glyph-name="hcircumflex" horiz-adv-x="619" unicode="ĥ"/><glyph d="M14 632h57v98h136v-98h280v98h136v-98h57v-103h-57v-529h-136v301h-280v-301h-136v529h-57v103zM207 431h280v98h-280v-98z" glyph-name="Hbar" horiz-adv-x="695" unicode="Ħ"/><glyph d="M-11 678h58v62h135v-62h63v-73h-63v-90q30 38 74.5 60t100.5 22q109 0 170.5 -66t61.5 -184v-347h-138v332q0 69 -33 108.5t-99 39.5q-28 0 -53 -10.5t-43.5 -30.5t-29 -50t-10.5 -68v-321h-136v605h-58v73z" glyph-name="hbar" horiz-adv-x="627" unicode="ħ"/><glyph d="M47 730h136v-730h-136v730zM-47 780q0 61 27.5 98t76.5 37q25 0 43 -7.5t34 -16.5q14 -10 26.5 -17.5t25.5 -7.5q28 0 28 45h78q0 -62 -26 -98.5t-79 -36.5q-29 0 -49.5 10.5t-37.5 20.5q-11 7 -21.5 12t-21.5 5q-26 0 -26 -44h-78z" glyph-name="Itilde" horiz-adv-x="230" unicode="Ĩ"/><glyph d="M39 585h136v-585h-136v585zM-63 635q0 61 27.5 98t76.5 37q25 0 43 -7.5t34 -16.5q14 -10 26.5 -17.5t25.5 -7.5q28 0 28 45h78q0 -62 -26 -98.5t-79 -36.5q-29 0 -49.5 10.5t-37.5 20.5q-11 7 -21.5 12t-21.5 5q-26 0 -26 -44h-78z" glyph-name="itilde" horiz-adv-x="214" unicode="ĩ"/><glyph d="M47 730h136v-730h-136v730zM-17 866h264v-86h-264v86z" glyph-name="Imacron" horiz-adv-x="230" unicode="Ī"/><glyph d="M39 585h136v-585h-136v585zM-23 721h264v-86h-264v86z" glyph-name="imacron" horiz-adv-x="214" unicode="ī"/><glyph d="M47 730h136v-730h-136v730zM113 775q-41 0 -71.5 13t-50.5 35.5t-29.5 54t-9.5 67.5h85q0 -48 19.5 -71t56.5 -25q36 2 56 25t20 71h86q0 -36 -11 -67.5t-32 -54t-51 -35.5t-68 -13z" glyph-name="Ibreve" horiz-adv-x="230" unicode="Ĭ"/><glyph d="M39 585h136v-585h-136v585zM111 629q-41 0 -71.5 13t-50.5 35.5t-29.5 54t-9.5 67.5h85q0 -48 19.5 -71t56.5 -25q36 2 56 25t20 71h86q0 -36 -11 -67.5t-32 -54t-51 -35.5t-68 -13z" glyph-name="ibreve" horiz-adv-x="214" unicode="ĭ"/><glyph d="M107 -229q-58 0 -94.5 30.5t-37.5 77.5q-1 39 18 69.5t54 57.5v724h136v-730h-4q-57 -35 -81 -64t-24 -47q0 -17 10.5 -25t27.5 -8q15 0 27.5 9t22.5 21l79 -55q-26 -27 -58 -43.5t-76 -16.5z" glyph-name="Iogonek" horiz-adv-x="230" unicode="Į"/><glyph d="M48 -229q-58 0 -94.5 30.5t-37.5 77.5q-1 52 32 89t90 74l1 -1v544h136v-585h-55q-57 -35 -81 -64t-24 -47q0 -17 10.5 -25t27.5 -8q15 0 27.5 9t22.5 21l79 -55q-26 -27 -58 -43.5t-76 -16.5zM22 728q0 38 23 61.5t62 23.5q40 0 62.5 -23.5t22.5 -61.5t-22.5 -61 t-62.5 -23q-41 0 -63 23t-22 61z" glyph-name="iogonek" horiz-adv-x="214" unicode="į"/><glyph d="M47 730h136v-730h-136v730zM34 849q0 35 21.5 57t57.5 22q37 0 58 -22t21 -57t-21 -56.5t-58 -21.5q-38 0 -58.5 21.5t-20.5 56.5z" glyph-name="Idotaccent" horiz-adv-x="230" unicode="İ"/><glyph d="M39 585h136v-585h-136v585z" glyph-name="dotlessi" horiz-adv-x="214" unicode="ı"/><glyph d="M237 133h8q23 0 37 2.5t22 10.5t11 22t3 38v524h136v-520q0 -58 -8 -98.5t-29 -65t-59 -35.5t-98 -11h-23v133zM41 730h136v-730h-136v730z" glyph-name="IJ" horiz-adv-x="495" unicode="Ĳ"/><glyph d="M39 -112h99q39 0 63 4t37 16.5t17 36t4 61.5v579h136v-580q0 -69 -12 -116t-39.5 -75.5t-73 -40.5t-111.5 -12h-120v127zM39 585h136v-585h-136v585zM39 822h136v-163h-136v163zM259 822h136v-163h-136v163z" glyph-name="ij" horiz-adv-x="434" unicode="ĳ"/><glyph d="M247 -10q-88 0 -149 44.5t-79 120.5l134 44q8 -35 32.5 -58.5t59.5 -23.5q42 0 60.5 27.5t18.5 65.5v520h136v-508q0 -110 -55.5 -171t-157.5 -61zM345 950h84l119 -170h-102l-59 89l-59 -89h-102z" glyph-name="Jcircumflex" horiz-adv-x="501" unicode="Ĵ"/><glyph d="M-82 -142q39 0 63 4t37 16.5t17 35.5t4 62v609h137v-610q0 -70 -12 -116.5t-40 -75t-73.5 -40.5t-113.5 -12h-19v127zM66 805h84l119 -170h-102l-59 89l-59 -89h-102z" glyph-name="jcircumflex" horiz-adv-x="214" unicode="ĵ"/><glyph d="M257 351l-79 -98v-253h-136v730h136v-299l241 299h165l-231 -284l252 -446h-155zM223 -250l34 204h119l-70 -204h-83z" glyph-name="Kcommaaccent" horiz-adv-x="618" unicode="Ķ"/><glyph d="M39 740h135v-437l249 282h162l-226 -253l234 -332h-151l-175 252l-93 -103v-149h-135v740zM202 -240l34 204h119l-70 -204h-83z" glyph-name="kcommaaccent" horiz-adv-x="601" unicode="ķ"/><glyph d="M267 252l-93 -103v-149h-135v585h135v-282l249 282h162l-225 -253l232 -332h-150z" glyph-name="kgreenlandic" horiz-adv-x="601" unicode="ĸ"/><glyph d="M42 730h136v-600h267v-130h-403v730zM177 950h126l-150 -170h-91z" glyph-name="Lacute" horiz-adv-x="481" unicode="Ĺ"/><glyph d="M177 965h126l-150 -170h-91zM39 740h136v-740h-136v740z" glyph-name="lacute" horiz-adv-x="214" unicode="ĺ"/><glyph d="M42 730h136v-600h267v-130h-403v730zM150 -250l34 204h119l-70 -204h-83z" glyph-name="Lcommaaccent" horiz-adv-x="481" unicode="Ļ"/><glyph d="M13 -250l34 204h119l-70 -204h-83zM39 740h136v-740h-136v740z" glyph-name="lcommaaccent" horiz-adv-x="214" unicode="ļ"/><glyph d="M42 730h136v-600h267v-130h-403v730zM258 730h109l-51 -171h-83z" glyph-name="Lcaron" horiz-adv-x="481" unicode="Ľ"/><glyph d="M37 740h136v-740h-136v740zM220 740h109l-51 -171h-83z" glyph-name="lcaron" horiz-adv-x="282" unicode="ľ"/><glyph d="M42 730h136v-600h267v-130h-403v730zM298 360q0 35 21.5 57t57.5 22q37 0 58 -22t21 -57t-21 -56.5t-58 -21.5q-38 0 -58.5 21.5t-20.5 56.5z" glyph-name="Ldot" horiz-adv-x="481" unicode="Ŀ"/><glyph d="M39 740h136v-740h-136v740zM217 314q0 35 21.5 57t57.5 22q37 0 58 -22t21 -57t-21 -56.5t-58 -21.5q-38 0 -58.5 21.5t-20.5 56.5z" glyph-name="ldot" horiz-adv-x="381" unicode="ŀ"/><glyph d="M17 381l69 22v327h136v-284l155 50v-97l-155 -49v-220h267v-130h-403v307l-69 -22v96z" glyph-name="Lslash" horiz-adv-x="525" unicode="Ł"/><glyph d="M29 467l86 28v245h135v-201l90 30v-98l-90 -30v-441h-135v396l-86 -28v99z" glyph-name="lslash" horiz-adv-x="369" unicode="ł"/><glyph d="M42 730h154l316 -497v497h136v-730h-145l-325 513v-513h-136v730zM422 950h126l-150 -170h-91z" glyph-name="Nacute" horiz-adv-x="690" unicode="Ń"/><glyph d="M39 585h134v-72q29 38 73.5 61t101.5 23q109 0 170.5 -66t61.5 -184v-347h-137v333q0 68 -33 107.5t-99 39.5q-58 0 -97.5 -41t-39.5 -118v-321h-135v585zM373 810h126l-150 -170h-91z" glyph-name="nacute" horiz-adv-x="618" unicode="ń"/><glyph d="M42 730h154l316 -497v497h136v-730h-145l-325 513v-513h-136v730zM249 -250l34 204h119l-70 -204h-83z" glyph-name="Ncommaaccent" horiz-adv-x="690" unicode="Ņ"/><glyph d="M39 585h134v-72q29 38 73.5 61t101.5 23q109 0 170.5 -66t61.5 -184v-347h-137v333q0 68 -33 107.5t-99 39.5q-58 0 -97.5 -41t-39.5 -118v-321h-135v585zM220 -233l34 204h119l-70 -204h-83z" glyph-name="ncommaaccent" horiz-adv-x="618" unicode="ņ"/><glyph d="M42 730h154l316 -497v497h136v-730h-145l-325 513v-513h-136v730zM186 950h102l59 -89l59 89h102l-119 -170h-84z" glyph-name="Ncaron" horiz-adv-x="690" unicode="Ň"/><glyph d="M39 585h134v-72q29 38 73.5 61t101.5 23q109 0 170.5 -66t61.5 -184v-347h-137v333q0 68 -33 107.5t-99 39.5q-58 0 -97.5 -41t-39.5 -118v-321h-135v585zM158 810h102l59 -89l59 89h102l-119 -170h-84z" glyph-name="ncaron" horiz-adv-x="618" unicode="ň"/><glyph d="M436 -75h6q22 0 35.5 3t21 10.5t10.5 21t3 34.5v33l-334 494v-521h-136v730h154l316 -466v466h136v-731q0 -59 -10.5 -98.5t-33 -63.5t-59 -34.5t-89.5 -10.5h-20v133z" glyph-name="Eng" horiz-adv-x="690" unicode="Ŋ"/><glyph d="M322 -142q39 0 63 4t37 16.5t17 35.5t4 62v357q0 68 -33 107.5t-99 39.5q-58 0 -97.5 -41t-39.5 -118v-321h-135v585h134v-72q29 38 73.5 61t101.5 23q109 0 170.5 -66t61.5 -184v-372q0 -70 -12 -116.5t-39.5 -75t-73 -40.5t-113.5 -12h-20v127z" glyph-name="eng" horiz-adv-x="618" unicode="ŋ"/><glyph d="M258 866h264v-86h-264v86zM395 -10q-78 0 -146 29.5t-118.5 80t-79.5 119t-29 146.5t29 146t79.5 119t118.5 80.5t146 29.5t146 -29.5t119 -80.5t80 -119t29 -146t-29 -146.5t-80 -119t-119 -80t-146 -29.5zM395 124q50 0 93.5 19t76 51.5t51 76.5t18.5 94t-18.5 94 t-51 76.5t-76 51.5t-93.5 19t-93.5 -19t-75.5 -51.5t-50.5 -76.5t-18.5 -94t18.5 -94t50.5 -76.5t75.5 -51.5t93.5 -19z" glyph-name="Omacron" horiz-adv-x="790" unicode="Ō"/><glyph d="M193 731h264v-86h-264v86zM323 -12q-63 0 -118.5 23.5t-96.5 65t-64.5 97t-23.5 118.5q0 64 23.5 119.5t64.5 97t96.5 65t118.5 23.5t118 -23.5t96.5 -65t65 -97t23.5 -119.5q0 -63 -23.5 -118.5t-65 -97t-96.5 -65t-118 -23.5zM323 115q36 0 67 14t54 38t36 56.5 t13 68.5q0 37 -13 69.5t-36 56.5t-54 38t-67 14t-67.5 -14t-54 -38t-35.5 -56.5t-13 -69.5q0 -36 13 -68.5t35.5 -56.5t54 -38t67.5 -14z" glyph-name="omacron" unicode="ō"/><glyph d="M395 -10q-78 0 -146 29.5t-118.5 80t-79.5 119t-29 146.5t29 146t79.5 119t118.5 80.5t146 29.5t146 -29.5t119 -80.5t80 -119t29 -146t-29 -146.5t-80 -119t-119 -80t-146 -29.5zM395 124q50 0 93.5 19t76 51.5t51 76.5t18.5 94t-18.5 94t-51 76.5t-76 51.5t-93.5 19 t-93.5 -19t-75.5 -51.5t-50.5 -76.5t-18.5 -94t18.5 -94t50.5 -76.5t75.5 -51.5t93.5 -19zM388 775q-41 0 -71.5 13t-50.5 35.5t-29.5 54t-9.5 67.5h85q0 -48 19.5 -71t56.5 -25q36 2 56 25t20 71h86q0 -36 -11 -67.5t-32 -54t-51 -35.5t-68 -13z" glyph-name="Obreve" horiz-adv-x="790" unicode="Ŏ"/><glyph d="M323 -12q-63 0 -118.5 23.5t-96.5 65t-64.5 97t-23.5 118.5q0 64 23.5 119.5t64.5 97t96.5 65t118.5 23.5t118 -23.5t96.5 -65t65 -97t23.5 -119.5q0 -63 -23.5 -118.5t-65 -97t-96.5 -65t-118 -23.5zM323 115q36 0 67 14t54 38t36 56.5t13 68.5q0 37 -13 69.5t-36 56.5 t-54 38t-67 14t-67.5 -14t-54 -38t-35.5 -56.5t-13 -69.5q0 -36 13 -68.5t35.5 -56.5t54 -38t67.5 -14zM321 642q-41 0 -71.5 13t-50.5 35.5t-29.5 54t-9.5 67.5h85q0 -48 19.5 -71t56.5 -25q36 2 56 25t20 71h86q0 -36 -11 -67.5t-32 -54t-51 -35.5t-68 -13z" glyph-name="obreve" unicode="ŏ"/><glyph d="M370 950h120l-150 -170h-84zM536 950h120l-150 -170h-84zM395 -10q-78 0 -146 29.5t-118.5 80t-79.5 119t-29 146.5t29 146t79.5 119t118.5 80.5t146 29.5t146 -29.5t119 -80.5t80 -119t29 -146t-29 -146.5t-80 -119t-119 -80t-146 -29.5zM395 124q50 0 93.5 19t76 51.5 t51 76.5t18.5 94t-18.5 94t-51 76.5t-76 51.5t-93.5 19t-93.5 -19t-75.5 -51.5t-50.5 -76.5t-18.5 -94t18.5 -94t50.5 -76.5t75.5 -51.5t93.5 -19z" glyph-name="Ohungarumlaut" horiz-adv-x="790" unicode="Ő"/><glyph d="M303 808h120l-150 -170h-84zM469 808h120l-150 -170h-84zM323 -12q-63 0 -118.5 23.5t-96.5 65t-64.5 97t-23.5 118.5q0 64 23.5 119.5t64.5 97t96.5 65t118.5 23.5t118 -23.5t96.5 -65t65 -97t23.5 -119.5q0 -63 -23.5 -118.5t-65 -97t-96.5 -65t-118 -23.5zM323 115 q36 0 67 14t54 38t36 56.5t13 68.5q0 37 -13 69.5t-36 56.5t-54 38t-67 14t-67.5 -14t-54 -38t-35.5 -56.5t-13 -69.5q0 -36 13 -68.5t35.5 -56.5t54 -38t67.5 -14z" glyph-name="ohungarumlaut" unicode="ő"/><glyph d="M634 83q-46 -44 -106.5 -68.5t-132.5 -24.5q-78 0 -146 29.5t-118.5 80t-79.5 119t-29 146.5t29 146t79.5 119t118.5 80.5t146 29.5q72 0 132.5 -25t106.5 -69v84h433v-130h-297v-168h297v-130h-297v-172h297v-130h-433v83zM395 124q48 0 90.5 18t75 49t52 73.5 t21.5 90.5v20q-2 48 -21.5 90t-52 73.5t-75 49.5t-90.5 18q-50 0 -93.5 -19t-75.5 -51.5t-50.5 -76.5t-18.5 -94t18.5 -94t50.5 -76.5t75.5 -51.5t93.5 -19z" glyph-name="OE" horiz-adv-x="1101" unicode="Œ"/><glyph d="M323 -12q-63 0 -118.5 23.5t-96.5 65t-64.5 97t-23.5 118.5q0 64 23.5 119.5t64.5 97t96.5 65t118.5 23.5q77 0 138 -32t100 -87q39 54 99 86.5t138 32.5q65 0 120.5 -22.5t96 -63t63 -95.5t22.5 -120v-47h-476q12 -64 60 -103t121 -39q57 0 100.5 29.5t66.5 76.5 l113 -49q-38 -80 -111 -128t-170 -48q-83 0 -145 31.5t-100 85.5q-40 -54 -100.5 -85.5t-135.5 -31.5zM323 115q36 0 67 14t54.5 38t36.5 56.5t13 68.5q0 37 -13 69.5t-36.5 56.5t-54.5 38t-67 14q-37 0 -68 -14t-54 -38t-36 -56.5t-13 -69.5q0 -36 13 -68.5t36 -56.5 t54 -38t68 -14zM800 478q-61 0 -104.5 -32t-63.5 -84h331q-17 57 -60 86.5t-103 29.5z" glyph-name="oe" horiz-adv-x="1121" unicode="œ"/><glyph d="M42 0v730h234q65 0 115.5 -18.5t85.5 -52t53.5 -80t18.5 -103.5q0 -66 -31.5 -123.5t-91.5 -89.5l146 -263h-155l-117 223h-122v-223h-136zM264 348q42 0 70.5 10.5t46 29t25 42.5t7.5 51q0 56 -35.5 89t-113.5 33h-86v-255h86zM311 950h126l-150 -170h-91z" glyph-name="Racute" horiz-adv-x="584" unicode="Ŕ"/><glyph d="M39 585h134v-87q41 87 150 87q32 0 57.5 -7t45.5 -18l-51 -128q-15 10 -33.5 16.5t-47.5 6.5q-59 0 -89.5 -33.5t-30.5 -109.5v-312h-135v585zM293 805h126l-150 -170h-91z" glyph-name="racute" horiz-adv-x="431" unicode="ŕ"/><glyph d="M42 0v730h234q65 0 115.5 -18.5t85.5 -52t53.5 -80t18.5 -103.5q0 -66 -31.5 -123.5t-91.5 -89.5l146 -263h-155l-117 223h-122v-223h-136zM264 348q42 0 70.5 10.5t46 29t25 42.5t7.5 51q0 56 -35.5 89t-113.5 33h-86v-255h86zM207 -281l34 204h119l-70 -204h-83z" glyph-name="Rcommaaccent" horiz-adv-x="584" unicode="Ŗ"/><glyph d="M39 585h134v-87q41 87 150 87q32 0 57.5 -7t45.5 -18l-51 -128q-15 10 -33.5 16.5t-47.5 6.5q-59 0 -89.5 -33.5t-30.5 -109.5v-312h-135v585zM10 -249l34 204h119l-70 -204h-83z" glyph-name="rcommaaccent" horiz-adv-x="431" unicode="ŗ"/><glyph d="M42 0v730h234q65 0 115.5 -18.5t85.5 -52t53.5 -80t18.5 -103.5q0 -66 -31.5 -123.5t-91.5 -89.5l146 -263h-155l-117 223h-122v-223h-136zM264 348q42 0 70.5 10.5t46 29t25 42.5t7.5 51q0 56 -35.5 89t-113.5 33h-86v-255h86zM131 950h102l59 -89l59 89h102l-119 -170 h-84z" glyph-name="Rcaron" horiz-adv-x="584" unicode="Ř"/><glyph d="M39 585h134v-87q41 87 150 87q32 0 57.5 -7t45.5 -18l-51 -128q-15 10 -33.5 16.5t-47.5 6.5q-59 0 -89.5 -33.5t-30.5 -109.5v-312h-135v585zM60 805h102l59 -89l59 89h102l-119 -170h-84z" glyph-name="rcaron" horiz-adv-x="431" unicode="ř"/><glyph d="M337 950h126l-150 -170h-91zM288 -10q-99 0 -167 37.5t-118 93.5l124 98q28 -48 69 -73.5t91 -25.5q54 0 82.5 30t28.5 68q0 23 -13 39t-34 27.5t-48.5 20.5l-56.5 18q-37 12 -74 26t-66.5 37.5t-48 58t-18.5 86.5q0 44 18 82t50.5 66.5t77 44.5t96.5 16q44 0 79.5 -8 t65 -22t54 -33.5t46.5 -42.5l-112 -85q-47 70 -132 70q-50 0 -76 -24t-26 -59q0 -22 12 -37t32.5 -26.5t47.5 -20.5l57 -19q37 -12 74.5 -27.5t68 -40t49.5 -60t19 -88.5q0 -43 -17 -84t-49 -72.5t-79 -51t-107 -19.5z" glyph-name="Sacute" horiz-adv-x="563" unicode="Ś"/><glyph d="M320 811h126l-150 -170h-91zM259 -12q-97 0 -161 36.5t-99 105.5l125 60q21 -41 57 -63t84 -22q50 0 75 21t25 50q0 16 -11.5 26t-30 17.5t-43.5 12.5t-52 11q-38 8 -74.5 19t-65.5 30.5t-47 50t-18 76.5q0 35 16.5 67.5t46.5 57.5t72.5 39.5t94.5 14.5q88 0 146.5 -32.5 t92.5 -88.5l-115 -58q-18 31 -50 49t-74 18q-48 0 -71 -19t-23 -44q0 -29 34 -41.5t100 -26.5q36 -7 72.5 -18.5t66.5 -31t48.5 -50t18.5 -76.5q0 -31 -14 -64.5t-43.5 -62t-74.5 -46.5t-108 -18z" glyph-name="sacute" horiz-adv-x="518" unicode="ś"/><glyph d="M288 -10q-99 0 -167 37.5t-118 93.5l124 98q28 -48 69 -73.5t91 -25.5q54 0 82.5 30t28.5 68q0 23 -13 39t-34 27.5t-48.5 20.5l-56.5 18q-37 12 -74 26t-66.5 37.5t-48 58t-18.5 86.5q0 44 18 82t50.5 66.5t77 44.5t96.5 16q44 0 79.5 -8t65 -22t54 -33.5t46.5 -42.5 l-112 -85q-47 70 -132 70q-50 0 -76 -24t-26 -59q0 -22 12 -37t32.5 -26.5t47.5 -20.5l57 -19q37 -12 74.5 -27.5t68 -40t49.5 -60t19 -88.5q0 -43 -17 -84t-49 -72.5t-79 -51t-107 -19.5zM235 950h84l119 -170h-102l-59 89l-59 -89h-102z" glyph-name="Scircumflex" horiz-adv-x="563" unicode="Ŝ"/><glyph d="M259 -12q-97 0 -161 36.5t-99 105.5l125 60q21 -41 57 -63t84 -22q50 0 75 21t25 50q0 16 -11.5 26t-30 17.5t-43.5 12.5t-52 11q-38 8 -74.5 19t-65.5 30.5t-47 50t-18 76.5q0 35 16.5 67.5t46.5 57.5t72.5 39.5t94.5 14.5q88 0 146.5 -32.5t92.5 -88.5l-115 -58 q-18 31 -50 49t-74 18q-48 0 -71 -19t-23 -44q0 -29 34 -41.5t100 -26.5q36 -7 72.5 -18.5t66.5 -31t48.5 -50t18.5 -76.5q0 -31 -14 -64.5t-43.5 -62t-74.5 -46.5t-108 -18zM217 805h84l119 -170h-102l-59 89l-59 -89h-102z" glyph-name="scircumflex" horiz-adv-x="518" unicode="ŝ"/><glyph d="M273 -240q-40 0 -77.5 16.5t-66.5 42.5l78 47q17 -14 33.5 -24t42.5 -10q22 0 38.5 9t16.5 22q0 27 -58 27h-50v104q-76 10 -130.5 44.5t-96.5 82.5l124 98q28 -48 69 -73.5t91 -25.5q54 0 82.5 30t28.5 68q0 23 -13 39t-34 27.5t-48.5 20.5l-56.5 18q-37 12 -74 26 t-66.5 37.5t-48 58t-18.5 86.5q0 44 18 82t50.5 66.5t77 44.5t96.5 16q44 0 79.5 -8t65 -22t54 -33.5t46.5 -42.5l-112 -85q-47 70 -132 70q-50 0 -76 -24t-26 -59q0 -22 12 -37t32.5 -26.5t47.5 -20.5l57 -19q37 -12 74.5 -27.5t68 -40t49.5 -60t19 -88.5q0 -41 -15 -80 t-44 -70t-71 -51.5t-96 -24.5v-44q56 2 85.5 -20.5t29.5 -59.5q0 -23 -12 -43t-33 -34t-49.5 -22t-61.5 -8z" glyph-name="Scedilla" horiz-adv-x="563" unicode="Ş"/><glyph d="M246 -240q-40 0 -77.5 16.5t-66.5 42.5l78 47q17 -14 33.5 -24t42.5 -10q22 0 38.5 9t16.5 22q0 27 -58 27h-50v102q-74 9 -124 44t-80 94l125 60q21 -41 57 -63t84 -22q50 0 75 21t25 50q0 16 -11.5 26t-30 17.5t-43.5 12.5t-52 11q-38 8 -74.5 19t-65.5 30.5t-47 50 t-18 76.5q0 35 16.5 67.5t46.5 57.5t72.5 39.5t94.5 14.5q88 0 146.5 -32.5t92.5 -88.5l-115 -58q-18 31 -50 49t-74 18q-48 0 -71 -19t-23 -44q0 -29 34 -41.5t100 -26.5q36 -7 72.5 -18.5t66.5 -31t48.5 -50t18.5 -76.5q0 -29 -12.5 -61t-38.5 -59t-66 -46.5t-95 -23.5 v-42q56 2 85.5 -20.5t29.5 -59.5q0 -23 -12 -43t-33 -34t-49.5 -22t-61.5 -8z" glyph-name="scedilla" horiz-adv-x="518" unicode="ş"/><glyph d="M288 -10q-99 0 -167 37.5t-118 93.5l124 98q28 -48 69 -73.5t91 -25.5q54 0 82.5 30t28.5 68q0 23 -13 39t-34 27.5t-48.5 20.5l-56.5 18q-37 12 -74 26t-66.5 37.5t-48 58t-18.5 86.5q0 44 18 82t50.5 66.5t77 44.5t96.5 16q44 0 79.5 -8t65 -22t54 -33.5t46.5 -42.5 l-112 -85q-47 70 -132 70q-50 0 -76 -24t-26 -59q0 -22 12 -37t32.5 -26.5t47.5 -20.5l57 -19q37 -12 74.5 -27.5t68 -40t49.5 -60t19 -88.5q0 -43 -17 -84t-49 -72.5t-79 -51t-107 -19.5zM122 950h102l59 -89l59 89h102l-119 -170h-84z" glyph-name="Scaron" horiz-adv-x="563" unicode="Š"/><glyph d="M259 -12q-97 0 -161 36.5t-99 105.5l125 60q21 -41 57 -63t84 -22q50 0 75 21t25 50q0 16 -11.5 26t-30 17.5t-43.5 12.5t-52 11q-38 8 -74.5 19t-65.5 30.5t-47 50t-18 76.5q0 35 16.5 67.5t46.5 57.5t72.5 39.5t94.5 14.5q88 0 146.5 -32.5t92.5 -88.5l-115 -58 q-18 31 -50 49t-74 18q-48 0 -71 -19t-23 -44q0 -29 34 -41.5t100 -26.5q36 -7 72.5 -18.5t66.5 -31t48.5 -50t18.5 -76.5q0 -31 -14 -64.5t-43.5 -62t-74.5 -46.5t-108 -18zM97 811h102l59 -89l59 89h102l-119 -170h-84z" glyph-name="scaron" horiz-adv-x="518" unicode="š"/><glyph d="M206 -250l34 204h119l-70 -204h-83zM233 600h-195v130h527v-130h-196v-600h-136v600z" glyph-name="Tcommaaccent" horiz-adv-x="598" unicode="Ţ"/><glyph d="M18 585h100v89l136 93v-182h119v-121h-119v-219q0 -38 4 -61.5t16.5 -36t36 -16.5t62.5 -4v-127h-19q-68 0 -113.5 12t-72.5 40.5t-38.5 75t-11.5 116.5v220h-100v121zM145 -243l34 204h119l-70 -204h-83z" glyph-name="tcommaaccent" horiz-adv-x="399" unicode="ţ"/><glyph d="M233 600h-195v130h527v-130h-196v-600h-136v600zM135 950h102l59 -89l59 89h102l-119 -170h-84z" glyph-name="Tcaron" horiz-adv-x="598" unicode="Ť"/><glyph d="M18 585h100v89l136 93v-182h119v-121h-119v-219q0 -38 4 -61.5t16.5 -36t36 -16.5t62.5 -4v-127h-19q-68 0 -113.5 12t-72.5 40.5t-38.5 75t-11.5 116.5v220h-100v121zM322 805h109l-51 -171h-83z" glyph-name="tcaron" horiz-adv-x="399" unicode="ť"/><glyph d="M108 433h125v167h-195v130h527v-130h-196v-167h120v-130h-120v-303h-136v303h-125v130z" glyph-name="Tbar" horiz-adv-x="598" unicode="Ŧ"/><glyph d="M18 585h100v89l136 93v-182h119v-121h-119v-103h119v-111h-119v-5q0 -38 4 -61.5t16.5 -36t36 -16.5t62.5 -4v-127h-19q-68 0 -113.5 12t-72.5 40.5t-38.5 75t-11.5 116.5v6h-100v111h100v103h-100v121z" glyph-name="tbar" horiz-adv-x="399" unicode="ŧ"/><glyph d="M304 -10q-57 0 -105 17t-83.5 50t-55 82t-19.5 113v478h136v-486q0 -27 9.5 -50.5t26.5 -40.5t40 -27t50 -10t50 10t40.5 27t27.5 40.5t10 50.5v486h136v-478q0 -64 -20 -113t-55 -82t-83 -50t-105 -17zM126 780q0 61 27.5 98t76.5 37q25 0 43 -7.5t34 -16.5 q14 -10 26.5 -17.5t25.5 -7.5q28 0 28 45h78q0 -62 -26 -98.5t-79 -36.5q-29 0 -49.5 10.5t-37.5 20.5q-11 7 -21.5 12t-21.5 5q-26 0 -26 -44h-78z" glyph-name="Utilde" horiz-adv-x="608" unicode="Ũ"/><glyph d="M569 0h-134v67q-28 -37 -70 -58t-98 -21q-104 0 -164.5 66t-60.5 184v347h137v-333q0 -68 30.5 -107.5t94.5 -39.5q56 0 93 41t37 118v321h135v-585zM141 634q0 61 27.5 98t76.5 37q25 0 43 -7.5t34 -16.5q14 -10 26.5 -17.5t25.5 -7.5q28 0 28 45h78q0 -62 -26 -98.5 t-79 -36.5q-29 0 -49.5 10.5t-37.5 20.5q-11 7 -21.5 12t-21.5 5q-26 0 -26 -44h-78z" glyph-name="utilde" horiz-adv-x="608" unicode="ũ"/><glyph d="M304 -10q-57 0 -105 17t-83.5 50t-55 82t-19.5 113v478h136v-486q0 -27 9.5 -50.5t26.5 -40.5t40 -27t50 -10t50 10t40.5 27t27.5 40.5t10 50.5v486h136v-478q0 -64 -20 -113t-55 -82t-83 -50t-105 -17zM172 866h264v-86h-264v86z" glyph-name="Umacron" horiz-adv-x="608" unicode="Ū"/><glyph d="M569 0h-134v67q-28 -37 -70 -58t-98 -21q-104 0 -164.5 66t-60.5 184v347h137v-333q0 -68 30.5 -107.5t94.5 -39.5q56 0 93 41t37 118v321h135v-585zM174 725h264v-86h-264v86z" glyph-name="umacron" horiz-adv-x="608" unicode="ū"/><glyph d="M304 -10q-57 0 -105 17t-83.5 50t-55 82t-19.5 113v478h136v-486q0 -27 9.5 -50.5t26.5 -40.5t40 -27t50 -10t50 10t40.5 27t27.5 40.5t10 50.5v486h136v-478q0 -64 -20 -113t-55 -82t-83 -50t-105 -17zM308 775q-41 0 -71.5 13t-50.5 35.5t-29.5 54t-9.5 67.5h85 q0 -48 19.5 -71t56.5 -25q36 2 56 25t20 71h86q0 -36 -11 -67.5t-32 -54t-51 -35.5t-68 -13z" glyph-name="Ubreve" horiz-adv-x="608" unicode="Ŭ"/><glyph d="M569 0h-134v67q-28 -37 -70 -58t-98 -21q-104 0 -164.5 66t-60.5 184v347h137v-333q0 -68 30.5 -107.5t94.5 -39.5q56 0 93 41t37 118v321h135v-585zM309 623q-41 0 -71.5 13t-50.5 35.5t-29.5 54t-9.5 67.5h85q0 -48 19.5 -71t56.5 -25q36 2 56 25t20 71h86 q0 -36 -11 -67.5t-32 -54t-51 -35.5t-68 -13z" glyph-name="ubreve" horiz-adv-x="608" unicode="ŭ"/><glyph d="M302 729q-24 0 -45 9t-37 25t-25 37t-9 45q0 25 9 46.5t25 37.5t37 25t45 9t45.5 -9t37.5 -25t25 -37.5t9 -46.5q0 -24 -9 -45t-25 -37t-37.5 -25t-45.5 -9zM302 806q17 0 29 11.5t12 27.5q0 17 -12 29t-29 12t-28.5 -12t-11.5 -29q0 -16 11.5 -27.5t28.5 -11.5zM304 -10 q-57 0 -105 17t-83.5 50t-55 82t-19.5 113v478h136v-486q0 -27 9.5 -50.5t26.5 -40.5t40 -27t50 -10t50 10t40.5 27t27.5 40.5t10 50.5v486h136v-478q0 -64 -20 -113t-55 -82t-83 -50t-105 -17z" glyph-name="Uring" horiz-adv-x="608" unicode="Ů"/><glyph d="M569 0h-134v67q-28 -37 -70 -58t-98 -21q-104 0 -164.5 66t-60.5 184v347h137v-333q0 -68 30.5 -107.5t94.5 -39.5q56 0 93 41t37 118v321h135v-585zM305 599q-24 0 -45 9t-37 25t-25 37t-9 45q0 25 9 46.5t25 37.5t37 25t45 9t45.5 -9t37.5 -25t25 -37.5t9 -46.5 q0 -24 -9 -45t-25 -37t-37.5 -25t-45.5 -9zM305 676q17 0 29 11.5t12 27.5q0 17 -12 29t-29 12t-28.5 -12t-11.5 -29q0 -16 11.5 -27.5t28.5 -11.5z" glyph-name="uring" horiz-adv-x="608" unicode="ů"/><glyph d="M304 -10q-57 0 -105 17t-83.5 50t-55 82t-19.5 113v478h136v-486q0 -27 9.5 -50.5t26.5 -40.5t40 -27t50 -10t50 10t40.5 27t27.5 40.5t10 50.5v486h136v-478q0 -64 -20 -113t-55 -82t-83 -50t-105 -17zM275 950h120l-150 -170h-84zM441 950h120l-150 -170h-84z" glyph-name="Uhungarumlaut" horiz-adv-x="608" unicode="Ű"/><glyph d="M569 0h-134v67q-28 -37 -70 -58t-98 -21q-104 0 -164.5 66t-60.5 184v347h137v-333q0 -68 30.5 -107.5t94.5 -39.5q56 0 93 41t37 118v321h135v-585zM442 805h120l-150 -170h-84zM276 805h120l-150 -170h-84z" glyph-name="uhungarumlaut" horiz-adv-x="608" unicode="ű"/><glyph d="M316 -222q-65 0 -104.5 31.5t-39.5 77.5q0 28 13.5 54.5t51.5 55.5q-88 17 -142 81.5t-54 173.5v478h136v-486q0 -27 9.5 -50.5t26.5 -40.5t40 -27t50 -10t50 10t40.5 27t27.5 40.5t10 50.5v486h136v-478q0 -100 -45 -161.5t-119 -85.5l-66.5 -44.5t-39.5 -29.5 t-19 -20.5t-5 -18.5q0 -17 13 -24t30 -7q20 0 33 9t27 20l79 -54q-26 -24 -64.5 -41t-74.5 -17z" glyph-name="Uogonek" horiz-adv-x="608" unicode="Ų"/><glyph d="M569 0q-57 -35 -81 -64t-24 -47q0 -17 10.5 -25t27.5 -8q15 0 27.5 9t22.5 21l79 -55q-26 -27 -58 -43.5t-76 -16.5q-58 0 -94.5 30.5t-37.5 77.5q-1 39 17.5 68.5t52.5 56.5v63q-28 -37 -70 -58t-98 -21q-104 0 -164.5 66t-60.5 184v347h137v-333q0 -68 30.5 -107.5 t94.5 -39.5q56 0 93 41t37 118v321h135v-585z" glyph-name="uogonek" horiz-adv-x="608" unicode="ų"/><glyph d="M14 730h142l138 -511l153 511h134l152 -509l137 509h137l-206 -730h-135l-153 515l-153 -515h-138zM469 950h84l119 -170h-102l-59 89l-59 -89h-102z" glyph-name="Wcircumflex" horiz-adv-x="1023" unicode="Ŵ"/><glyph d="M18 585h138l129 -403l147 403h134l144 -404l134 404h137l-205 -585h-130l-148 405l-152 -405h-133zM455 804h84l119 -170h-102l-59 89l-59 -89h-102z" glyph-name="wcircumflex" horiz-adv-x="995" unicode="ŵ"/><glyph d="M245 346l-232 384h150l151 -253l152 253h150l-235 -387v-343h-136v346zM272 950h84l119 -170h-102l-59 89l-59 -89h-102z" glyph-name="Ycircumflex" horiz-adv-x="629" unicode="Ŷ"/><glyph d="M246 29l-240 556h144l163 -394l154 394h142l-349 -855h-137zM267 805h84l119 -170h-102l-59 89l-59 -89h-102z" glyph-name="ycircumflex" horiz-adv-x="618" unicode="ŷ"/><glyph d="M245 346l-232 384h150l151 -253l152 253h150l-235 -387v-343h-136v346zM146 849q0 32 19.5 52t52.5 20q34 0 53 -20t19 -52t-19 -51.5t-53 -19.5t-53 19.5t-19 51.5zM337 849q0 32 19.5 52t52.5 20t52.5 -20t19.5 -52t-19.5 -51.5t-52.5 -19.5q-35 0 -53.5 19.5 t-18.5 51.5z" glyph-name="Ydieresis" horiz-adv-x="629" unicode="Ÿ"/><glyph d="M36 125l323 475h-312v130h472v-124l-323 -476h323v-130h-483v125zM337 950h126l-150 -170h-91z" glyph-name="Zacute" horiz-adv-x="556" unicode="Ź"/><glyph d="M28 123l340 342h-333v120h509v-123l-340 -342h346v-120h-522v123zM356 805h126l-150 -170h-91z" glyph-name="zacute" horiz-adv-x="577" unicode="ź"/><glyph d="M36 125l323 475h-312v130h472v-124l-323 -476h323v-130h-483v125zM203 849q0 35 21.5 57t57.5 22q37 0 58 -22t21 -57t-21 -56.5t-58 -21.5q-38 0 -58.5 21.5t-20.5 56.5z" glyph-name="Zdotaccent" horiz-adv-x="556" unicode="Ż"/><glyph d="M28 123l340 342h-333v120h509v-123l-340 -342h346v-120h-522v123zM218 704q0 35 21.5 57t57.5 22q37 0 58 -22t21 -57t-21 -56.5t-58 -21.5q-38 0 -58.5 21.5t-20.5 56.5z" glyph-name="zdotaccent" horiz-adv-x="577" unicode="ż"/><glyph d="M36 125l323 475h-312v130h472v-124l-323 -476h323v-130h-483v125zM122 950h102l59 -89l59 89h102l-119 -170h-84z" glyph-name="Zcaron" horiz-adv-x="556" unicode="Ž"/><glyph d="M28 123l340 342h-333v120h509v-123l-340 -342h346v-120h-522v123zM136 805h102l59 -89l59 89h102l-119 -170h-84z" glyph-name="zcaron" horiz-adv-x="577" unicode="ž"/><glyph d="M48 425h191l25 89q17 62 42 103.5t58 66.5t75 35.5t94 10.5h10v-125q-34 0 -57.5 -4t-40 -14.5t-26.5 -28.5t-18 -45l-25 -88h165v-120h-199l-25 -89q-17 -60 -39 -101t-52 -66.5t-69 -37t-89 -11.5h-22v125q61 0 90.5 20t43.5 72l25 88h-157v120z" glyph-name="florin" horiz-adv-x="588" unicode="ƒ"/><glyph d="M261 691q-14 15 -22.5 35.5t-8.5 43.5q0 25 9 46.5t25 37.5t37 25t45 9t45.5 -9t37.5 -25t25 -37.5t9 -46.5t-9.5 -46.5t-26.5 -37.5l245 -686h-142l-45 130h-283l-45 -130h-142zM248 260h192l-96 276zM414 1100h126l-150 -170h-91zM346 731q17 0 29 11.5t12 27.5 q0 17 -12 29t-29 12t-28.5 -12t-11.5 -29q0 -16 11.5 -27.5t28.5 -11.5z" glyph-name="Aringacute" horiz-adv-x="687" unicode="Ǻ"/><glyph d="M308 -12q-53 0 -104.5 20.5t-92.5 59.5t-66 95.5t-25 128.5q0 56 15 103t41 83.5t61 62t75 39.5q-14 26 -14 56q0 25 9 46.5t25 37.5t37 25t45 9t45.5 -9t37.5 -25t25 -37.5t9 -46.5q0 -32 -17 -60q51 -21 84 -61v70h135v-585h-135v76q-32 -41 -82 -64.5t-108 -23.5z M330 112q38 0 70 14t55 39t36.5 58t13.5 71q0 37 -13.5 70t-36.5 57.5t-55 38.5t-70 14q-37 0 -69.5 -14t-56.5 -38t-37.5 -57t-13.5 -71t13.5 -71.5t37.5 -58t56.5 -38.5t69.5 -14zM382 958h126l-150 -170h-91zM314 597q17 0 29 11.5t12 27.5q0 17 -12 29t-29 12t-28.5 -12 t-11.5 -29q0 -15 10.5 -26.5t25.5 -12.5h4z" glyph-name="aringacute" horiz-adv-x="671" unicode="ǻ"/><glyph d="M346 730h558v-130h-386l42 -168h344v-130h-311l43 -172h268v-130h-378l-32 129h-281l-58 -129h-142zM269 255h194l-68 279zM605 950h126l-150 -170h-91z" glyph-name="AEacute" horiz-adv-x="938" unicode="Ǽ"/><glyph d="M719 -12q-84 0 -147.5 33t-102.5 90q-15 -25 -38.5 -47.5t-54.5 -39.5t-68 -26.5t-78 -9.5q-55 0 -95 12.5t-66 35t-38.5 52.5t-12.5 66q0 41 14.5 71t40.5 52t61.5 36.5t76.5 24.5q37 10 72 18t62.5 17.5t44.5 22t17 31.5q0 26 -27 44.5t-81 18.5q-73 0 -107 -32.5 t-34 -77.5v-3h-124v2q0 103 68.5 160.5t190.5 57.5q72 0 126 -21.5t84 -63.5q40 40 93.5 62.5t116.5 22.5q65 0 120 -22.5t95.5 -63t63.5 -95.5t23 -120v-47h-477q12 -64 59.5 -103t121.5 -39q57 0 101 29.5t65 76.5l114 -49q-37 -80 -110 -128t-170 -48zM237 100 q36 0 67 14.5t54 35t37 44t17 41.5q0 1 0.5 9.5t0 19t-1 19.5t-1.5 11q-5 -14 -41 -26.5t-93 -25.5q-62 -14 -92.5 -31.5t-30.5 -52.5q0 -26 19.5 -42t64.5 -16zM713 478q-60 0 -103 -32t-63 -84h330q-17 57 -60 86.5t-104 29.5zM584 808h126l-150 -170h-91z" glyph-name="aeacute" horiz-adv-x="1035" unicode="ǽ"/><glyph d="M116 114q-45 51 -69.5 114.5t-24.5 136.5q0 78 29 146t79.5 119t118.5 80.5t146 29.5q51 0 97.5 -13.5t88.5 -36.5l33 40h157l-95 -117q44 -50 68.5 -113t24.5 -135q0 -78 -29 -146.5t-80 -119t-119 -80t-146 -29.5q-51 0 -97 12.5t-87 35.5l-30 -38h-157zM157 365 q0 -41 12 -77.5t34 -66.5l292 362q-23 11 -48 17t-52 6q-50 0 -93.5 -19t-75.5 -51.5t-50.5 -76.5t-18.5 -94zM395 124q50 0 93.5 19t76 51.5t51 76.5t18.5 94q0 39 -12 75t-33 65l-291 -361q45 -20 97 -20zM448 950h126l-150 -170h-91z" glyph-name="Oslashacute" horiz-adv-x="790" unicode="Ǿ"/><glyph d="M323 -12q-40 0 -76.5 9.5t-68.5 26.5l-19 -24h-139l73 92q-35 40 -54 91t-19 109q0 64 23.5 119.5t64.5 97t96.5 65t118.5 23.5q39 0 75 -9.5t68 -26.5l19 24h139l-73 -92q35 -40 55 -91.5t20 -109.5q0 -63 -23.5 -118.5t-65 -97t-96.5 -65t-118 -23.5zM323 115 q36 0 67 14t54.5 38t36.5 56.5t13 68.5q0 26 -7 50.5t-20 45.5l-207 -261q29 -12 63 -12zM152 292q0 -52 25 -94l207 260q-28 12 -61 12q-37 0 -68 -14t-54 -38t-36 -56.5t-13 -69.5zM393 810h126l-150 -170h-91z" glyph-name="oslashacute" unicode="ǿ"/><glyph d="M187 -249l34 204h119l-70 -204h-83zM288 -10q-99 0 -167 37.5t-118 93.5l124 98q28 -48 69 -73.5t91 -25.5q54 0 82.5 30t28.5 68q0 23 -13 39t-34 27.5t-48.5 20.5l-56.5 18q-37 12 -74 26t-66.5 37.5t-48 58t-18.5 86.5q0 44 18 82t50.5 66.5t77 44.5t96.5 16 q44 0 79.5 -8t65 -22t54 -33.5t46.5 -42.5l-112 -85q-47 70 -132 70q-50 0 -76 -24t-26 -59q0 -22 12 -37t32.5 -26.5t47.5 -20.5l57 -19q37 -12 74.5 -27.5t68 -40t49.5 -60t19 -88.5q0 -43 -17 -84t-49 -72.5t-79 -51t-107 -19.5z" glyph-name="Scommaaccent" horiz-adv-x="563" unicode="Ș"/><glyph d="M165 -254l34 204h119l-70 -204h-83zM259 -12q-97 0 -161 36.5t-99 105.5l125 60q21 -41 57 -63t84 -22q50 0 75 21t25 50q0 16 -11.5 26t-30 17.5t-43.5 12.5t-52 11q-38 8 -74.5 19t-65.5 30.5t-47 50t-18 76.5q0 35 16.5 67.5t46.5 57.5t72.5 39.5t94.5 14.5 q88 0 146.5 -32.5t92.5 -88.5l-115 -58q-18 31 -50 49t-74 18q-48 0 -71 -19t-23 -44q0 -29 34 -41.5t100 -26.5q36 -7 72.5 -18.5t66.5 -31t48.5 -50t18.5 -76.5q0 -31 -14 -64.5t-43.5 -62t-74.5 -46.5t-108 -18z" glyph-name="scommaaccent" horiz-adv-x="518" unicode="ș"/><glyph d="M-82 -142q39 0 63 4t37 16.5t17 35.5t4 62v609h137v-610q0 -70 -12 -116.5t-40 -75t-73.5 -40.5t-113.5 -12h-19v127z" glyph-name="dotlessj" horiz-adv-x="214" unicode="ȷ"/><glyph d="M194 720h84l119 -170h-102l-59 89l-59 -89h-102z" glyph-name="circumflex" horiz-adv-x="472" unicode="ˆ"/><glyph d="M74 720h102l59 -89l59 89h102l-119 -170h-84z" glyph-name="caron" horiz-adv-x="472" unicode="ˇ"/><glyph d="M235 545q-41 0 -71.5 13t-50.5 35.5t-29.5 54t-9.5 67.5h85q0 -48 19.5 -71t56.5 -25q36 2 56 25t20 71h86q0 -36 -11 -67.5t-32 -54t-51 -35.5t-68 -13z" glyph-name="breve" horiz-adv-x="472" unicode="˘"/><glyph d="M147 619q0 35 21.5 57t57.5 22q37 0 58 -22t21 -57t-21 -56.5t-58 -21.5q-38 0 -58.5 21.5t-20.5 56.5z" glyph-name="dotaccent" horiz-adv-x="473" unicode="˙"/><glyph d="M235 546q-24 0 -45 9t-37 25t-25 37t-9 45q0 25 9 46.5t25 37.5t37 25t45 9t45.5 -9t37.5 -25t25 -37.5t9 -46.5q0 -24 -9 -45t-25 -37t-37.5 -25t-45.5 -9zM235 623q17 0 29 11.5t12 27.5q0 17 -12 29t-29 12t-28.5 -12t-11.5 -29q0 -16 11.5 -27.5t28.5 -11.5z" glyph-name="ring" horiz-adv-x="472" unicode="˚"/><glyph d="M232 -227q-65 0 -104.5 31.5t-39.5 77.5q0 20 7 39t24 38.5t46 40t73 42.5l81 -42l-66.5 -44.5t-39.5 -29.5t-19 -20.5t-5 -18.5q0 -17 13 -24t30 -7q20 0 33 9t27 20l79 -54q-26 -24 -64.5 -41t-74.5 -17z" glyph-name="ogonek" horiz-adv-x="472" unicode="˛"/><glyph d="M64 550q0 61 27.5 98t76.5 37q25 0 43 -7.5t34 -16.5q14 -10 26.5 -17.5t25.5 -7.5q28 0 28 45h78q0 -62 -26 -98.5t-79 -36.5q-29 0 -49.5 10.5t-37.5 20.5q-11 7 -21.5 12t-21.5 5q-26 0 -26 -44h-78z" glyph-name="tilde" horiz-adv-x="472" unicode="˜"/><glyph d="M150 720h120l-150 -170h-84zM316 720h120l-150 -170h-84z" glyph-name="hungarumlaut" horiz-adv-x="472" unicode="˝"/><glyph d="M248 -229q-58 0 -94.5 30.5t-37.5 77.5q-1 52 32 89t90 74l82 -42q-57 -35 -81 -64t-24 -47q0 -17 10.5 -25t27.5 -8q15 0 27.5 9t22.5 21l79 -55q-26 -27 -58 -43.5t-76 -16.5z" glyph-name="uni0328" horiz-adv-x="472" unicode="̨"/><glyph d="M36 730h706v-130h-129v-394q0 -22 2 -35.5t8.5 -21t19.5 -10t34 -2.5h65v-137h-103q-51 0 -83 13t-49 38.5t-23.5 63t-6.5 86.5l1 399h-184v-600h-136v600h-122v130z" glyph-name="pi" horiz-adv-x="779" unicode="π"/><glyph d="M36 730h706v-130h-129v-394q0 -22 2 -35.5t8.5 -21t19.5 -10t34 -2.5h65v-137h-103q-51 0 -83 13t-49 38.5t-23.5 63t-6.5 86.5l1 399h-184v-600h-136v600h-122v130z" glyph-name="pi" horiz-adv-x="779" unicode="ϖ"/><glyph d="M36 657h178v73h69v-74q88 -6 135 -48t47 -119q0 -42 -17.5 -71.5t-48.5 -48.5q34 -20 52.5 -51.5t18.5 -76.5q1 -84 -50 -127.5t-137 -51.5v-62h-69v61h-178v596zM170 181h44v124h-44v-124zM170 427h44v111h-44v-111zM334 245q0 23 -12 37.5t-39 19.5v-118 q24 6 37.5 21.5t13.5 39.5zM332 485q0 42 -49 51v-107q25 5 37 19.5t12 36.5z" glyph-name="uni0E3F" horiz-adv-x="489" unicode="฿"/><glyph d="M14 730h142l138 -511l153 511h134l152 -509l137 509h137l-206 -730h-135l-153 515l-153 -515h-138zM312 950h127l114 -170h-91z" glyph-name="Wgrave" horiz-adv-x="1023" unicode="Ẁ"/><glyph d="M18 585h138l129 -403l147 403h134l144 -404l134 404h137l-205 -585h-130l-148 405l-152 -405h-133zM304 805h127l114 -170h-91z" glyph-name="wgrave" horiz-adv-x="995" unicode="ẁ"/><glyph d="M14 730h142l138 -511l153 511h134l152 -509l137 509h137l-206 -730h-135l-153 515l-153 -515h-138zM578 950h126l-150 -170h-91z" glyph-name="Wacute" horiz-adv-x="1023" unicode="Ẃ"/><glyph d="M18 585h138l129 -403l147 403h134l144 -404l134 404h137l-205 -585h-130l-148 405l-152 -405h-133zM567 806h126l-150 -170h-91z" glyph-name="wacute" horiz-adv-x="995" unicode="ẃ"/><glyph d="M14 730h142l138 -511l153 511h134l152 -509l137 509h137l-206 -730h-135l-153 515l-153 -515h-138zM345 849q0 32 19.5 52t52.5 20q34 0 53 -20t19 -52t-19 -51.5t-53 -19.5t-53 19.5t-19 51.5zM536 849q0 32 19.5 52t52.5 20t52.5 -20t19.5 -52t-19.5 -51.5t-52.5 -19.5 q-35 0 -53.5 19.5t-18.5 51.5z" glyph-name="Wdieresis" horiz-adv-x="1023" unicode="Ẅ"/><glyph d="M18 585h138l129 -403l147 403h134l144 -404l134 404h137l-205 -585h-130l-148 405l-152 -405h-133zM334 702q0 32 19.5 52t52.5 20q34 0 53 -20t19 -52t-19 -51.5t-53 -19.5t-53 19.5t-19 51.5zM525 702q0 32 19.5 52t52.5 20t52.5 -20t19.5 -52t-19.5 -51.5t-52.5 -19.5 q-35 0 -53.5 19.5t-18.5 51.5z" glyph-name="wdieresis" horiz-adv-x="995" unicode="ẅ"/><glyph d="M245 346l-232 384h150l151 -253l152 253h150l-235 -387v-343h-136v346zM116 950h127l114 -170h-91z" glyph-name="Ygrave" horiz-adv-x="629" unicode="Ỳ"/><glyph d="M246 29l-240 556h144l163 -394l154 394h142l-349 -855h-137zM115 807h127l114 -170h-91z" glyph-name="ygrave" horiz-adv-x="618" unicode="ỳ"/><glyph d="M36 312h551v-115h-551v115z" glyph-name="figuredash" horiz-adv-x="623" unicode="‒"/><glyph d="M36 312h401v-115h-401v115z" glyph-name="endash" horiz-adv-x="473" unicode="–"/><glyph d="M36 312h601v-115h-601v115z" glyph-name="emdash" horiz-adv-x="673" unicode="—"/><glyph d="M36 312h901v-115h-901v115z" glyph-name="uni2015" horiz-adv-x="973" unicode="―"/><glyph d="M36 730h136v-960h-136v960zM234 730h136v-960h-136v960z" glyph-name="doublebar" horiz-adv-x="406" unicode="‖"/><glyph d="M176 526h-83l-70 204h119z" glyph-name="quoteleft" horiz-adv-x="207" unicode="‘"/><glyph d="M28 526l34 204h119l-70 -204h-83z" glyph-name="quoteright" horiz-adv-x="207" unicode="’"/><glyph d="M22 -117l34 204h119l-70 -204h-83z" glyph-name="quotesinglbase" horiz-adv-x="207" unicode="‚"/><glyph d="M28 526l34 204h119l-70 -204h-83z" glyph-name="reversequoteleft" horiz-adv-x="207" unicode="‛"/><glyph d="M180 526h-83l-70 204h118zM341 526h-84l-69 204h118z" glyph-name="quotedblleft" horiz-adv-x="368" unicode="“"/><glyph d="M28 526l34 204h119l-70 -204h-83zM189 526l34 204h119l-70 -204h-83z" glyph-name="quotedblright" horiz-adv-x="368" unicode="”"/><glyph d="M22 -117l34 204h119l-70 -204h-83zM183 -117l34 204h119l-70 -204h-83z" glyph-name="quotedblbase" horiz-adv-x="368" unicode="„"/><glyph d="M28 526l34 204h119l-70 -204h-83zM189 526l34 204h119l-70 -204h-83z" glyph-name="reversequotedblleft" horiz-adv-x="368" unicode="‟"/><glyph d="M36 500h159v230h136v-230h158v-121h-158v-379h-136v379h-159v121z" glyph-name="dagger" horiz-adv-x="526" unicode="†"/><glyph d="M36 555h159v175h136v-175h158v-120h-158v-131h158v-120h-158v-184h-136v184h-159v120h159v131h-159v120z" glyph-name="daggerdbl" horiz-adv-x="526" unicode="‡"/><glyph d="M198 144q-23 0 -43 9t-35 24t-24 35t-9 43t9 43t24 35t35 24t43 9t43 -9t35 -24t24 -35t9 -43t-9 -43t-24 -35t-35 -24t-43 -9z" glyph-name="bullet" horiz-adv-x="395" unicode="•"/><glyph d="M33 62q0 33 20 53.5t54 20.5q35 0 54 -20.5t19 -53.5q0 -32 -19.5 -52.5t-54.5 -20.5q-34 0 -53.5 20.5t-19.5 52.5zM215 62q0 33 20 53.5t54 20.5q35 0 54 -20.5t19 -53.5q0 -32 -19.5 -52.5t-54.5 -20.5q-34 0 -53.5 20.5t-19.5 52.5zM397 62q0 33 20 53.5t54 20.5 q35 0 54 -20.5t19 -53.5q0 -32 -19.5 -52.5t-54.5 -20.5q-34 0 -53.5 20.5t-19.5 52.5z" glyph-name="ellipsis" horiz-adv-x="577" unicode="…"/><glyph d="M640 730h172l-627 -730h-172zM625 -11q-37 0 -69.5 14t-57 38.5t-38.5 57t-14 69.5t14 69.5t38.5 56.5t57 38t69.5 14t69.5 -14t56.5 -38t38 -56.5t14 -69.5t-14 -69.5t-38 -57t-56.5 -38.5t-69.5 -14zM625 103q26 0 45 19t19 46q0 26 -19 45.5t-45 19.5q-27 0 -46 -19.5 t-19 -45.5q0 -27 19 -46t46 -19zM201 383q-37 0 -69.5 14t-57 38.5t-38.5 57t-14 69.5t14 69.5t38.5 56.5t57 38t69.5 14t69.5 -14t56.5 -38t38 -56.5t14 -69.5t-14 -69.5t-38 -57t-56.5 -38.5t-69.5 -14zM201 496q26 0 45.5 19.5t19.5 46.5q0 26 -19.5 45.5t-45.5 19.5 t-45.5 -19.5t-19.5 -45.5q0 -27 19.5 -46.5t45.5 -19.5zM1003 -11q-37 0 -69.5 14t-56.5 38.5t-38 57t-14 69.5t14 69.5t38 56.5t56.5 38t69.5 14t69.5 -14t57 -38t38.5 -56.5t14 -69.5t-14 -69.5t-38.5 -57t-57 -38.5t-69.5 -14zM1003 103q26 0 45.5 19t19.5 46 q0 26 -19.5 45.5t-45.5 19.5t-45.5 -19.5t-19.5 -45.5q0 -27 19.5 -46t45.5 -19z" glyph-name="perthousand" horiz-adv-x="1204" unicode="‰"/><glyph d="M28 526l34 204h119l-70 -204h-83z" glyph-name="minute" horiz-adv-x="207" unicode="′"/><glyph d="M28 526l34 204h119l-70 -204h-83zM189 526l34 204h119l-70 -204h-83z" glyph-name="second" horiz-adv-x="368" unicode="″"/><glyph d="M70 500q-4 9 -9.5 28.5t-11 41.5t-9.5 43t-4 33v84h105v-84q0 -13 -4 -34t-9.5 -43t-11 -41t-9.5 -28h-37zM215 500q-4 9 -9.5 28.5t-10.5 41.5t-9 43t-4 33v84h105v-84q0 -13 -4 -34t-9.5 -43t-11.5 -41t-10 -28h-37zM361 500q-4 9 -9.5 28.5t-11 41.5t-9.5 43t-4 33v84 h105v-84q0 -13 -4 -34t-9.5 -43t-11 -41t-9.5 -28h-37z" glyph-name="tripleprime" horiz-adv-x="468" unicode="‴"/><glyph d="M53 214v83l169 119v-101l-89 -60l89 -59v-101z" glyph-name="guilsinglleft" horiz-adv-x="275" unicode="‹"/><glyph d="M53 197l89 59l-89 60v101l169 -119v-83l-169 -119v101z" glyph-name="guilsinglright" horiz-adv-x="275" unicode="›"/><glyph d="M538 730h156l-527 -730h-156z" glyph-name="fraction" horiz-adv-x="704" unicode="⁄"/><glyph d="M226 302q-45 0 -84.5 17t-68.5 46.5t-45.5 69t-16.5 84.5t16.5 84.5t45.5 69t68.5 46.5t84.5 17t85 -17t69 -46.5t46 -69t17 -84.5t-16.5 -84.5t-46 -69t-69 -46.5t-85.5 -17zM226 413q46 0 74 31t28 75t-28.5 75t-73.5 31t-73 -31t-28 -75t28 -75t73 -31z" glyph-name="uni2070" horiz-adv-x="454" unicode="⁰"/><glyph d="M183 392h-169v99l168 239h105v-243h62v-95h-62v-84h-104v84zM183 487v77l-53 -77h53z" glyph-name="uni2074" horiz-adv-x="363" unicode="⁴"/><glyph d="M157 302q-52 0 -91.5 21t-60.5 57l108 57q13 -29 44 -29q19 0 30.5 11.5t11.5 30.5q0 18 -12 29t-32 11q-14 0 -26 -8t-17 -19l-102 35l32 232h242v-103h-155l-7 -45q10 4 22 6.5t27 2.5q63 0 101 -37t38 -104q0 -33 -11.5 -60.5t-32 -47t-48.5 -30t-61 -10.5z" glyph-name="uni2075" horiz-adv-x="320" unicode="⁵"/><glyph d="M176 302q-36 0 -66.5 12t-52.5 33t-34 49.5t-12 61.5q0 32 12.5 64.5t28.5 58.5l94 149h129l-76 -119q30 -1 56 -12t45 -31t30 -47.5t11 -62.5q0 -33 -12 -61.5t-34 -49.5t-52.5 -33t-66.5 -12zM176 406q23 0 39 15.5t16 38.5q0 22 -16 37.5t-39 15.5t-37.5 -15.5 t-14.5 -38.5q0 -22 14.5 -37.5t37.5 -15.5z" glyph-name="uni2076" horiz-adv-x="352" unicode="⁶"/><glyph d="M176 626h-162v104h279v-98l-144 -324h-121z" glyph-name="uni2077" horiz-adv-x="307" unicode="⁷"/><glyph d="M163 302q-32 0 -59 9.5t-47 27.5t-31.5 44t-11.5 59q0 26 10.5 49.5t29.5 41.5q-28 31 -28 76q0 61 38.5 94t98.5 33q61 0 100 -33t39 -94q0 -22 -7 -41t-19 -34q17 -17 27 -40t10 -52q0 -33 -11.5 -59t-31.5 -44t-47.5 -27.5t-59.5 -9.5zM163 398q20 0 32.5 12.5 t12.5 31.5q0 17 -12.5 29.5t-32.5 12.5t-32 -12.5t-12 -29.5q0 -19 12 -31.5t32 -12.5zM163 574q18 0 28 10t10 25q0 14 -9.5 24.5t-27.5 10.5t-27.5 -10.5t-9.5 -24.5q0 -15 9.5 -25t26.5 -10z" glyph-name="uni2078" horiz-adv-x="328" unicode="⁸"/><glyph d="M153 428q-29 0 -55 11t-45.5 30.5t-30.5 47.5t-11 63q0 33 12 61.5t34 49.5t52.5 33t66.5 12t66.5 -12t52.5 -33t34 -49.5t12 -61.5q0 -32 -12 -64.5t-29 -58.5l-94 -149h-128zM176 525q23 0 38.5 15.5t15.5 38.5t-15.5 38t-38.5 15t-38 -15t-15 -38t15 -38.5t38 -15.5z" glyph-name="uni2079" horiz-adv-x="352" unicode="⁹"/><glyph d="M16 564h63v61h88v-61h63v-91h-63v-61h-88v61h-63v91z" glyph-name="uni207A" horiz-adv-x="247" unicode="⁺"/><glyph d="M16 563h214v-90h-214v90z" glyph-name="uni207B" horiz-adv-x="247" unicode="⁻"/><glyph d="M14 612h213v-86h-213v86zM14 510h213v-87h-213v87z" glyph-name="uni207C" horiz-adv-x="241" unicode="⁼"/><glyph d="M173 216q-74 56 -112.5 130t-38.5 171t39 170.5t111 129.5l68 -91q-54 -40 -79.5 -92.5t-25.5 -116.5q0 -129 105 -210z" glyph-name="uni207D" horiz-adv-x="266" unicode="⁽"/><glyph d="M26 307q105 81 105 210q0 64 -25.5 116.5t-79.5 92.5l68 91q72 -56 111 -129.5t39 -170.5t-38.5 -171t-111.5 -130z" glyph-name="uni207E" horiz-adv-x="266" unicode="⁾"/><glyph d="M226 -6q-45 0 -84.5 17t-68.5 46.5t-45.5 69t-16.5 84.5t16.5 84.5t45.5 69t68.5 46.5t84.5 17t85 -17t69 -46.5t46 -69t17 -84.5t-16.5 -84.5t-46 -69t-69 -46.5t-85.5 -17zM226 105q46 0 74 31t28 75t-28.5 75t-73.5 31t-73 -31t-28 -75t28 -75t73 -31z" glyph-name="uni2080" horiz-adv-x="454" unicode="₀"/><glyph d="M14 104h81v166q-11 -14 -27 -20t-36 -6h-6v107h3q21 0 34.5 7t21.5 17.5t11 23t3 23.5h109v-318h78v-104h-272v104z" glyph-name="uni2081" horiz-adv-x="298" unicode="₁"/><glyph d="M14 83q0 32 10.5 55.5t27 41.5t37 31.5t40.5 23.5q30 17 52.5 31t22.5 33q0 13 -10.5 22.5t-30.5 9.5q-23 0 -38.5 -17t-23.5 -37l-97 50q23 47 63 74t98 27q69 0 111.5 -36t42.5 -92q0 -30 -11 -53t-28 -40t-38 -30t-41 -23q-26 -14 -45 -25.5t-21 -24.5h181v-104h-302 v83z" glyph-name="uni2082" horiz-adv-x="330" unicode="₂"/><glyph d="M158 -6q-43 0 -84 12.5t-69 40.5l85 77q27 -28 61 -28q20 0 32.5 9.5t12.5 26.5t-16.5 25t-42.5 8h-44v98h42q25 0 38.5 9.5t13.5 26.5q0 31 -43 31q-16 0 -30 -7.5t-22 -20.5l-80 69q25 27 62.5 42t73.5 15q70 0 113.5 -33.5t43.5 -91.5q0 -50 -42 -83q25 -15 38.5 -38 t13.5 -53q0 -28 -11 -53t-31.5 -43t-49.5 -28.5t-65 -10.5z" glyph-name="uni2083" horiz-adv-x="325" unicode="₃"/><glyph d="M183 84h-169v99l168 239h105v-243h62v-95h-62v-84h-104v84zM183 179v77l-53 -77h53z" glyph-name="uni2084" horiz-adv-x="363" unicode="₄"/><glyph d="M157 -6q-52 0 -91.5 21t-60.5 57l108 57q13 -29 44 -29q19 0 30.5 11.5t11.5 30.5q0 18 -12 29t-32 11q-14 0 -26 -8t-17 -19l-102 35l32 232h242v-103h-155l-7 -45q10 4 22 6.5t27 2.5q63 0 101 -37t38 -104q0 -33 -11.5 -60.5t-32 -47t-48.5 -30t-61 -10.5z" glyph-name="uni2085" horiz-adv-x="320" unicode="₅"/><glyph d="M176 -6q-36 0 -66.5 12t-52.5 33t-34 49.5t-12 61.5q0 32 12.5 64.5t28.5 58.5l94 149h129l-76 -119q30 -1 56 -12t45 -31t30 -47.5t11 -62.5q0 -33 -12 -61.5t-34 -49.5t-52.5 -33t-66.5 -12zM176 98q23 0 39 15.5t16 38.5q0 22 -16 37.5t-39 15.5t-37.5 -15.5 t-14.5 -38.5q0 -22 14.5 -37.5t37.5 -15.5z" glyph-name="uni2086" horiz-adv-x="352" unicode="₆"/><glyph d="M176 318h-162v104h279v-98l-144 -324h-121z" glyph-name="uni2087" horiz-adv-x="307" unicode="₇"/><glyph d="M163 -6q-32 0 -59 9.5t-47 27.5t-31.5 44t-11.5 59q0 26 10.5 49.5t29.5 41.5q-28 31 -28 76q0 61 38.5 94t98.5 33q61 0 100 -33t39 -94q0 -22 -7 -41t-19 -34q17 -17 27 -40t10 -52q0 -33 -11.5 -59t-31.5 -44t-47.5 -27.5t-59.5 -9.5zM163 90q20 0 32.5 12.5 t12.5 31.5q0 17 -12.5 29.5t-32.5 12.5t-32 -12.5t-12 -29.5q0 -19 12 -31.5t32 -12.5zM163 266q18 0 28 10t10 25q0 14 -9.5 24.5t-27.5 10.5t-27.5 -10.5t-9.5 -24.5q0 -15 9.5 -25t26.5 -10z" glyph-name="uni2088" horiz-adv-x="328" unicode="₈"/><glyph d="M153 120q-29 0 -55 11t-45.5 30.5t-30.5 47.5t-11 63q0 33 12 61.5t34 49.5t52.5 33t66.5 12t66.5 -12t52.5 -33t34 -49.5t12 -61.5q0 -32 -12 -64.5t-29 -58.5l-94 -149h-128zM176 217q23 0 38.5 15.5t15.5 38.5t-15.5 38t-38.5 15t-38 -15t-15 -38t15 -38.5t38 -15.5z" glyph-name="uni2089" horiz-adv-x="352" unicode="₉"/><glyph d="M16 256h63v61h88v-61h63v-91h-63v-61h-88v61h-63v91z" glyph-name="uni208A" horiz-adv-x="247" unicode="₊"/><glyph d="M16 255h214v-90h-214v90z" glyph-name="uni208B" horiz-adv-x="247" unicode="₋"/><glyph d="M14 304h213v-86h-213v86zM14 202h213v-87h-213v87z" glyph-name="uni208C" horiz-adv-x="241" unicode="₌"/><glyph d="M173 -92q-74 56 -112.5 130t-38.5 171t39 170.5t111 129.5l68 -91q-54 -40 -79.5 -92.5t-25.5 -116.5q0 -129 105 -210z" glyph-name="uni208D" horiz-adv-x="266" unicode="₍"/><glyph d="M26 -1q105 81 105 210q0 64 -25.5 116.5t-79.5 92.5l68 91q72 -56 111 -129.5t39 -170.5t-38.5 -171t-111.5 -130z" glyph-name="uni208E" horiz-adv-x="266" unicode="₎"/><glyph d="M76 -120l78 192q-63 51 -97.5 127t-34.5 166q0 82 29 150.5t79.5 118.5t119 78t147.5 28h15t15 -1l42 101h75l-47 -114q23 -5 48 -17l54 131h75l-68 -164q69 -46 111 -117l-119 -76q-10 17 -21 32.5t-25 28.5l-172 -418h14q70 0 121 35t80 88l122 -70q-50 -85 -131 -137 t-189 -52q-19 0 -36.5 2l-34.5 4l-47 -116h-74l54 133q-26 10 -47 21l-63 -154h-73zM157 365q0 -45 14 -84t40 -71l161 395q-47 -4 -86.5 -24.5t-68 -52t-44.5 -73.5t-16 -90zM265 162q21 -13 46 -22l183 445q-11 5 -23 9.5t-25 6.5z" glyph-name="uni20A1" horiz-adv-x="738" unicode="₡"/><glyph d="M397 -10q-85 0 -154 29.5t-118 80t-76 119t-27 146.5q0 82 29 150.5t79.5 118.5t119 78t147.5 28q51 0 98.5 -13t89 -36.5t75 -57t57.5 -74.5l-119 -76q-32 57 -81 90t-120 33q-52 0 -96 -18.5t-76 -51t-50 -76.5t-18 -95q0 -76 39 -135.5t105 -85.5v296h133v-82 q19 39 53 60.5t85 21.5h27v-130h-57q-57 0 -82 -31t-25 -102v-48q60 10 102.5 45.5t67.5 86.5l122 -67q-48 -94 -134.5 -149t-195.5 -55z" glyph-name="uni20A2" horiz-adv-x="738" unicode="₢"/><glyph d="M36 730h413v-130h-277v-101h277v-114h-277v-61h277v-115h-277v-209h-136v730z" glyph-name="franc" horiz-adv-x="486" unicode="₣"/><glyph d="M85 477h68q-4 20 -4 47q0 47 17 87t47.5 68.5t73 44.5t93.5 16q91 0 150 -38.5t80 -105.5l-128 -47q-20 73 -101 73q-48 0 -76 -29t-28 -67q0 -24 5 -49h210v-98h-173l14 -33h159v-98h-126q3 -15 5 -31.5t2 -33.5q0 -14 -2 -28t-5 -27q24 -13 46.5 -21.5t45.5 -8.5 q40 0 56 19t16 63v48h139v-65q0 -39 -9.5 -70.5t-30.5 -54.5t-54.5 -35.5t-82.5 -12.5q-53 0 -95 17t-78 39q-26 -27 -59.5 -42t-70.5 -15q-66 0 -102 25.5t-36 78.5q0 48 34.5 78.5t87.5 30.5q30 0 58 -8.5t54 -21.5q1 3 1 10q0 33 -14 66h-187v98h128l-21 33h-107v98z M189 69q33 0 58 23q-18 11 -35 17.5t-33 6.5q-14 0 -20.5 -6.5t-6.5 -15.5q0 -11 9.5 -18t27.5 -7z" glyph-name="lira" horiz-adv-x="705" unicode="₤"/><glyph d="M30 455h90v275h145l153 -275h134v275h136v-275h90v-66h-90v-33h90v-66h-90v-290h-135l-162 290h-135v-290h-136v290h-90v66h90v33h-90v66zM256 356h98l-19 33h-79v-33zM474 356h78v33h-97zM256 531v-76h42zM552 216v74h-41z" glyph-name="uni20A6" horiz-adv-x="808" unicode="₦"/><glyph d="M534 380q-13 -37 -36.5 -68.5t-56 -54.5t-72 -35.5t-84.5 -12.5h-113v-209h-136v730h250q53 0 98.5 -17.5t80 -48.5t56 -73t26.5 -91h72v117l134 74v-191h105v-120h-105v-163q0 -30 3 -48t13 -27.5t29 -13t51 -3.5h242q72 0 72 40q0 11 -8.5 18.5t-22.5 12t-33.5 7.5 l-40.5 6q-31 5 -63.5 12t-59 22t-43.5 40.5t-17 67.5q0 35 14 64.5t40 50.5t62.5 33t81.5 11q87 0 138 -31t79 -83l-118 -51q-11 25 -35.5 40t-58.5 15q-35 0 -51 -11.5t-16 -28.5q0 -10 8.5 -16.5t23.5 -11t34.5 -7.5t41.5 -6q30 -5 62 -13t57.5 -24.5t42 -43.5t16.5 -69 q0 -31 -10.5 -61.5t-35 -54.5t-65 -39t-101.5 -14h-256q-59 0 -99.5 11t-65 36t-35 66.5t-10.5 102.5v164h-85zM172 604v-269h105q30 0 55 10.5t43 29t27.5 43t9.5 52.5t-9.5 52.5t-27.5 42.5t-43 28.5t-55 10.5h-105z" glyph-name="peseta" horiz-adv-x="1396" unicode="₧"/><glyph d="M734 -1q-58 0 -123.5 12t-136 50t-144.5 109.5t-148 189.5h68q41 0 68.5 12t45 30.5t25 41t7.5 42.5q0 56 -33.5 86.5t-112.5 30.5h-78v-603h-136v730h229q63 0 112.5 -19t84 -52t53 -77.5t18.5 -95.5q0 -64 -30.5 -122.5t-95.5 -88.5q41 -48 82 -77.5t83 -46t85 -22 t86 -5.5q45 0 65.5 11t20.5 30q0 11 -8.5 18t-22.5 11.5t-33.5 7.5l-40.5 6q-31 5 -63.5 12t-59 22.5t-43.5 41.5t-17 67q0 35 14 64.5t40 50.5t62.5 33t81.5 11q88 0 138.5 -31t78.5 -83l-118 -51q-11 25 -35 40t-59 15t-51 -11.5t-16 -28.5q0 -10 8.5 -16.5t23.5 -11 t34.5 -7.5t41.5 -7q30 -4 62 -12.5t57.5 -24.5t42 -43t16.5 -69q0 -31 -10.5 -61.5t-37 -55t-70.5 -39.5t-111 -14z" glyph-name="uni20A8" horiz-adv-x="987" unicode="₨"/><glyph d="M26 455h91l-78 275h142l74 -275h143l83 275h124l82 -275h143l74 275h138l-78 -275h89v-66h-108l-10 -33h118v-66h-136l-82 -290h-134l-87 290h-143l-86 -290h-139l-83 290h-137v66h119l-10 33h-109v66zM282 356h87l10 33h-106zM717 356h86l9 33h-105zM491 356h104l-10 33 h-84zM300 290l23 -86l26 86h-49zM737 290l26 -86l23 86h-49zM543 530l-23 -75h45z" glyph-name="uni20A9" horiz-adv-x="1078" unicode="₩"/><glyph d="M234 550q43 0 69.5 -4t41.5 -16.5t20 -35t5 -59.5v-309h69q57 0 94 9t58.5 29.5t29.5 53t8 79.5v433h136v-433q0 -142 -74.5 -219.5t-238.5 -77.5h-218v550zM36 730h218q164 0 239 -77.5t75 -219.5v-135q0 -33 -6 -55.5t-21.5 -36t-41.5 -19.5t-67 -6v252q0 48 -8 80.5 t-29 52.5t-58 29t-96 9h-69v-604h-136v730z" glyph-name="uni20AA" horiz-adv-x="802" unicode="₪"/><glyph d="M31 517h91q3 48 22.5 88.5t52 70.5t76.5 47t96 17q59 0 106 -21t80 -57l-102 -91q-15 16 -36 25.5t-48 9.5q-48 0 -75.5 -25.5t-34.5 -63.5h224l-18 -106h-208v-92h194l-17 -106h-176q6 -39 32.5 -63.5t75.5 -24.5q32 0 51.5 13.5t33.5 32.5l122 -80q-31 -47 -82 -74 t-124 -27q-58 0 -103 16.5t-76 45.5t-48 70.5t-19 90.5h-90v106h90v92h-90v106z" glyph-name="Euro" horiz-adv-x="588" unicode="€"/><glyph d="M121 375l110 45v180h-195v130h526v-130h-195v-124l107 44v-75l-107 -44v-56l107 44v-75l-107 -44v-270h-136v214l-110 -45v75l110 45v56l-110 -45v75z" glyph-name="uni20AE" horiz-adv-x="598" unicode="₮"/><glyph d="M35 554h77v176h250q45 0 85 -13t72 -36.5t55.5 -56t36.5 -70.5h90v-66h-77q1 -5 1 -9v-9q0 -10 -1 -15h77v-66h-89q-12 -39 -36 -72t-56.5 -57t-72.5 -37.5t-86 -13.5h-113v-209h-136v389h-77v66h77v33h-77v66zM352 335q36 0 64.5 14.5t45.5 39.5h-214v-54h104zM248 604 v-50h211q-18 23 -45 36.5t-62 13.5h-104zM488 470q0 5 -0.5 9t-0.5 9h-239v-33h239q0 4 0.5 7.5t0.5 7.5z" glyph-name="uni20B1" horiz-adv-x="726" unicode="₱"/><glyph d="M395 -16q-78 0 -146 29.5t-118.5 80t-79.5 119t-29 146.5t29 146t79.5 119t118.5 80.5t146 29.5t146 -29.5t119 -80.5t80 -119t29 -146t-29 -146.5t-80 -119t-119 -80t-146 -29.5zM395 88q56 0 105 21.5t85 58t57 86t21 105.5t-21 105.5t-57 86t-85 58t-105 21.5 q-57 0 -105.5 -21.5t-84 -58t-55.5 -86t-20 -105.5t20 -105.5t55.5 -86t84 -58t105.5 -21.5zM253 549h184q30 0 57 -11.5t47 -31.5t31.5 -47t11.5 -58q0 -30 -11 -57t-30.5 -47.5t-46 -32t-58.5 -11.5h-72v-88h-113v384zM366 455v-108h52q23 0 38.5 16.5t15.5 37.5 t-15.5 37.5t-38.5 16.5h-52z" glyph-name="published" horiz-adv-x="790" unicode="℗"/><glyph d="M272 730h91l70 -92l75 92h83v-290h-96v141l-64 -72l-63 72v-141h-96v290zM136 433q-42 0 -72.5 15.5t-50.5 43.5l82 52q5 -11 17.5 -20t23.5 -9q8 0 14 4.5t6 10.5q0 11 -21 15t-45.5 13t-45.5 27.5t-21 58.5q0 39 32 65.5t83 26.5q36 0 63.5 -15.5t44.5 -38.5l-73 -46 q-7 11 -15.5 17.5t-19.5 6.5q-22 0 -22 -13q0 -6 21 -10.5t45.5 -14.5t45.5 -30t21 -56q0 -47 -31 -75t-82 -28z" glyph-name="servicemark" horiz-adv-x="627" unicode="℠"/><glyph d="M295 730h91l70 -91l75 91h83v-290h-96v141l-64 -72l-63 72v-141h-96v290zM99 641h-73v89h239v-89h-71v-201h-95v201z" glyph-name="trademark" horiz-adv-x="650" unicode="™"/><glyph d="M612 730h156l-527 -730h-156zM717 -6q-43 0 -84 12.5t-69 40.5l85 77q27 -28 61 -28q20 0 32.5 9.5t12.5 26.5t-16.5 25t-42.5 8h-44v98h42q25 0 38.5 9.5t13.5 26.5q0 31 -43 31q-16 0 -30 -7.5t-22 -20.5l-80 69q25 27 62.5 42t73.5 15q70 0 113.5 -33.5t43.5 -91.5 q0 -50 -42 -83q25 -15 38.5 -38t13.5 -53q0 -28 -11 -53t-31.5 -43t-49.5 -28.5t-65 -10.5zM14 412h81v166q-11 -14 -27 -20t-36 -6h-6v107h3q21 0 34.5 7t21.5 17.5t11 23t3 23.5h109v-318h78v-104h-272v104z" glyph-name="uni2153" horiz-adv-x="884" unicode="⅓"/><glyph d="M641 730h156l-527 -730h-156zM14 391q0 32 10.5 55.5t27 41.5t37 31.5t40.5 23.5q30 17 52.5 31t22.5 33q0 13 -10.5 22.5t-30.5 9.5q-23 0 -38.5 -17t-23.5 -37l-97 50q23 47 63 74t98 27q69 0 111.5 -36t42.5 -92q0 -30 -11 -53t-28 -40t-38 -30t-41 -23 q-26 -14 -45 -25.5t-21 -24.5h181v-104h-302v83zM746 -6q-43 0 -84 12.5t-69 40.5l85 77q27 -28 61 -28q20 0 32.5 9.5t12.5 26.5t-16.5 25t-42.5 8h-44v98h42q25 0 38.5 9.5t13.5 26.5q0 31 -43 31q-16 0 -30 -7.5t-22 -20.5l-80 69q25 27 62.5 42t73.5 15 q70 0 113.5 -33.5t43.5 -91.5q0 -50 -42 -83q25 -15 38.5 -38t13.5 -53q0 -28 -11 -53t-31.5 -43t-49.5 -28.5t-65 -10.5z" glyph-name="uni2154" horiz-adv-x="913" unicode="⅔"/><glyph d="M612 730h156l-527 -730h-156zM684 -6q-52 0 -91.5 21t-60.5 57l108 57q13 -29 44 -29q19 0 30.5 11.5t11.5 30.5q0 18 -12 29t-32 11q-14 0 -26 -8t-17 -19l-102 35l32 232h242v-103h-155l-7 -45q10 4 22 6.5t27 2.5q63 0 101 -37t38 -104q0 -33 -11.5 -60.5t-32 -47 t-48.5 -30t-61 -10.5zM14 412h81v166q-11 -14 -27 -20t-36 -6h-6v107h3q21 0 34.5 7t21.5 17.5t11 23t3 23.5h109v-318h78v-104h-272v104z" glyph-name="uni2155" horiz-adv-x="847" unicode="⅕"/><glyph d="M641 730h156l-527 -730h-156zM14 391q0 32 10.5 55.5t27 41.5t37 31.5t40.5 23.5q30 17 52.5 31t22.5 33q0 13 -10.5 22.5t-30.5 9.5q-23 0 -38.5 -17t-23.5 -37l-97 50q23 47 63 74t98 27q69 0 111.5 -36t42.5 -92q0 -30 -11 -53t-28 -40t-38 -30t-41 -23 q-26 -14 -45 -25.5t-21 -24.5h181v-104h-302v83zM713 -6q-52 0 -91.5 21t-60.5 57l108 57q13 -29 44 -29q19 0 30.5 11.5t11.5 30.5q0 18 -12 29t-32 11q-14 0 -26 -8t-17 -19l-102 35l32 232h242v-103h-155l-7 -45q10 4 22 6.5t27 2.5q63 0 101 -37t38 -104 q0 -33 -11.5 -60.5t-32 -47t-48.5 -30t-61 -10.5z" glyph-name="uni2156" horiz-adv-x="877" unicode="⅖"/><glyph d="M619 730h156l-527 -730h-156zM691 -6q-52 0 -91.5 21t-60.5 57l108 57q13 -29 44 -29q19 0 30.5 11.5t11.5 30.5q0 18 -12 29t-32 11q-14 0 -26 -8t-17 -19l-102 35l32 232h242v-103h-155l-7 -45q10 4 22 6.5t27 2.5q63 0 101 -37t38 -104q0 -33 -11.5 -60.5t-32 -47 t-48.5 -30t-61 -10.5zM158 302q-43 0 -84 12.5t-69 40.5l85 77q27 -28 61 -28q20 0 32.5 9.5t12.5 26.5t-16.5 25t-42.5 8h-44v98h42q25 0 38.5 9.5t13.5 26.5q0 31 -43 31q-16 0 -30 -7.5t-22 -20.5l-80 69q25 27 62.5 42t73.5 15q70 0 113.5 -33.5t43.5 -91.5 q0 -50 -42 -83q25 -15 38.5 -38t13.5 -53q0 -28 -11 -53t-31.5 -43t-49.5 -28.5t-65 -10.5z" glyph-name="uni2157" horiz-adv-x="854" unicode="⅗"/><glyph d="M612 730h156l-527 -730h-156zM685 -6q-52 0 -91.5 21t-60.5 57l108 57q13 -29 44 -29q19 0 30.5 11.5t11.5 30.5q0 18 -12 29t-32 11q-14 0 -26 -8t-17 -19l-102 35l32 232h242v-103h-155l-7 -45q10 4 22 6.5t27 2.5q63 0 101 -37t38 -104q0 -33 -11.5 -60.5t-32 -47 t-48.5 -30t-61 -10.5zM183 392h-169v99l168 239h105v-243h62v-95h-62v-84h-104v84zM183 487v77l-53 -77h53z" glyph-name="uni2158" horiz-adv-x="848" unicode="⅘"/><glyph d="M612 730h156l-527 -730h-156zM705 -6q-36 0 -66.5 12t-52.5 33t-34 49.5t-12 61.5q0 32 12.5 64.5t28.5 58.5l94 149h129l-76 -119q30 -1 56 -12t45 -31t30 -47.5t11 -62.5q0 -33 -12 -61.5t-34 -49.5t-52.5 -33t-66.5 -12zM14 412h81v166q-11 -14 -27 -20t-36 -6h-6v107 h3q21 0 34.5 7t21.5 17.5t11 23t3 23.5h109v-318h78v-104h-272v104zM705 98q23 0 39 15.5t16 38.5q0 22 -16 37.5t-39 15.5t-37.5 -15.5t-14.5 -38.5q0 -22 14.5 -37.5t37.5 -15.5z" glyph-name="uni2159" horiz-adv-x="881" unicode="⅙"/><glyph d="M610 730h156l-527 -730h-156zM702 -6q-36 0 -66.5 12t-52.5 33t-34 49.5t-12 61.5q0 32 12.5 64.5t28.5 58.5l94 149h129l-76 -119q30 -1 56 -12t45 -31t30 -47.5t11 -62.5q0 -33 -12 -61.5t-34 -49.5t-52.5 -33t-66.5 -12zM157 302q-52 0 -91.5 21t-60.5 57l108 57 q13 -29 44 -29q19 0 30.5 11.5t11.5 30.5q0 18 -12 29t-32 11q-14 0 -26 -8t-17 -19l-102 35l32 232h242v-103h-155l-7 -45q10 4 22 6.5t27 2.5q63 0 101 -37t38 -104q0 -33 -11.5 -60.5t-32 -47t-48.5 -30t-61 -10.5zM702 98q23 0 39 15.5t16 38.5q0 22 -16 37.5t-39 15.5 t-37.5 -15.5t-14.5 -38.5q0 -22 14.5 -37.5t37.5 -15.5z" glyph-name="uni215A" horiz-adv-x="878" unicode="⅚"/><glyph d="M612 730h156l-527 -730h-156zM691 -6q-32 0 -59 9.5t-47 27.5t-31.5 44t-11.5 59q0 26 10.5 49.5t29.5 41.5q-28 31 -28 76q0 61 38.5 94t98.5 33q61 0 100 -33t39 -94q0 -22 -7 -41t-19 -34q17 -17 27 -40t10 -52q0 -33 -11.5 -59t-31.5 -44t-47.5 -27.5t-59.5 -9.5z M14 412h81v166q-11 -14 -27 -20t-36 -6h-6v107h3q21 0 34.5 7t21.5 17.5t11 23t3 23.5h109v-318h78v-104h-272v104zM691 90q20 0 32.5 12.5t12.5 31.5q0 17 -12.5 29.5t-32.5 12.5t-32 -12.5t-12 -29.5q0 -19 12 -31.5t32 -12.5zM691 266q18 0 28 10t10 25q0 14 -9.5 24.5 t-27.5 10.5t-27.5 -10.5t-9.5 -24.5q0 -15 9.5 -25t26.5 -10z" glyph-name="uni215B" horiz-adv-x="856" unicode="⅛"/><glyph d="M619 730h156l-527 -730h-156zM698 -6q-32 0 -59 9.5t-47 27.5t-31.5 44t-11.5 59q0 26 10.5 49.5t29.5 41.5q-28 31 -28 76q0 61 38.5 94t98.5 33q61 0 100 -33t39 -94q0 -22 -7 -41t-19 -34q17 -17 27 -40t10 -52q0 -33 -11.5 -59t-31.5 -44t-47.5 -27.5t-59.5 -9.5z M158 302q-43 0 -84 12.5t-69 40.5l85 77q27 -28 61 -28q20 0 32.5 9.5t12.5 26.5t-16.5 25t-42.5 8h-44v98h42q25 0 38.5 9.5t13.5 26.5q0 31 -43 31q-16 0 -30 -7.5t-22 -20.5l-80 69q25 27 62.5 42t73.5 15q70 0 113.5 -33.5t43.5 -91.5q0 -50 -42 -83q25 -15 38.5 -38 t13.5 -53q0 -28 -11 -53t-31.5 -43t-49.5 -28.5t-65 -10.5zM698 90q20 0 32.5 12.5t12.5 31.5q0 17 -12.5 29.5t-32.5 12.5t-32 -12.5t-12 -29.5q0 -19 12 -31.5t32 -12.5zM698 266q18 0 28 10t10 25q0 14 -9.5 24.5t-27.5 10.5t-27.5 -10.5t-9.5 -24.5q0 -15 9.5 -25 t26.5 -10z" glyph-name="uni215C" horiz-adv-x="862" unicode="⅜"/><glyph d="M610 730h156l-527 -730h-156zM688 -6q-32 0 -59 9.5t-47 27.5t-31.5 44t-11.5 59q0 26 10.5 49.5t29.5 41.5q-28 31 -28 76q0 61 38.5 94t98.5 33q61 0 100 -33t39 -94q0 -22 -7 -41t-19 -34q17 -17 27 -40t10 -52q0 -33 -11.5 -59t-31.5 -44t-47.5 -27.5t-59.5 -9.5z M157 302q-52 0 -91.5 21t-60.5 57l108 57q13 -29 44 -29q19 0 30.5 11.5t11.5 30.5q0 18 -12 29t-32 11q-14 0 -26 -8t-17 -19l-102 35l32 232h242v-103h-155l-7 -45q10 4 22 6.5t27 2.5q63 0 101 -37t38 -104q0 -33 -11.5 -60.5t-32 -47t-48.5 -30t-61 -10.5zM688 90 q20 0 32.5 12.5t12.5 31.5q0 17 -12.5 29.5t-32.5 12.5t-32 -12.5t-12 -29.5q0 -19 12 -31.5t32 -12.5zM688 266q18 0 28 10t10 25q0 14 -9.5 24.5t-27.5 10.5t-27.5 -10.5t-9.5 -24.5q0 -15 9.5 -25t26.5 -10z" glyph-name="uni215D" horiz-adv-x="853" unicode="⅝"/><glyph d="M584 730h156l-527 -730h-156zM662 -6q-32 0 -59 9.5t-47 27.5t-31.5 44t-11.5 59q0 26 10.5 49.5t29.5 41.5q-28 31 -28 76q0 61 38.5 94t98.5 33q61 0 100 -33t39 -94q0 -22 -7 -41t-19 -34q17 -17 27 -40t10 -52q0 -33 -11.5 -59t-31.5 -44t-47.5 -27.5t-59.5 -9.5z M176 626h-162v104h279v-98l-144 -324h-121zM662 90q20 0 32.5 12.5t12.5 31.5q0 17 -12.5 29.5t-32.5 12.5t-32 -12.5t-12 -29.5q0 -19 12 -31.5t32 -12.5zM662 266q18 0 28 10t10 25q0 14 -9.5 24.5t-27.5 10.5t-27.5 -10.5t-9.5 -24.5q0 -15 9.5 -25t26.5 -10z" glyph-name="uni215E" horiz-adv-x="827" unicode="⅞"/><glyph d="M612 730h156l-527 -730h-156zM14 412h81v166q-11 -14 -27 -20t-36 -6h-6v107h3q21 0 34.5 7t21.5 17.5t11 23t3 23.5h109v-318h78v-104h-272v104z" glyph-name="uni215F" horiz-adv-x="779" unicode="⅟"/><glyph d="M309 66q-37 79 -99.5 150t-136.5 118v57q37 25 72 60.5t64 73.5t50 75t29 65l122 -65q-20 -53 -54.5 -95.5t-73.5 -74.5h523v-130h-522q40 -26 75 -68t61 -90z" glyph-name="arrowleft" horiz-adv-x="896" unicode="←"/><glyph d="M374 522q-32 -39 -75 -73.5t-95 -53.5l-64 121q28 8 64.5 29t74.5 50t73.5 64t60.5 72h53q25 -37 60 -72t73 -64t74.5 -50t64.5 -29l-64 -121q-52 19 -94.5 53t-74.5 72v-520h-131v522z" glyph-name="arrowup" horiz-adv-x="896" unicode="↑"/><glyph d="M459 142q25 48 60.5 90t74.5 68h-521v130h523q-39 32 -73.5 74.5t-54.5 95.5l122 65q8 -28 29 -65t50 -75t64 -73.5t72 -60.5v-57q-74 -47 -136.5 -118t-99.5 -150z" glyph-name="arrowright" horiz-adv-x="896" unicode="→"/><glyph d="M412 -1q-25 37 -60 72t-73 64t-74.5 50t-64.5 29l64 122q52 -20 94.5 -54t74.5 -73v521h131v-522q32 39 74.5 73.5t95.5 54.5l64 -122q-28 -8 -64.5 -29t-74.5 -50t-73.5 -64t-60.5 -72h-53z" glyph-name="arrowdown" horiz-adv-x="896" unicode="↓"/><glyph d="M290 430q6 -51 0 -105t-30 -105l-131 40q14 26 25.5 66.5t18 88t6.5 97.5t-8 94l37 37q44 -9 93.5 -9t96.5 6.5t88 17.5t67 25l39 -131q-51 -23 -104.5 -29t-103.5 -1l368 -370l-92 -92z" glyph-name="uni2196" horiz-adv-x="896" unicode="↖"/><glyph d="M129 152l370 370q-51 -5 -105 1t-105 29l40 131q26 -14 66.5 -25t88 -17.5t97.5 -6.5t94 8l37 -37q-9 -44 -9 -94t6.5 -97t17.5 -87.5t25 -66.5l-131 -40q-23 51 -29 104.5t-1 104.5l-370 -369z" glyph-name="uni2197" horiz-adv-x="896" unicode="↗"/><glyph d="M704 127q-44 9 -94 9t-97 -6t-87.5 -17.5t-66.5 -25.5l-40 131q50 23 103.5 29t104.5 1l-368 370l92 92l370 -370q-5 51 1 105t29 105l131 -40q-14 -25 -25.5 -66t-18 -88.5t-6.5 -97.5t8 -94z" glyph-name="uni2198" horiz-adv-x="896" unicode="↘"/><glyph d="M554 58q-26 14 -67 25.5t-88 18t-97 6.5t-94 -8l-37 37q9 44 9 93.5t-6.5 97t-18 88.5t-25.5 66l131 39q23 -51 29 -105t1 -104l370 369l92 -92l-370 -369q51 5 105 -1.5t105 -29.5z" glyph-name="uni2199" horiz-adv-x="896" unicode="↙"/><glyph d="M279 -10q-52 0 -98.5 19.5t-81.5 54t-56 82t-21 103.5q0 54 18.5 99.5t51.5 78.5t77.5 51.5t95.5 18.5q27 0 49 -5.5t39 -15.5q-42 57 -112 118t-179 136h200q80 -62 133 -123t85 -120t45.5 -117t13.5 -114t-20 -104.5t-55 -84.5t-82.5 -56.5t-102.5 -20.5zM280 117 q26 0 49.5 10.5t41 28.5t28 42t10.5 51t-10 51.5t-27 42.5t-40.5 28.5t-50.5 10.5q-25 0 -48.5 -10t-41 -27.5t-28 -42t-10.5 -53.5q0 -28 10.5 -52.5t27.5 -42t40.5 -27.5t48.5 -10z" glyph-name="partialdiff" horiz-adv-x="563" unicode="∂"/><glyph d="M20 0l429 742l428 -742h-857zM246 130h406l-203 352z" glyph-name="Delta" horiz-adv-x="897" unicode="∆"/><glyph d="M36 730h706v-130h-121v-600h-136v600h-191v-600h-136v600h-122v130z" glyph-name="product" horiz-adv-x="779" unicode="∏"/><glyph d="M35 146l220 228l-213 226v130h486v-130h-312l213 -226l-234 -244h333v-130h-493v146z" glyph-name="summation" horiz-adv-x="563" unicode="∑"/><glyph d="M36 422h370v-115h-370v115z" glyph-name="minus" horiz-adv-x="442" unicode="−"/><glyph d="M133 381h-88v119h181l126 -338l258 568h145l-343 -730h-133z" glyph-name="radical" horiz-adv-x="789" unicode="√"/><glyph d="M249 206q-37 0 -69.5 14t-56.5 38t-38 56.5t-14 69.5t14 69.5t38 57t56.5 38.5t69.5 14q59 0 107.5 -30.5t90.5 -70.5q42 40 90 70.5t106 30.5q37 0 69.5 -14t57 -38.5t38.5 -57t14 -69.5t-14 -69.5t-38.5 -56.5t-57 -38t-69.5 -14q-58 0 -105.5 30t-90.5 70 q-42 -40 -90.5 -70t-107.5 -30zM249 319q30 0 59.5 18.5t58.5 46.5q-29 28 -58.5 46.5t-59.5 18.5q-26 0 -45.5 -19.5t-19.5 -45.5t19.5 -45.5t45.5 -19.5zM643 319q26 0 45.5 19.5t19.5 45.5t-19.5 45.5t-45.5 19.5q-29 0 -57.5 -18.5t-58.5 -46.5q30 -28 58.5 -46.5 t57.5 -18.5z" glyph-name="infinity" horiz-adv-x="893" unicode="∞"/><glyph d="M15 -90q32 0 51 3t28.5 13t12.5 27.5t3 46.5v514q0 61 11 102.5t36.5 66.5t67.5 36t104 11h11v-125q-32 0 -51 -3t-28.5 -13t-12.5 -28t-3 -48v-512q0 -61 -11 -102t-36.5 -66.5t-67.5 -36.5t-104 -11h-11v125z" glyph-name="integral" horiz-adv-x="364" unicode="∫"/><glyph d="M36 499q22 11 44 18.5t53 7.5q23 0 46 -6t45.5 -13t44.5 -13t41 -6q29 0 49.5 7t46.5 18v-115q-21 -12 -42 -18.5t-54 -6.5q-21 0 -44 6t-46.5 13l-45.5 13t-41 6q-30 0 -52 -7.5t-45 -18.5v115zM36 332q22 11 42.5 19t51.5 8q23 0 46.5 -6l47.5 -12.5l46.5 -12.5 t41.5 -6q29 0 48.5 6t45.5 17v-115q-21 -12 -41 -17.5t-53 -5.5q-21 0 -45 6l-48 12.5l-47 12.5t-42 6q-30 0 -50.5 -8t-43.5 -19v115z" glyph-name="approxequal" horiz-adv-x="441" unicode="≈"/><glyph d="M331 504h75v-115h-126l-24 -52h150v-115h-201l-31 -69h-95l30 69h-73v115h123l22 52h-145v115h195l31 70h101z" glyph-name="notequal" horiz-adv-x="442" unicode="≠"/><glyph d="M36 420h370v-115h-370v115zM36 253h370v-114h-370v114zM36 587h370v-115h-370v115z" glyph-name="equivalence" horiz-adv-x="442" unicode="≡"/><glyph d="M35 395v114l370 134v-119l-223 -72l223 -73v-118zM35 229h370v-115h-370v115z" glyph-name="lessequal" horiz-adv-x="442" unicode="≤"/><glyph d="M35 379l223 73l-223 72v119l370 -134v-114l-370 -134v118zM35 229h370v-115h-370v115z" glyph-name="greaterequal" horiz-adv-x="442" unicode="≥"/><glyph d="M100 730h726v-730h-726v730zM236 130h454v470h-454v-470zM260 240l123 127l-124 129l80 78l122 -126l124 127l80 -78l-126 -130l125 -128l-80 -78l-123 126l-121 -125z" glyph-name="squaremultiply" horiz-adv-x="926" unicode="⊠"/><glyph d="M100 0v427l337 323l337 -323v-427h-674z" glyph-name="house" horiz-adv-x="874" unicode="⌂"/><glyph d="M100 730h726v-730h-726v730z" glyph-name="blacksquare" horiz-adv-x="926" unicode="■"/><glyph d="M100 730h726v-730h-726v730z" glyph-name="blacksquare" horiz-adv-x="926" unicode=""/><glyph d="M100 730h726v-730h-726v730zM236 130h454v470h-454v-470z" glyph-name="whitesquare" horiz-adv-x="926" unicode="□"/><glyph d="M100 500h500v-500h-500v500z" glyph-name="blacksmallsquare" horiz-adv-x="700" unicode="▪"/><glyph d="M100 500h500v-500h-500v500zM234 133h232v234h-232v-234z" glyph-name="whitesmallsquare" horiz-adv-x="700" unicode="▫"/><glyph d="M20 0l429 742l428 -742h-857z" glyph-name="triagup" horiz-adv-x="897" unicode="▲"/><glyph d="M100 800l742 -428l-742 -429v857z" glyph-name="triagrt" horiz-adv-x="897" unicode="►"/><glyph d="M877 730l-428 -742l-429 742h857z" glyph-name="triagdn" horiz-adv-x="897" unicode="▼"/><glyph d="M797 -57l-742 429l742 428v-857z" glyph-name="triaglf" horiz-adv-x="897" unicode="◄"/><glyph d="M33 366l380 380l382 -382l-380 -380zM416 159l203 203l-208 208l-203 -203z" glyph-name="lozenge" horiz-adv-x="843" unicode="◊"/><glyph d="M463 -10q-78 0 -146 29.5t-118.5 80t-79.5 119t-29 146.5t29 146t79.5 119t118.5 80.5t146 29.5t146 -29.5t119 -80.5t80 -119t29 -146t-29 -146.5t-80 -119t-119 -80t-146 -29.5zM463 124q50 0 93.5 19t76 51.5t51 76.5t18.5 94t-18.5 94t-51 76.5t-76 51.5t-93.5 19 t-93.5 -19t-75.5 -51.5t-50.5 -76.5t-18.5 -94t18.5 -94t50.5 -76.5t75.5 -51.5t93.5 -19z" glyph-name="whitecircle" horiz-adv-x="927" unicode="○"/><glyph d="M463 -10q-78 0 -146 29.5t-118.5 80t-79.5 119t-29 146.5t29 146t79.5 119t118.5 80.5t146 29.5t146 -29.5t119 -80.5t80 -119t29 -146t-29 -146.5t-80 -119t-119 -80t-146 -29.5zM463 124q50 0 93.5 19t76 51.5t51 76.5t18.5 94t-18.5 94t-51 76.5t-76 51.5t-93.5 19 t-93.5 -19t-75.5 -51.5t-50.5 -76.5t-18.5 -94t18.5 -94t50.5 -76.5t75.5 -51.5t93.5 -19z" glyph-name="whitecircle" horiz-adv-x="927" unicode="◯"/><glyph d="M0 20h927v-20h-927v20z" glyph-name="bullseye" horiz-adv-x="927" unicode="◎"/><glyph d="M463 -10q-78 0 -146 29.5t-118.5 80t-79.5 119t-29 146.5t29 146t79.5 119t118.5 80.5t146 29.5t146 -29.5t119 -80.5t80 -119t29 -146t-29 -146.5t-80 -119t-119 -80t-146 -29.5z" glyph-name="blackcircle" horiz-adv-x="927" unicode="●"/><glyph d="M267 -73l-222 828l828 -222z" glyph-name="uni25E2" horiz-adv-x="897" unicode="◢"/><glyph d="M26 533l828 222l-222 -828z" glyph-name="uni25E3" horiz-adv-x="897" unicode="◣"/><glyph d="M29 168l606 606l222 -828z" glyph-name="uni25E4" horiz-adv-x="897" unicode="◤"/><glyph d="M44 -58l223 828l605 -607z" glyph-name="uni25E5" horiz-adv-x="897" unicode="◥"/><glyph d="M634 85l-187 135l-186 -135l72 219l-186 135l229 -1l72 218l71 -218l230 -1l-187 -134z" glyph-name="uni2605" horiz-adv-x="900" unicode="★"/><glyph d="M100 500h500v-500h-500v500zM218 117h264v266h-264v-266zM350 314l56 57l65 -65l-56 -57l55 -55l-65 -65l-55 54l-54 -55l-65 65l54 55l-55 56l65 65z" glyph-name="ballotboxwithx" horiz-adv-x="700" unicode="☒"/><glyph d="M287 365q0 36 14 67.5t37.5 55t55 37.5t67.5 14t67.5 -14t55 -37.5t37.5 -55t14 -67.5t-14 -67.5t-37.5 -55t-55 -37.5t-67.5 -14t-67.5 14t-55 37.5t-37.5 55t-14 67.5zM434 719h54l-17 -142h-20zM488 13h-54l17 142h20zM108 339v54l142 -17v-20zM814 393v-54l-142 17 v20zM140 519l28 47l115 -87l-10 -15zM782 213l-28 -47l-115 87l10 15zM261 659l47 28l55 -133l-15 -10zM661 73l-47 -28l-55 133l15 10zM614 687l47 -28l-87 -115l-15 10zM308 45l-47 28l87 115l15 -10zM752 566l30 -46l-133 -56l-10 16zM170 166l-30 46l133 56l10 -16z" glyph-name="uni263C" horiz-adv-x="928" unicode="☼"/><glyph d="M534 616q-49 0 -93 -20t-76 -54t-51 -79.5t-19 -97.5t19 -97.5t51 -79.5t76 -54t93 -20q18 0 36 3.5t35 8.5q-38 -27 -83.5 -42t-94.5 -15q-61 0 -115 23.5t-94 63.5t-63.5 94t-23.5 115t23.5 115t63.5 94t94 63.5t115 23.5q49 0 94.5 -15t83.5 -42q-17 5 -35 8.5 t-36 3.5z" glyph-name="uni263E" horiz-adv-x="787" unicode="☾"/><glyph d="M335 0l26 50t31 69t26 82t11 89q-9 -26 -24 -50.5t-36 -43.5t-48.5 -30.5t-61.5 -11.5q-35 0 -66 12.5t-54.5 34t-37 50.5t-13.5 61q0 43 13.5 80.5t42 75t73 78t106.5 89.5l140 112h1l140 -112q62 -49 105.5 -89.5t70.5 -78t39.5 -75t12.5 -80.5q0 -32 -12.5 -60.5 t-34 -50t-50 -34t-60.5 -12.5q-37 0 -66 11.5t-51.5 30t-38.5 43t-25 50.5q0 -45 12 -89t28 -82t33 -69l27 -50h-259z" glyph-name="spade" horiz-adv-x="920" unicode="♠"/><glyph d="M336 0l22.5 43t27.5 58t25.5 69.5t15.5 77.5q-21 -52 -65 -85t-102 -33q-37 0 -69 14t-56 38t-38 56t-14 69t14 69t38 56t56 38t69 14q11 0 21.5 -2t20.5 -5q-19 41 -19 87q0 36 13.5 68t37.5 56t56 38t68 14t68 -14t56 -38t38 -56t14 -68q0 -45 -19 -88q22 8 46 8 q37 0 69 -14t56 -38t37.5 -56t13.5 -69t-14 -69t-38 -56t-56 -38t-69 -14q-58 0 -100.5 33t-62.5 84q5 -39 17.5 -76.5t27.5 -69.5t29.5 -58l23.5 -43h-259z" glyph-name="club" horiz-adv-x="920" unicode="♣"/><glyph d="M89 550q0 39 14 73.5t39 60.5t58 41t72 15q38 0 70.5 -12.5t56.5 -34t39 -51t19 -63.5q5 34 19.5 63.5t38.5 51t56 34t71 12.5t73 -15t60 -41t41 -60.5t15 -73.5q0 -43 -13 -86.5t-41 -92t-72 -105.5t-106 -126l-142 -157l-141 157q-62 69 -105.5 126t-70.5 105.5t-39 92 t-12 86.5z" glyph-name="heart" horiz-adv-x="920" unicode="♥"/><glyph d="M460 791l327 -401l-327 -400l-327 400z" glyph-name="diamond" horiz-adv-x="920" unicode="♦"/><glyph d="M822 244l-91 -157q-14 -22 -29.5 -37t-52.5 -15h-54v-47l-106 128l106 127v-46h136q21 0 37.5 7.5t28.5 17.5q14 10 24 24zM182 111l-90 158q-12 23 -17.5 44t13.5 52l27 46l-40 23l164 29l55 -156l-38 23l-33 -57l-24 -41.5t-11 -19.5q-11 -18 -12.5 -36t0.5 -32 q2 -17 8 -33h-2zM389 729h182q26 -1 47 -6.5t39 -37.5l26 -46l41 23l-58 -157l-162 30l38 22l-67 118q-11 18 -25.5 28.5t-28.5 16.5q-16 6 -32 8v1zM260 670q4 6 12.5 14.5t19.5 14.5q21 12 45 13.5t46 -4.5t39.5 -17t24.5 -25l-109 -189l-141 81zM302 35q-8 0 -19.5 2.5 t-22.5 9.5q-21 12 -34.5 32.5t-19.5 42t-4.5 42t9.5 33.5h218v-162h-127zM832 381q4 -6 6.5 -17t2.5 -24q0 -24 -10.5 -45.5t-27 -37.5t-34.5 -25.5t-33 -9.5l-109 189l140 80z" glyph-name="uni267B" horiz-adv-x="921" unicode="♻"/><glyph d="M837 366q0 -78 -29.5 -146.5t-80.5 -119t-119 -80t-146 -29.5t-147 29.5t-120 80t-80.5 119t-29.5 146.5t29.5 146.5t80.5 120t120 81t147 29.5t146 -29.5t119 -81t80.5 -120t29.5 -146.5zM255 520l109 -63l84 146q-6 11 -19 19.5t-30.5 13t-36 3.5t-34.5 -10 q-8 -5 -15 -11.5t-9 -11.5zM399 651q13 -2 26 -7q11 -4 22 -12t19 -22l53 -91l-30 -18l126 -23l44 122l-31 -18l-21 36q-14 24 -30 29t-37 5h-141v-1zM431 114v126h-170q-6 -10 -7 -26t4 -33t15.5 -32.5t26.5 -25.5q8 -5 17 -7t15 -2h99zM244 173q-5 12 -6 25q-2 12 -0.5 26 t9.5 28l53 91l30 -18l-43 121l-127 -22l31 -18l-21 -36q-15 -25 -10.5 -41t13.5 -34l70 -122h1zM697 468l-110 -63l85 -147q12 0 26 7.5t27 20t21 29.5t8 36q0 10 -2.5 18.5t-5.5 13.5zM738 277q-8 -10 -18 -18t-22.5 -13.5t-29.5 -5.5h-105v35l-83 -98l83 -99v36h41 q29 0 41.5 11.5t22.5 28.5l71 122z" glyph-name="uni267C" horiz-adv-x="921" unicode="♼"/><glyph d="M837 366q0 -78 -29.5 -146.5t-80.5 -119t-119 -80t-146 -29.5t-147 29.5t-120 80t-80.5 119t-29.5 146.5t29.5 146.5t80.5 120t120 81t147 29.5t146 -29.5t119 -81t80.5 -120t29.5 -146.5zM818 366q0 74 -28 139.5t-76 114t-113 76.5t-139 28q-75 0 -140 -28t-114 -76.5 t-77 -114t-28 -139.5t28 -139t77 -113.5t114 -76.5t140 -28q74 0 139 28t113 76.5t76 113.5t28 139zM304 606q2 5 9 11.5t15 11.5q16 9 34.5 10t36 -3.5t30.5 -13t19 -19.5l-84 -146l-109 63zM399 652h141q21 0 37 -5t30 -29l21 -36l31 18l-44 -122l-126 23l30 18l-53 91 q-8 14 -19.5 22t-21.5 12q-13 5 -26 7v1zM332 114q-6 0 -15 2t-17 7q-16 10 -26.5 25.5t-15.5 32.5t-4 33t7 26h170v-126h-99zM243 173l-70 122q-9 18 -13.5 34t10.5 41l21 36l-31 18l127 22l43 -121l-30 18l-53 -91q-8 -14 -9.5 -28t0.5 -26q1 -13 6 -25h-1zM746 383 q3 -5 5.5 -13.5t2.5 -18.5q0 -19 -8 -36t-21 -29.5t-27 -20t-26 -7.5l-85 147l110 63zM739 276l-71 -122q-10 -17 -22.5 -28.5t-41.5 -11.5h-41v-36l-83 99l83 98v-35h105q17 0 29.5 6t22.5 13q10 8 18 18z" glyph-name="uni267D" horiz-adv-x="921" unicode="♽"/><glyph d="M349 -10q-54 0 -101 20.5t-82.5 55.5t-55.5 82.5t-20 101.5t20 101.5t55.5 82.5t82.5 55.5t101 20.5t101 -20.5t82.5 -55.5t55.5 -82.5t20 -101.5t-20 -101.5t-55.5 -82.5t-82.5 -55.5t-101 -20.5zM349 117q27 0 50.5 10.5t41 28.5t27.5 42.5t10 51.5t-10 51.5 t-27.5 42.5t-41 28.5t-50.5 10.5t-50.5 -10.5t-40.5 -28.5t-27 -42.5t-10 -51.5t10 -51.5t27 -42.5t40.5 -28.5t50.5 -10.5z" glyph-name="mediumwhitecircle" horiz-adv-x="698" unicode="⚪"/><glyph d="M349 -10q-54 0 -101 20.5t-82.5 55.5t-55.5 82.5t-20 101.5t20 101.5t55.5 82.5t82.5 55.5t101 20.5t101 -20.5t82.5 -55.5t55.5 -82.5t20 -101.5t-20 -101.5t-55.5 -82.5t-82.5 -55.5t-101 -20.5z" glyph-name="mediumblackcircle" horiz-adv-x="698" unicode="⚫"/><glyph d="M11 250l227 480h144l-228 -480l228 -480h-144z" glyph-name="anglebracketleft" horiz-adv-x="392" unicode="〈"/><glyph d="M11 -230l228 480l-228 480h144l227 -480l-227 -480h-144z" glyph-name="anglebracketright" horiz-adv-x="392" unicode="〉"/><glyph d="M40 0v730h234q66 0 117 -18.5t86 -52t53.5 -81t18.5 -104.5q0 -66 -30.5 -123t-90.5 -89l144 -262h-158l-113 220h-122v-220h-139zM262 348q42 0 70.5 10.5t46 28.5t24.5 42t7 51q0 55 -35 87.5t-113 32.5h-83v-252h83z" glyph-name="R.alt" horiz-adv-x="583" unicode=""/><glyph d="M40 0v730h234q66 0 117 -18.5t86 -52t53.5 -81t18.5 -104.5q0 -66 -30.5 -123t-90.5 -89l144 -262h-158l-113 220h-122v-220h-139zM262 348q42 0 70.5 10.5t46 28.5t24.5 42t7 51q0 55 -35 87.5t-113 32.5h-83v-252h83zM311 950h126l-150 -170h-91z" glyph-name="Racute.alt" horiz-adv-x="583" unicode=""/><glyph d="M40 0v730h234q66 0 117 -18.5t86 -52t53.5 -81t18.5 -104.5q0 -66 -30.5 -123t-90.5 -89l144 -262h-158l-113 220h-122v-220h-139zM262 348q42 0 70.5 10.5t46 28.5t24.5 42t7 51q0 55 -35 87.5t-113 32.5h-83v-252h83zM131 950h102l59 -89l59 89h102l-119 -170h-84z" glyph-name="Rcaron.alt" horiz-adv-x="583" unicode=""/><glyph d="M40 0v730h234q66 0 117 -18.5t86 -52t53.5 -81t18.5 -104.5q0 -66 -30.5 -123t-90.5 -89l144 -262h-158l-113 220h-122v-220h-139zM262 348q42 0 70.5 10.5t46 28.5t24.5 42t7 51q0 55 -35 87.5t-113 32.5h-83v-252h83zM207 -281l34 204h119l-70 -204h-83z" glyph-name="Rcommaaccent.alt" horiz-adv-x="583" unicode=""/><glyph d="M170 435q-31 0 -58.5 12t-47.5 32t-32 47.5t-12 58.5q0 32 12 59.5t32 47.5t47.5 32t58.5 12q49 0 85 -25.5t53 -64.5l-86 -39q-6 17 -20 26.5t-31 9.5q-23 0 -39.5 -17t-16.5 -41q0 -23 16.5 -40t39.5 -17q18 0 31.5 9.5t19.5 25.5l87 -37q-17 -40 -53 -65.5t-86 -25.5z" glyph-name="cordinal" horiz-adv-x="324" unicode=""/><glyph d="M37 596h202q51 0 93 -17t71.5 -46.5t45.5 -69t16 -83.5q0 -45 -16 -85t-45.5 -70t-71.5 -47.5t-94 -17.5h-67v-160h-134v596zM171 473v-189h63q42 0 69 26.5t27 68.5t-27 68t-69 26h-63z" glyph-name="p.smcp" horiz-adv-x="486" unicode=""/><glyph d="M37 596h202q51 0 93 -17t71.5 -46.5t45.5 -69t16 -83.5q0 -45 -16 -85t-45.5 -70t-71.5 -47.5t-94 -17.5h-67v-160h-134v596zM171 473v-189h63q42 0 69 26.5t27 68.5t-27 68t-69 26h-63z" glyph-name="p.smcp" horiz-adv-x="486" unicode=""/><glyph d="M225 596h131l206 -596h-136l-31 93h-209l-31 -93h-135zM227 216h127l-63 189z" glyph-name="a.smcp" horiz-adv-x="581" unicode=""/><glyph d="M225 596h131l206 -596h-136l-31 93h-209l-31 -93h-135zM227 216h127l-63 189z" glyph-name="a.smcp" horiz-adv-x="581" unicode=""/><glyph d="M37 596h198q106 0 160.5 -42t54.5 -126q0 -40 -15.5 -68.5t-44.5 -47.5q38 -19 58 -51.5t20 -80.5q1 -92 -59.5 -136t-164.5 -44h-207v596zM171 243v-123h75q86 0 86 63q0 30 -18.5 45t-69.5 15h-73zM171 477v-111h69q42 0 59.5 16t17.5 42q0 27 -18 40t-59 13h-69z" glyph-name="b.smcp" horiz-adv-x="489" unicode=""/><glyph d="M37 596h198q106 0 160.5 -42t54.5 -126q0 -40 -15.5 -68.5t-44.5 -47.5q38 -19 58 -51.5t20 -80.5q1 -92 -59.5 -136t-164.5 -44h-207v596zM171 243v-123h75q86 0 86 63q0 30 -18.5 45t-69.5 15h-73zM171 477v-111h69q42 0 59.5 16t17.5 42q0 27 -18 40t-59 13h-69z" glyph-name="b.smcp" horiz-adv-x="489" unicode=""/><glyph d="M336 -8q-68 0 -125 24t-97.5 65.5t-63 97t-22.5 119.5q0 65 23 121t64.5 97t98 64.5t123.5 23.5q85 0 154.5 -40.5t108.5 -107.5l-115 -72q-21 40 -60 64.5t-89 24.5q-38 0 -70 -14t-54.5 -37.5t-35 -55.5t-12.5 -68t12.5 -67.5t35 -55.5t53.5 -37.5t68 -13.5 q55 0 93 27.5t58 72.5l124 -63q-38 -75 -107 -122t-165 -47z" glyph-name="c.smcp" horiz-adv-x="623" unicode=""/><glyph d="M336 -8q-68 0 -125 24t-97.5 65.5t-63 97t-22.5 119.5q0 65 23 121t64.5 97t98 64.5t123.5 23.5q85 0 154.5 -40.5t108.5 -107.5l-115 -72q-21 40 -60 64.5t-89 24.5q-38 0 -70 -14t-54.5 -37.5t-35 -55.5t-12.5 -68t12.5 -67.5t35 -55.5t53.5 -37.5t68 -13.5 q55 0 93 27.5t58 72.5l124 -63q-38 -75 -107 -122t-165 -47z" glyph-name="c.smcp" horiz-adv-x="623" unicode=""/><glyph d="M37 596h174q71 0 128.5 -23t98 -63t62.5 -94.5t22 -117.5q0 -64 -23 -118.5t-64 -94.5t-97.5 -62.5t-123.5 -22.5h-177v596zM170 472v-348h37q41 0 74.5 13.5t57 37t36.5 55t13 68.5t-12 69t-35 55t-58 36.5t-80 13.5h-33z" glyph-name="d.smcp" horiz-adv-x="550" unicode=""/><glyph d="M37 596h174q71 0 128.5 -23t98 -63t62.5 -94.5t22 -117.5q0 -64 -23 -118.5t-64 -94.5t-97.5 -62.5t-123.5 -22.5h-177v596zM170 472v-348h37q41 0 74.5 13.5t57 37t36.5 55t13 68.5t-12 69t-35 55t-58 36.5t-80 13.5h-33z" glyph-name="d.smcp" horiz-adv-x="550" unicode=""/><glyph d="M37 596h353v-125h-220v-109h220v-126h-220v-111h220v-125h-353v596z" glyph-name="e.smcp" horiz-adv-x="423" unicode=""/><glyph d="M37 596h353v-125h-220v-109h220v-126h-220v-111h220v-125h-353v596z" glyph-name="e.smcp" horiz-adv-x="423" unicode=""/><glyph d="M37 596h340v-125h-207v-109h207v-126h-207v-236h-133v596z" glyph-name="f.smcp" horiz-adv-x="408" unicode=""/><glyph d="M37 596h340v-125h-207v-109h207v-126h-207v-236h-133v596z" glyph-name="f.smcp" horiz-adv-x="408" unicode=""/><glyph d="M333 -8q-72 0 -129.5 24.5t-98 66.5t-62.5 97.5t-22 117.5q0 65 23 120.5t63.5 97t97 65t123.5 23.5q94 0 163 -41.5t107 -107.5l-117 -67q-23 42 -61.5 65t-90.5 23q-36 0 -68 -13.5t-55.5 -37.5t-37 -56.5t-13.5 -70.5q0 -39 13 -72t36.5 -56.5t55.5 -37t71 -13.5 q56 0 94 27.5t53 75.5h-173v126h318v-61q0 -60 -20.5 -113.5t-58.5 -94t-91.5 -64t-119.5 -23.5z" glyph-name="g.smcp" unicode=""/><glyph d="M333 -8q-72 0 -129.5 24.5t-98 66.5t-62.5 97.5t-22 117.5q0 65 23 120.5t63.5 97t97 65t123.5 23.5q94 0 163 -41.5t107 -107.5l-117 -67q-23 42 -61.5 65t-90.5 23q-36 0 -68 -13.5t-55.5 -37.5t-37 -56.5t-13.5 -70.5q0 -39 13 -72t36.5 -56.5t55.5 -37t71 -13.5 q56 0 94 27.5t53 75.5h-173v126h318v-61q0 -60 -20.5 -113.5t-58.5 -94t-91.5 -64t-119.5 -23.5z" glyph-name="g.smcp" unicode=""/><glyph d="M357 234h-186v-234h-134v596h134v-230h186v230h134v-596h-134v234z" glyph-name="h.smcp" horiz-adv-x="528" unicode=""/><glyph d="M357 234h-186v-234h-134v596h134v-230h186v230h134v-596h-134v234z" glyph-name="h.smcp" horiz-adv-x="528" unicode=""/><glyph d="M42 596h135v-596h-135v596z" glyph-name="i.smcp" horiz-adv-x="219" unicode=""/><glyph d="M42 596h135v-596h-135v596z" glyph-name="i.smcp" horiz-adv-x="219" unicode=""/><glyph d="M210 -8q-75 0 -125 35.5t-67 94.5l128 51q7 -26 22 -42t41 -16t39.5 18t13.5 45v418h135v-409q0 -91 -46.5 -143t-140.5 -52z" glyph-name="j.smcp" horiz-adv-x="433" unicode=""/><glyph d="M210 -8q-75 0 -125 35.5t-67 94.5l128 51q7 -26 22 -42t41 -16t39.5 18t13.5 45v418h135v-409q0 -91 -46.5 -143t-140.5 -52z" glyph-name="j.smcp" horiz-adv-x="433" unicode=""/><glyph d="M224 263l-53 -70v-193h-134v596h134v-225l172 225h159l-181 -235l194 -361h-150z" glyph-name="k.smcp" horiz-adv-x="524" unicode=""/><glyph d="M224 263l-53 -70v-193h-134v596h134v-225l172 225h159l-181 -235l194 -361h-150z" glyph-name="k.smcp" horiz-adv-x="524" unicode=""/><glyph d="M37 596h134v-468h201v-128h-335v596z" glyph-name="l.smcp" horiz-adv-x="400" unicode=""/><glyph d="M37 596h134v-468h201v-128h-335v596z" glyph-name="l.smcp" horiz-adv-x="400" unicode=""/><glyph d="M37 596h134l159 -221l165 221h127v-596h-134v380l-159 -214l-159 215v-381h-133v596z" glyph-name="m.smcp" horiz-adv-x="658" unicode=""/><glyph d="M37 596h134l159 -221l165 221h127v-596h-134v380l-159 -214l-159 215v-381h-133v596z" glyph-name="m.smcp" horiz-adv-x="658" unicode=""/><glyph d="M37 596h145l227 -359v359h133v-596h-134l-238 374v-374h-133v596z" glyph-name="n.smcp" horiz-adv-x="579" unicode=""/><glyph d="M37 596h145l227 -359v359h133v-596h-134l-238 374v-374h-133v596z" glyph-name="n.smcp" horiz-adv-x="579" unicode=""/><glyph d="M326 -8q-64 0 -119.5 24t-96.5 65.5t-65 97t-24 119.5q0 63 24 119t65 97.5t96.5 65.5t119.5 24q63 0 119 -24t97.5 -65.5t65.5 -97.5t24 -119q0 -64 -24 -119.5t-65.5 -97t-97 -65.5t-119.5 -24zM326 124q37 0 68 13.5t53.5 37.5t35.5 55.5t13 67.5t-13 67.5t-35.5 55.5 t-54 37.5t-67.5 13.5t-67 -13.5t-53.5 -37.5t-35.5 -55.5t-13 -67.5t13 -67.5t35.5 -55.5t53.5 -37.5t67 -13.5z" glyph-name="o.smcp" horiz-adv-x="653" unicode=""/><glyph d="M326 -8q-64 0 -119.5 24t-96.5 65.5t-65 97t-24 119.5q0 63 24 119t65 97.5t96.5 65.5t119.5 24q63 0 119 -24t97.5 -65.5t65.5 -97.5t24 -119q0 -64 -24 -119.5t-65.5 -97t-97 -65.5t-119.5 -24zM326 124q37 0 68 13.5t53.5 37.5t35.5 55.5t13 67.5t-13 67.5t-35.5 55.5 t-54 37.5t-67.5 13.5t-67 -13.5t-53.5 -37.5t-35.5 -55.5t-13 -67.5t13 -67.5t35.5 -55.5t53.5 -37.5t67 -13.5z" glyph-name="o.smcp" horiz-adv-x="653" unicode=""/><glyph d="M332 -8q-64 0 -119.5 24t-96.5 65.5t-64.5 97t-23.5 119.5q0 63 23.5 119t64.5 97.5t96.5 65.5t119.5 24t119.5 -24t97 -65.5t65.5 -97.5t24 -119q0 -56 -18 -105.5t-50 -89.5l80 -103h-146l-224 294h143l60 -78q9 18 14.5 38.5t5.5 43.5q0 36 -13 67.5t-36 55.5 t-54 37.5t-68 13.5q-36 0 -67 -13.5t-53.5 -37.5t-35.5 -55.5t-13 -67.5t13 -67.5t35.5 -55.5t53.5 -37.5t67 -13.5q26 0 42 4l83 -109q-28 -14 -58.5 -20.5t-66.5 -6.5z" glyph-name="q.smcp" horiz-adv-x="666" unicode=""/><glyph d="M332 -8q-64 0 -119.5 24t-96.5 65.5t-64.5 97t-23.5 119.5q0 63 23.5 119t64.5 97.5t96.5 65.5t119.5 24t119.5 -24t97 -65.5t65.5 -97.5t24 -119q0 -56 -18 -105.5t-50 -89.5l80 -103h-146l-224 294h143l60 -78q9 18 14.5 38.5t5.5 43.5q0 36 -13 67.5t-36 55.5 t-54 37.5t-68 13.5q-36 0 -67 -13.5t-53.5 -37.5t-35.5 -55.5t-13 -67.5t13 -67.5t35.5 -55.5t53.5 -37.5t67 -13.5q26 0 42 4l83 -109q-28 -14 -58.5 -20.5t-66.5 -6.5z" glyph-name="q.smcp" horiz-adv-x="666" unicode=""/><glyph d="M37 596h207q53 0 95 -16t70.5 -44t43.5 -64.5t15 -78.5q0 -57 -28.5 -104t-85.5 -71l130 -218h-152l-162 289v-289h-133v596zM170 473v-168h64q25 0 43 7.5t30 19.5t17.5 27.5t5.5 31.5q0 82 -96 82h-64z" glyph-name="r.smcp" horiz-adv-x="489" unicode=""/><glyph d="M37 596h207q53 0 95 -16t70.5 -44t43.5 -64.5t15 -78.5q0 -57 -28.5 -104t-85.5 -71l130 -218h-152l-162 289v-289h-133v596zM170 473v-168h64q25 0 43 7.5t30 19.5t17.5 27.5t5.5 31.5q0 82 -96 82h-64z" glyph-name="r.smcp" horiz-adv-x="489" unicode=""/><glyph d="M244 -8q-43 0 -78 8.5t-63.5 23.5t-51.5 34.5t-43 41.5l117 92q22 -35 53 -55t66 -20q36 0 56.5 19t20.5 44q0 15 -9.5 26t-25.5 19t-36.5 14l-43.5 13q-30 9 -60 20.5t-54.5 31t-40 48.5t-15.5 73q0 39 15 72t42 57t64.5 37.5t82.5 13.5q78 0 127 -27.5t83 -65.5 l-108 -83q-17 28 -43 43.5t-58 15.5t-50.5 -16t-18.5 -39q0 -15 9 -25.5t24.5 -18.5t36 -14.5l43.5 -13.5q30 -9 61 -21.5t56.5 -32.5t41.5 -50t16 -74q0 -37 -14.5 -71.5t-42 -61t-68 -42.5t-91.5 -16z" glyph-name="s.smcp" horiz-adv-x="488" unicode=""/><glyph d="M244 -8q-43 0 -78 8.5t-63.5 23.5t-51.5 34.5t-43 41.5l117 92q22 -35 53 -55t66 -20q36 0 56.5 19t20.5 44q0 15 -9.5 26t-25.5 19t-36.5 14l-43.5 13q-30 9 -60 20.5t-54.5 31t-40 48.5t-15.5 73q0 39 15 72t42 57t64.5 37.5t82.5 13.5q78 0 127 -27.5t83 -65.5 l-108 -83q-17 28 -43 43.5t-58 15.5t-50.5 -16t-18.5 -39q0 -15 9 -25.5t24.5 -18.5t36 -14.5l43.5 -13.5q30 -9 61 -21.5t56.5 -32.5t41.5 -50t16 -74q0 -37 -14.5 -71.5t-42 -61t-68 -42.5t-91.5 -16z" glyph-name="s.smcp" horiz-adv-x="488" unicode=""/><glyph d="M183 471h-152v125h432v-125h-150v-471h-130v471z" glyph-name="t.smcp" horiz-adv-x="494" unicode=""/><glyph d="M183 471h-152v125h432v-125h-150v-471h-130v471z" glyph-name="t.smcp" horiz-adv-x="494" unicode=""/><glyph d="M260 -8q-101 0 -162 58t-61 165v381h134v-385q0 -44 24 -70.5t64 -26.5t65 26.5t25 70.5v385h134v-381q0 -54 -16 -95.5t-45 -70t-70.5 -43t-91.5 -14.5z" glyph-name="u.smcp" horiz-adv-x="519" unicode=""/><glyph d="M260 -8q-101 0 -162 58t-61 165v381h134v-385q0 -44 24 -70.5t64 -26.5t65 26.5t25 70.5v385h134v-381q0 -54 -16 -95.5t-45 -70t-70.5 -43t-91.5 -14.5z" glyph-name="u.smcp" horiz-adv-x="519" unicode=""/><glyph d="M19 596h139l124 -387l121 387h139l-191 -596h-139z" glyph-name="v.smcp" horiz-adv-x="561" unicode=""/><glyph d="M19 596h139l124 -387l121 387h139l-191 -596h-139z" glyph-name="v.smcp" horiz-adv-x="561" unicode=""/><glyph d="M19 596h136l98 -378l108 378h133l108 -379l98 379h134l-166 -596h-132l-109 383l-108 -383h-135z" glyph-name="w.smcp" horiz-adv-x="850" unicode=""/><glyph d="M19 596h136l98 -378l108 378h133l108 -379l98 379h134l-166 -596h-132l-109 383l-108 -383h-135z" glyph-name="w.smcp" horiz-adv-x="850" unicode=""/><glyph d="M270 186l-109 -186h-147l181 304l-174 292h147l103 -176l102 176h147l-175 -293l180 -303h-146z" glyph-name="x.smcp" horiz-adv-x="538" unicode=""/><glyph d="M270 186l-109 -186h-147l181 304l-174 292h147l103 -176l102 176h147l-175 -293l180 -303h-146z" glyph-name="x.smcp" horiz-adv-x="538" unicode=""/><glyph d="M202 280l-186 316h145l109 -187l110 187h145l-188 -318v-278h-135v280z" glyph-name="y.smcp" horiz-adv-x="537" unicode=""/><glyph d="M202 280l-186 316h145l109 -187l110 187h145l-188 -318v-278h-135v280z" glyph-name="y.smcp" horiz-adv-x="537" unicode=""/><glyph d="M31 123l238 349h-233v124h389v-120l-241 -352h241v-124h-394v123z" glyph-name="z.smcp" horiz-adv-x="456" unicode=""/><glyph d="M31 123l238 349h-233v124h389v-120l-241 -352h241v-124h-394v123z" glyph-name="z.smcp" horiz-adv-x="456" unicode=""/><glyph d="M225 596h131l206 -596h-136l-135 405l-136 -405h-135z" glyph-name="anocross.smcp" horiz-adv-x="581" unicode=""/><glyph d="M225 596h131l206 -596h-136l-31 93h-209l-31 -93h-135zM360 816h126l-150 -170h-91zM227 216h127l-63 189z" glyph-name="aacute.smcp" horiz-adv-x="581" unicode=""/><glyph d="M225 596h131l206 -596h-136l-31 93h-209l-31 -93h-135zM360 816h126l-150 -170h-91zM227 216h127l-63 189z" glyph-name="aacute.smcp" horiz-adv-x="581" unicode=""/><glyph d="M225 596h131l206 -596h-136l-31 93h-209l-31 -93h-135zM98 816h127l114 -170h-91zM227 216h127l-63 189z" glyph-name="agrave.smcp" horiz-adv-x="581" unicode=""/><glyph d="M225 596h131l206 -596h-136l-31 93h-209l-31 -93h-135zM98 816h127l114 -170h-91zM227 216h127l-63 189z" glyph-name="agrave.smcp" horiz-adv-x="581" unicode=""/><glyph d="M225 596h131l206 -596h-136l-31 93h-209l-31 -93h-135zM248 816h84l119 -170h-102l-59 89l-59 -89h-102zM227 216h127l-63 189z" glyph-name="acircumflex.smcp" horiz-adv-x="581" unicode=""/><glyph d="M225 596h131l206 -596h-136l-31 93h-209l-31 -93h-135zM248 816h84l119 -170h-102l-59 89l-59 -89h-102zM227 216h127l-63 189z" glyph-name="acircumflex.smcp" horiz-adv-x="581" unicode=""/><glyph d="M225 596h131l206 -596h-136l-31 93h-209l-31 -93h-135zM123 715q0 32 19.5 52t52.5 20q34 0 53 -20t19 -52t-19 -51.5t-53 -19.5t-53 19.5t-19 51.5zM314 715q0 32 19.5 52t52.5 20t52.5 -20t19.5 -52t-19.5 -51.5t-52.5 -19.5q-35 0 -53.5 19.5t-18.5 51.5zM227 216h127 l-63 189z" glyph-name="adieresis.smcp" horiz-adv-x="581" unicode=""/><glyph d="M225 596h131l206 -596h-136l-31 93h-209l-31 -93h-135zM123 715q0 32 19.5 52t52.5 20q34 0 53 -20t19 -52t-19 -51.5t-53 -19.5t-53 19.5t-19 51.5zM314 715q0 32 19.5 52t52.5 20t52.5 -20t19.5 -52t-19.5 -51.5t-52.5 -19.5q-35 0 -53.5 19.5t-18.5 51.5zM227 216h127 l-63 189z" glyph-name="adieresis.smcp" horiz-adv-x="581" unicode=""/><glyph d="M225 596h131l206 -596h-136l-31 93h-209l-31 -93h-135zM119 646q0 61 27.5 98t76.5 37q25 0 43 -7.5t34 -16.5q14 -10 26.5 -17.5t25.5 -7.5q28 0 28 45h78q0 -62 -26 -98.5t-79 -36.5q-29 0 -49.5 10.5t-37.5 20.5q-11 7 -21.5 12t-21.5 5q-26 0 -26 -44h-78zM227 216 h127l-63 189z" glyph-name="atilde.smcp" horiz-adv-x="581" unicode=""/><glyph d="M225 596h131l206 -596h-136l-31 93h-209l-31 -93h-135zM119 646q0 61 27.5 98t76.5 37q25 0 43 -7.5t34 -16.5q14 -10 26.5 -17.5t25.5 -7.5q28 0 28 45h78q0 -62 -26 -98.5t-79 -36.5q-29 0 -49.5 10.5t-37.5 20.5q-11 7 -21.5 12t-21.5 5q-26 0 -26 -44h-78zM227 216 h127l-63 189z" glyph-name="atilde.smcp" horiz-adv-x="581" unicode=""/><glyph d="M215 569q-20 16 -31 39.5t-11 50.5q0 25 9 46.5t25 37.5t37 25t45 9t45.5 -9t37.5 -25t25 -37.5t9 -46.5q0 -27 -11 -49.5t-30 -39.5l197 -570h-136l-31 93h-209l-31 -93h-135zM227 216h127l-63 189zM289 620q17 0 29 11.5t12 27.5q0 17 -12 29t-29 12t-28.5 -12 t-11.5 -29q0 -16 11.5 -27.5t28.5 -11.5z" glyph-name="aring.smcp" horiz-adv-x="581" unicode=""/><glyph d="M215 569q-20 16 -31 39.5t-11 50.5q0 25 9 46.5t25 37.5t37 25t45 9t45.5 -9t37.5 -25t25 -37.5t9 -46.5q0 -27 -11 -49.5t-30 -39.5l197 -570h-136l-31 93h-209l-31 -93h-135zM227 216h127l-63 189zM289 620q17 0 29 11.5t12 27.5q0 17 -12 29t-29 12t-28.5 -12 t-11.5 -29q0 -16 11.5 -27.5t28.5 -11.5z" glyph-name="aring.smcp" horiz-adv-x="581" unicode=""/><glyph d="M225 596h131l206 -596h-136l-31 93h-209l-31 -93h-135zM159 732h264v-86h-264v86zM227 216h127l-63 189z" glyph-name="amacron.smcp" horiz-adv-x="581" unicode=""/><glyph d="M225 596h131l206 -596h-136l-31 93h-209l-31 -93h-135zM159 732h264v-86h-264v86zM227 216h127l-63 189z" glyph-name="amacron.smcp" horiz-adv-x="581" unicode=""/><glyph d="M225 596h131l206 -596h-136l-31 93h-209l-31 -93h-135zM288 638q-41 0 -71.5 13t-50.5 35.5t-29.5 54t-9.5 67.5h85q0 -48 19.5 -71t56.5 -25q36 2 56 25t20 71h86q0 -36 -11 -67.5t-32 -54t-51 -35.5t-68 -13zM227 216h127l-63 189z" glyph-name="abreve.smcp" horiz-adv-x="581" unicode=""/><glyph d="M225 596h131l206 -596h-136l-31 93h-209l-31 -93h-135zM288 638q-41 0 -71.5 13t-50.5 35.5t-29.5 54t-9.5 67.5h85q0 -48 19.5 -71t56.5 -25q36 2 56 25t20 71h86q0 -36 -11 -67.5t-32 -54t-51 -35.5t-68 -13zM227 216h127l-63 189z" glyph-name="abreve.smcp" horiz-adv-x="581" unicode=""/><glyph d="M215 569q-20 16 -31 39.5t-11 50.5q0 25 9 46.5t25 37.5t37 25t45 9t45.5 -9t37.5 -25t25 -37.5t9 -46.5q0 -27 -11 -49.5t-30 -39.5l197 -570h-136l-31 93h-209l-31 -93h-135zM358 987h126l-150 -170h-91zM227 216h127l-63 189zM289 620q17 0 29 11.5t12 27.5 q0 17 -12 29t-29 12t-28.5 -12t-11.5 -29q0 -16 11.5 -27.5t28.5 -11.5z" glyph-name="aringacute.smcp" horiz-adv-x="581" unicode=""/><glyph d="M215 569q-20 16 -31 39.5t-11 50.5q0 25 9 46.5t25 37.5t37 25t45 9t45.5 -9t37.5 -25t25 -37.5t9 -46.5q0 -27 -11 -49.5t-30 -39.5l197 -570h-136l-31 93h-209l-31 -93h-135zM358 987h126l-150 -170h-91zM227 216h127l-63 189zM289 620q17 0 29 11.5t12 27.5 q0 17 -12 29t-29 12t-28.5 -12t-11.5 -29q0 -16 11.5 -27.5t28.5 -11.5z" glyph-name="aringacute.smcp" horiz-adv-x="581" unicode=""/><glyph d="M225 596h131l206 -596l-66.5 -44.5t-39.5 -29.5t-19 -20.5t-5 -18.5q0 -17 13 -24t30 -7q20 0 33 9t27 20l79 -54q-26 -24 -64.5 -41t-74.5 -17q-65 0 -104.5 31.5t-39.5 77.5q0 32 19 63t73 64l-28 84h-209l-31 -93h-135zM227 216h127l-63 189z" glyph-name="aogonek.smcp" horiz-adv-x="581" unicode=""/><glyph d="M225 596h131l206 -596l-66.5 -44.5t-39.5 -29.5t-19 -20.5t-5 -18.5q0 -17 13 -24t30 -7q20 0 33 9t27 20l79 -54q-26 -24 -64.5 -41t-74.5 -17q-65 0 -104.5 31.5t-39.5 77.5q0 32 19 63t73 64l-28 84h-209l-31 -93h-135zM227 216h127l-63 189z" glyph-name="aogonek.smcp" horiz-adv-x="581" unicode=""/><glyph d="M37 596h353v-125h-220v-109h220v-126h-220v-111h220v-125h-353v596zM48 715q0 32 19.5 52t52.5 20q34 0 53 -20t19 -52t-19 -51.5t-53 -19.5t-53 19.5t-19 51.5zM239 715q0 32 19.5 52t52.5 20t52.5 -20t19.5 -52t-19.5 -51.5t-52.5 -19.5q-35 0 -53.5 19.5t-18.5 51.5z" glyph-name="edieresis.smcp" horiz-adv-x="421" unicode=""/><glyph d="M37 596h353v-125h-220v-109h220v-126h-220v-111h220v-125h-353v596zM48 715q0 32 19.5 52t52.5 20q34 0 53 -20t19 -52t-19 -51.5t-53 -19.5t-53 19.5t-19 51.5zM239 715q0 32 19.5 52t52.5 20t52.5 -20t19.5 -52t-19.5 -51.5t-52.5 -19.5q-35 0 -53.5 19.5t-18.5 51.5z" glyph-name="edieresis.smcp" horiz-adv-x="421" unicode=""/><glyph d="M284 596h471v-125h-302l20 -109h282v-126h-260l20 -111h240v-125h-353l-16 88h-189l-39 -88h-145zM251 209h114l-33 183z" glyph-name="ae.smcp" horiz-adv-x="787" unicode=""/><glyph d="M284 596h471v-125h-302l20 -109h282v-126h-260l20 -111h240v-125h-353l-16 88h-189l-39 -88h-145zM251 209h114l-33 183z" glyph-name="ae.smcp" horiz-adv-x="787" unicode=""/><glyph d="M284 596h471v-125h-302l20 -109h282v-126h-260l20 -111h240v-125h-353l-16 88h-189l-39 -88h-145zM535 816h126l-150 -170h-91zM251 209h114l-33 183z" glyph-name="aeacute.smcp" horiz-adv-x="787" unicode=""/><glyph d="M284 596h471v-125h-302l20 -109h282v-126h-260l20 -111h240v-125h-353l-16 88h-189l-39 -88h-145zM535 816h126l-150 -170h-91zM251 209h114l-33 183z" glyph-name="aeacute.smcp" horiz-adv-x="787" unicode=""/><glyph d="M403 816h126l-150 -170h-91zM336 -8q-68 0 -125 24t-97.5 65.5t-63 97t-22.5 119.5q0 65 23 121t64.5 97t98 64.5t123.5 23.5q85 0 154.5 -40.5t108.5 -107.5l-115 -72q-21 40 -60 64.5t-89 24.5q-38 0 -70 -14t-54.5 -37.5t-35 -55.5t-12.5 -68t12.5 -67.5t35 -55.5 t53.5 -37.5t68 -13.5q55 0 93 27.5t58 72.5l124 -63q-38 -75 -107 -122t-165 -47z" glyph-name="cacute.smcp" horiz-adv-x="623" unicode=""/><glyph d="M403 816h126l-150 -170h-91zM336 -8q-68 0 -125 24t-97.5 65.5t-63 97t-22.5 119.5q0 65 23 121t64.5 97t98 64.5t123.5 23.5q85 0 154.5 -40.5t108.5 -107.5l-115 -72q-21 40 -60 64.5t-89 24.5q-38 0 -70 -14t-54.5 -37.5t-35 -55.5t-12.5 -68t12.5 -67.5t35 -55.5 t53.5 -37.5t68 -13.5q55 0 93 27.5t58 72.5l124 -63q-38 -75 -107 -122t-165 -47z" glyph-name="cacute.smcp" horiz-adv-x="623" unicode=""/><glyph d="M336 -8q-68 0 -125 24t-97.5 65.5t-63 97t-22.5 119.5q0 65 23 121t64.5 97t98 64.5t123.5 23.5q85 0 154.5 -40.5t108.5 -107.5l-115 -72q-21 40 -60 64.5t-89 24.5q-38 0 -70 -14t-54.5 -37.5t-35 -55.5t-12.5 -68t12.5 -67.5t35 -55.5t53.5 -37.5t68 -13.5 q55 0 93 27.5t58 72.5l124 -63q-38 -75 -107 -122t-165 -47zM296 816h84l119 -170h-102l-59 89l-59 -89h-102z" glyph-name="ccircumflex.smcp" horiz-adv-x="623" unicode=""/><glyph d="M336 -8q-68 0 -125 24t-97.5 65.5t-63 97t-22.5 119.5q0 65 23 121t64.5 97t98 64.5t123.5 23.5q85 0 154.5 -40.5t108.5 -107.5l-115 -72q-21 40 -60 64.5t-89 24.5q-38 0 -70 -14t-54.5 -37.5t-35 -55.5t-12.5 -68t12.5 -67.5t35 -55.5t53.5 -37.5t68 -13.5 q55 0 93 27.5t58 72.5l124 -63q-38 -75 -107 -122t-165 -47zM296 816h84l119 -170h-102l-59 89l-59 -89h-102z" glyph-name="ccircumflex.smcp" horiz-adv-x="623" unicode=""/><glyph d="M336 -8q-68 0 -125 24t-97.5 65.5t-63 97t-22.5 119.5q0 65 23 121t64.5 97t98 64.5t123.5 23.5q85 0 154.5 -40.5t108.5 -107.5l-115 -72q-21 40 -60 64.5t-89 24.5q-38 0 -70 -14t-54.5 -37.5t-35 -55.5t-12.5 -68t12.5 -67.5t35 -55.5t53.5 -37.5t68 -13.5 q55 0 93 27.5t58 72.5l124 -63q-38 -75 -107 -122t-165 -47zM177 816h102l59 -89l59 89h102l-119 -170h-84z" glyph-name="ccaron.smcp" horiz-adv-x="623" unicode=""/><glyph d="M336 -8q-68 0 -125 24t-97.5 65.5t-63 97t-22.5 119.5q0 65 23 121t64.5 97t98 64.5t123.5 23.5q85 0 154.5 -40.5t108.5 -107.5l-115 -72q-21 40 -60 64.5t-89 24.5q-38 0 -70 -14t-54.5 -37.5t-35 -55.5t-12.5 -68t12.5 -67.5t35 -55.5t53.5 -37.5t68 -13.5 q55 0 93 27.5t58 72.5l124 -63q-38 -75 -107 -122t-165 -47zM177 816h102l59 -89l59 89h102l-119 -170h-84z" glyph-name="ccaron.smcp" horiz-adv-x="623" unicode=""/><glyph d="M336 -8q-68 0 -125 24t-97.5 65.5t-63 97t-22.5 119.5q0 65 23 121t64.5 97t98 64.5t123.5 23.5q85 0 154.5 -40.5t108.5 -107.5l-115 -72q-21 40 -60 64.5t-89 24.5q-38 0 -70 -14t-54.5 -37.5t-35 -55.5t-12.5 -68t12.5 -67.5t35 -55.5t53.5 -37.5t68 -13.5 q55 0 93 27.5t58 72.5l124 -63q-38 -75 -107 -122t-165 -47zM259 715q0 35 21.5 57t57.5 22q37 0 58 -22t21 -57t-21 -56.5t-58 -21.5q-38 0 -58.5 21.5t-20.5 56.5z" glyph-name="cdotaccent.smcp" horiz-adv-x="623" unicode=""/><glyph d="M336 -8q-68 0 -125 24t-97.5 65.5t-63 97t-22.5 119.5q0 65 23 121t64.5 97t98 64.5t123.5 23.5q85 0 154.5 -40.5t108.5 -107.5l-115 -72q-21 40 -60 64.5t-89 24.5q-38 0 -70 -14t-54.5 -37.5t-35 -55.5t-12.5 -68t12.5 -67.5t35 -55.5t53.5 -37.5t68 -13.5 q55 0 93 27.5t58 72.5l124 -63q-38 -75 -107 -122t-165 -47zM259 715q0 35 21.5 57t57.5 22q37 0 58 -22t21 -57t-21 -56.5t-58 -21.5q-38 0 -58.5 21.5t-20.5 56.5z" glyph-name="cdotaccent.smcp" horiz-adv-x="623" unicode=""/><glyph d="M327 -240q-40 0 -77.5 16.5t-66.5 42.5l78 47q17 -14 33.5 -24t42.5 -10q22 0 38.5 9t16.5 22q0 27 -58 27h-50v106q-58 9 -105 35.5t-80.5 66.5t-52 91t-18.5 109q0 65 23 121t64.5 97t98 64.5t123.5 23.5q85 0 154.5 -40.5t108.5 -107.5l-115 -72q-21 40 -60 64.5 t-89 24.5q-38 0 -70 -14t-54.5 -37.5t-35 -55.5t-12.5 -68t12.5 -67.5t35 -55.5t53.5 -37.5t68 -13.5q55 0 93 27.5t58 72.5l124 -63q-35 -69 -95.5 -114t-144.5 -53v-47q56 2 85.5 -20.5t29.5 -59.5q0 -23 -12 -43t-33 -34t-49.5 -22t-61.5 -8z" glyph-name="ccedilla.smcp" horiz-adv-x="623" unicode=""/><glyph d="M327 -240q-40 0 -77.5 16.5t-66.5 42.5l78 47q17 -14 33.5 -24t42.5 -10q22 0 38.5 9t16.5 22q0 27 -58 27h-50v106q-58 9 -105 35.5t-80.5 66.5t-52 91t-18.5 109q0 65 23 121t64.5 97t98 64.5t123.5 23.5q85 0 154.5 -40.5t108.5 -107.5l-115 -72q-21 40 -60 64.5 t-89 24.5q-38 0 -70 -14t-54.5 -37.5t-35 -55.5t-12.5 -68t12.5 -67.5t35 -55.5t53.5 -37.5t68 -13.5q55 0 93 27.5t58 72.5l124 -63q-35 -69 -95.5 -114t-144.5 -53v-47q56 2 85.5 -20.5t29.5 -59.5q0 -23 -12 -43t-33 -34t-49.5 -22t-61.5 -8z" glyph-name="ccedilla.smcp" horiz-adv-x="623" unicode=""/><glyph d="M37 596h174q71 0 128.5 -23t98 -63t62.5 -94.5t22 -117.5q0 -64 -23 -118.5t-64 -94.5t-97.5 -62.5t-123.5 -22.5h-177v596zM170 472v-348h37q41 0 74.5 13.5t57 37t36.5 55t13 68.5t-12 69t-35 55t-58 36.5t-80 13.5h-33zM85 816h102l59 -89l59 89h102l-119 -170h-84z" glyph-name="dcaron.smcp" horiz-adv-x="550" unicode=""/><glyph d="M37 596h174q71 0 128.5 -23t98 -63t62.5 -94.5t22 -117.5q0 -64 -23 -118.5t-64 -94.5t-97.5 -62.5t-123.5 -22.5h-177v596zM170 472v-348h37q41 0 74.5 13.5t57 37t36.5 55t13 68.5t-12 69t-35 55t-58 36.5t-80 13.5h-33zM85 816h102l59 -89l59 89h102l-119 -170h-84z" glyph-name="dcaron.smcp" horiz-adv-x="550" unicode=""/><glyph d="M20 353h51v243h176q71 0 128 -23t98 -63t63 -94.5t22 -117.5q0 -64 -23 -118.5t-64 -94.5t-97.5 -62.5t-123.5 -22.5h-179v243h-51v110zM205 243v-119h37q42 0 75.5 13.5t57 37t36 55t12.5 68.5t-11.5 69t-35 55t-58 36.5t-79.5 13.5h-34v-119h119v-110h-119z" glyph-name="dcroat.smcp" horiz-adv-x="586" unicode=""/><glyph d="M20 353h51v243h176q71 0 128 -23t98 -63t63 -94.5t22 -117.5q0 -64 -23 -118.5t-64 -94.5t-97.5 -62.5t-123.5 -22.5h-179v243h-51v110zM205 243v-119h37q42 0 75.5 13.5t57 37t36 55t12.5 68.5t-11.5 69t-35 55t-58 36.5t-79.5 13.5h-34v-119h119v-110h-119z" glyph-name="dcroat.smcp" horiz-adv-x="586" unicode=""/><glyph d="M37 596h353v-125h-220v-109h220v-126h-220v-111h220v-125h-353v596zM276 816h126l-150 -170h-91z" glyph-name="eacute.smcp" horiz-adv-x="421" unicode=""/><glyph d="M37 596h353v-125h-220v-109h220v-126h-220v-111h220v-125h-353v596zM276 816h126l-150 -170h-91z" glyph-name="eacute.smcp" horiz-adv-x="421" unicode=""/><glyph d="M37 596h353v-125h-220v-109h220v-126h-220v-111h220v-125h-353v596zM40 816h127l114 -170h-91z" glyph-name="egrave.smcp" horiz-adv-x="421" unicode=""/><glyph d="M37 596h353v-125h-220v-109h220v-126h-220v-111h220v-125h-353v596zM40 816h127l114 -170h-91z" glyph-name="egrave.smcp" horiz-adv-x="421" unicode=""/><glyph d="M37 596h353v-125h-220v-109h220v-126h-220v-111h220v-125h-353v596zM174 816h84l119 -170h-102l-59 89l-59 -89h-102z" glyph-name="ecircumflex.smcp" horiz-adv-x="421" unicode=""/><glyph d="M37 596h353v-125h-220v-109h220v-126h-220v-111h220v-125h-353v596zM174 816h84l119 -170h-102l-59 89l-59 -89h-102z" glyph-name="ecircumflex.smcp" horiz-adv-x="421" unicode=""/><glyph d="M333 -8q-72 0 -129.5 24.5t-98 66.5t-62.5 97.5t-22 117.5q0 65 23 120.5t63.5 97t97 65t123.5 23.5q94 0 163 -41.5t107 -107.5l-117 -67q-23 42 -61.5 65t-90.5 23q-36 0 -68 -13.5t-55.5 -37.5t-37 -56.5t-13.5 -70.5q0 -39 13 -72t36.5 -56.5t55.5 -37t71 -13.5 q56 0 94 27.5t53 75.5h-173v126h318v-61q0 -60 -20.5 -113.5t-58.5 -94t-91.5 -64t-119.5 -23.5zM238 -250l34 204h119l-70 -204h-83z" glyph-name="gcommaaccent.smcp" unicode=""/><glyph d="M333 -8q-72 0 -129.5 24.5t-98 66.5t-62.5 97.5t-22 117.5q0 65 23 120.5t63.5 97t97 65t123.5 23.5q94 0 163 -41.5t107 -107.5l-117 -67q-23 42 -61.5 65t-90.5 23q-36 0 -68 -13.5t-55.5 -37.5t-37 -56.5t-13.5 -70.5q0 -39 13 -72t36.5 -56.5t55.5 -37t71 -13.5 q56 0 94 27.5t53 75.5h-173v126h318v-61q0 -60 -20.5 -113.5t-58.5 -94t-91.5 -64t-119.5 -23.5zM238 -250l34 204h119l-70 -204h-83z" glyph-name="gcommaaccent.smcp" unicode=""/><glyph d="M37 596h353v-125h-220v-109h220v-126h-220v-111h220v-125h-353v596zM59 816h102l59 -89l59 89h102l-119 -170h-84z" glyph-name="ecaron.smcp" horiz-adv-x="421" unicode=""/><glyph d="M37 596h353v-125h-220v-109h220v-126h-220v-111h220v-125h-353v596zM59 816h102l59 -89l59 89h102l-119 -170h-84z" glyph-name="ecaron.smcp" horiz-adv-x="421" unicode=""/><glyph d="M37 596h353v-125h-220v-109h220v-126h-220v-111h220v-125h-353v596zM85 732h264v-86h-264v86z" glyph-name="emacron.smcp" horiz-adv-x="421" unicode=""/><glyph d="M37 596h353v-125h-220v-109h220v-126h-220v-111h220v-125h-353v596zM85 732h264v-86h-264v86z" glyph-name="emacron.smcp" horiz-adv-x="421" unicode=""/><glyph d="M37 596h353v-125h-220v-109h220v-126h-220v-111h220v-125h-353v596zM225 638q-41 0 -71.5 13t-50.5 35.5t-29.5 54t-9.5 67.5h85q0 -48 19.5 -71t56.5 -25q36 2 56 25t20 71h86q0 -36 -11 -67.5t-32 -54t-51 -35.5t-68 -13z" glyph-name="ebreve.smcp" horiz-adv-x="421" unicode=""/><glyph d="M37 596h353v-125h-220v-109h220v-126h-220v-111h220v-125h-353v596zM225 638q-41 0 -71.5 13t-50.5 35.5t-29.5 54t-9.5 67.5h85q0 -48 19.5 -71t56.5 -25q36 2 56 25t20 71h86q0 -36 -11 -67.5t-32 -54t-51 -35.5t-68 -13z" glyph-name="ebreve.smcp" horiz-adv-x="421" unicode=""/><glyph d="M37 596h353v-125h-220v-109h220v-126h-220v-111h220v-125h-353v596zM136 715q0 35 21.5 57t57.5 22q37 0 58 -22t21 -57t-21 -56.5t-58 -21.5q-38 0 -58.5 21.5t-20.5 56.5z" glyph-name="edotaccent.smcp" horiz-adv-x="421" unicode=""/><glyph d="M37 596h353v-125h-220v-109h220v-126h-220v-111h220v-125h-353v596zM136 715q0 35 21.5 57t57.5 22q37 0 58 -22t21 -57t-21 -56.5t-58 -21.5q-38 0 -58.5 21.5t-20.5 56.5z" glyph-name="edotaccent.smcp" horiz-adv-x="421" unicode=""/><glyph d="M37 596h353v-125h-220v-109h220v-126h-220v-111h220v-125l-66.5 -44.5t-39.5 -29.5t-19 -20.5t-5 -18.5q0 -17 13 -24t30 -7q20 0 33 9t27 20l79 -54q-26 -24 -64.5 -41t-74.5 -17q-65 0 -104.5 31.5t-39.5 77.5q0 30 16 58.5t61 59.5h-199v596z" glyph-name="eogonek.smcp" horiz-adv-x="421" unicode=""/><glyph d="M37 596h353v-125h-220v-109h220v-126h-220v-111h220v-125l-66.5 -44.5t-39.5 -29.5t-19 -20.5t-5 -18.5q0 -17 13 -24t30 -7q20 0 33 9t27 20l79 -54q-26 -24 -64.5 -41t-74.5 -17q-65 0 -104.5 31.5t-39.5 77.5q0 30 16 58.5t61 59.5h-199v596z" glyph-name="eogonek.smcp" horiz-adv-x="421" unicode=""/><glyph d="M333 -8q-72 0 -129.5 24.5t-98 66.5t-62.5 97.5t-22 117.5q0 65 23 120.5t63.5 97t97 65t123.5 23.5q94 0 163 -41.5t107 -107.5l-117 -67q-23 42 -61.5 65t-90.5 23q-36 0 -68 -13.5t-55.5 -37.5t-37 -56.5t-13.5 -70.5q0 -39 13 -72t36.5 -56.5t55.5 -37t71 -13.5 q56 0 94 27.5t53 75.5h-173v126h318v-61q0 -60 -20.5 -113.5t-58.5 -94t-91.5 -64t-119.5 -23.5zM290 816h84l119 -170h-102l-59 89l-59 -89h-102z" glyph-name="gcircumflex.smcp" unicode=""/><glyph d="M333 -8q-72 0 -129.5 24.5t-98 66.5t-62.5 97.5t-22 117.5q0 65 23 120.5t63.5 97t97 65t123.5 23.5q94 0 163 -41.5t107 -107.5l-117 -67q-23 42 -61.5 65t-90.5 23q-36 0 -68 -13.5t-55.5 -37.5t-37 -56.5t-13.5 -70.5q0 -39 13 -72t36.5 -56.5t55.5 -37t71 -13.5 q56 0 94 27.5t53 75.5h-173v126h318v-61q0 -60 -20.5 -113.5t-58.5 -94t-91.5 -64t-119.5 -23.5zM290 816h84l119 -170h-102l-59 89l-59 -89h-102z" glyph-name="gcircumflex.smcp" unicode=""/><glyph d="M333 -8q-72 0 -129.5 24.5t-98 66.5t-62.5 97.5t-22 117.5q0 65 23 120.5t63.5 97t97 65t123.5 23.5q94 0 163 -41.5t107 -107.5l-117 -67q-23 42 -61.5 65t-90.5 23q-36 0 -68 -13.5t-55.5 -37.5t-37 -56.5t-13.5 -70.5q0 -39 13 -72t36.5 -56.5t55.5 -37t71 -13.5 q56 0 94 27.5t53 75.5h-173v126h318v-61q0 -60 -20.5 -113.5t-58.5 -94t-91.5 -64t-119.5 -23.5zM332 638q-41 0 -71.5 13t-50.5 35.5t-29.5 54t-9.5 67.5h85q0 -48 19.5 -71t56.5 -25q36 2 56 25t20 71h86q0 -36 -11 -67.5t-32 -54t-51 -35.5t-68 -13z" glyph-name="gbreve.smcp" unicode=""/><glyph d="M333 -8q-72 0 -129.5 24.5t-98 66.5t-62.5 97.5t-22 117.5q0 65 23 120.5t63.5 97t97 65t123.5 23.5q94 0 163 -41.5t107 -107.5l-117 -67q-23 42 -61.5 65t-90.5 23q-36 0 -68 -13.5t-55.5 -37.5t-37 -56.5t-13.5 -70.5q0 -39 13 -72t36.5 -56.5t55.5 -37t71 -13.5 q56 0 94 27.5t53 75.5h-173v126h318v-61q0 -60 -20.5 -113.5t-58.5 -94t-91.5 -64t-119.5 -23.5zM332 638q-41 0 -71.5 13t-50.5 35.5t-29.5 54t-9.5 67.5h85q0 -48 19.5 -71t56.5 -25q36 2 56 25t20 71h86q0 -36 -11 -67.5t-32 -54t-51 -35.5t-68 -13z" glyph-name="gbreve.smcp" unicode=""/><glyph d="M333 -8q-72 0 -129.5 24.5t-98 66.5t-62.5 97.5t-22 117.5q0 65 23 120.5t63.5 97t97 65t123.5 23.5q94 0 163 -41.5t107 -107.5l-117 -67q-23 42 -61.5 65t-90.5 23q-36 0 -68 -13.5t-55.5 -37.5t-37 -56.5t-13.5 -70.5q0 -39 13 -72t36.5 -56.5t55.5 -37t71 -13.5 q56 0 94 27.5t53 75.5h-173v126h318v-61q0 -60 -20.5 -113.5t-58.5 -94t-91.5 -64t-119.5 -23.5zM252 715q0 35 21.5 57t57.5 22q37 0 58 -22t21 -57t-21 -56.5t-58 -21.5q-38 0 -58.5 21.5t-20.5 56.5z" glyph-name="gdotaccent.smcp" unicode=""/><glyph d="M333 -8q-72 0 -129.5 24.5t-98 66.5t-62.5 97.5t-22 117.5q0 65 23 120.5t63.5 97t97 65t123.5 23.5q94 0 163 -41.5t107 -107.5l-117 -67q-23 42 -61.5 65t-90.5 23q-36 0 -68 -13.5t-55.5 -37.5t-37 -56.5t-13.5 -70.5q0 -39 13 -72t36.5 -56.5t55.5 -37t71 -13.5 q56 0 94 27.5t53 75.5h-173v126h318v-61q0 -60 -20.5 -113.5t-58.5 -94t-91.5 -64t-119.5 -23.5zM252 715q0 35 21.5 57t57.5 22q37 0 58 -22t21 -57t-21 -56.5t-58 -21.5q-38 0 -58.5 21.5t-20.5 56.5z" glyph-name="gdotaccent.smcp" unicode=""/><glyph d="M357 234h-186v-234h-134v596h134v-230h186v230h134v-596h-134v234zM223 816h84l119 -170h-102l-59 89l-59 -89h-102z" glyph-name="hcircumflex.smcp" horiz-adv-x="528" unicode=""/><glyph d="M357 234h-186v-234h-134v596h134v-230h186v230h134v-596h-134v234zM223 816h84l119 -170h-102l-59 89l-59 -89h-102z" glyph-name="hcircumflex.smcp" horiz-adv-x="528" unicode=""/><glyph d="M368 215h-186v-215h-134v404h-37v132h37v60h134v-60h186v60h134v-60h36v-132h-36v-404h-134v215zM182 347h186v57h-186v-57z" glyph-name="hbar.smcp" horiz-adv-x="550" unicode=""/><glyph d="M368 215h-186v-215h-134v404h-37v132h37v60h134v-60h186v60h134v-60h36v-132h-36v-404h-134v215zM182 347h186v57h-186v-57z" glyph-name="hbar.smcp" horiz-adv-x="550" unicode=""/><glyph d="M176 816h126l-150 -170h-91zM42 596h135v-596h-135v596z" glyph-name="iacute.smcp" horiz-adv-x="219" unicode=""/><glyph d="M176 816h126l-150 -170h-91zM42 596h135v-596h-135v596z" glyph-name="iacute.smcp" horiz-adv-x="219" unicode=""/><glyph d="M-83 816h127l114 -170h-91zM42 596h135v-596h-135v596z" glyph-name="igrave.smcp" horiz-adv-x="219" unicode=""/><glyph d="M-83 816h127l114 -170h-91zM42 596h135v-596h-135v596z" glyph-name="igrave.smcp" horiz-adv-x="219" unicode=""/><glyph d="M42 596h135v-596h-135v596zM77 816h84l119 -170h-102l-59 89l-59 -89h-102z" glyph-name="icircumflex.smcp" horiz-adv-x="219" unicode=""/><glyph d="M42 596h135v-596h-135v596zM77 816h84l119 -170h-102l-59 89l-59 -89h-102z" glyph-name="icircumflex.smcp" horiz-adv-x="219" unicode=""/><glyph d="M168 784h134v-137h-134v137zM-63 784h134v-137h-134v137zM42 596h135v-596h-135v596z" glyph-name="idieresis.smcp" horiz-adv-x="219" unicode=""/><glyph d="M168 784h134v-137h-134v137zM-63 784h134v-137h-134v137zM42 596h135v-596h-135v596z" glyph-name="idieresis.smcp" horiz-adv-x="219" unicode=""/><glyph d="M42 596h135v-596h-135v596zM-52 646q0 61 27.5 98t76.5 37q25 0 43 -7.5t34 -16.5q14 -10 26.5 -17.5t25.5 -7.5q28 0 28 45h78q0 -62 -26 -98.5t-79 -36.5q-29 0 -49.5 10.5t-37.5 20.5q-11 7 -21.5 12t-21.5 5q-26 0 -26 -44h-78z" glyph-name="itilde.smcp" horiz-adv-x="219" unicode=""/><glyph d="M42 596h135v-596h-135v596zM-52 646q0 61 27.5 98t76.5 37q25 0 43 -7.5t34 -16.5q14 -10 26.5 -17.5t25.5 -7.5q28 0 28 45h78q0 -62 -26 -98.5t-79 -36.5q-29 0 -49.5 10.5t-37.5 20.5q-11 7 -21.5 12t-21.5 5q-26 0 -26 -44h-78z" glyph-name="itilde.smcp" horiz-adv-x="219" unicode=""/><glyph d="M-24 732h264v-86h-264v86zM42 596h135v-596h-135v596z" glyph-name="imacron.smcp" horiz-adv-x="219" unicode=""/><glyph d="M-24 732h264v-86h-264v86zM42 596h135v-596h-135v596z" glyph-name="imacron.smcp" horiz-adv-x="219" unicode=""/><glyph d="M42 596h135v-596h-135v596zM109 638q-41 0 -71.5 13t-50.5 35.5t-29.5 54t-9.5 67.5h85q0 -48 19.5 -71t56.5 -25q36 2 56 25t20 71h86q0 -36 -11 -67.5t-32 -54t-51 -35.5t-68 -13z" glyph-name="ibreve.smcp" horiz-adv-x="219" unicode=""/><glyph d="M42 596h135v-596h-135v596zM109 638q-41 0 -71.5 13t-50.5 35.5t-29.5 54t-9.5 67.5h85q0 -48 19.5 -71t56.5 -25q36 2 56 25t20 71h86q0 -36 -11 -67.5t-32 -54t-51 -35.5t-68 -13z" glyph-name="ibreve.smcp" horiz-adv-x="219" unicode=""/><glyph d="M42 596h135v-596h-135v596zM30 715q0 35 21.5 57t57.5 22q37 0 58 -22t21 -57t-21 -56.5t-58 -21.5q-38 0 -58.5 21.5t-20.5 56.5z" glyph-name="idotaccent.smcp" horiz-adv-x="219" unicode=""/><glyph d="M42 596h135v-596h-135v596zM30 715q0 35 21.5 57t57.5 22q37 0 58 -22t21 -57t-21 -56.5t-58 -21.5q-38 0 -58.5 21.5t-20.5 56.5z" glyph-name="idotaccent.smcp" horiz-adv-x="219" unicode=""/><glyph d="M105 -229q-58 0 -94.5 30.5t-37.5 77.5q0 38 18 68t51 57v592h135v-596q-57 -35 -81 -64t-24 -47q0 -17 10.5 -25t27.5 -8q15 0 27.5 9t22.5 21l79 -55q-26 -27 -58 -43.5t-76 -16.5z" glyph-name="iogonek.smcp" horiz-adv-x="219" unicode=""/><glyph d="M105 -229q-58 0 -94.5 30.5t-37.5 77.5q0 38 18 68t51 57v592h135v-596q-57 -35 -81 -64t-24 -47q0 -17 10.5 -25t27.5 -8q15 0 27.5 9t22.5 21l79 -55q-26 -27 -58 -43.5t-76 -16.5z" glyph-name="iogonek.smcp" horiz-adv-x="219" unicode=""/><glyph d="M210 -8q-75 0 -125 35.5t-67 94.5l128 51q7 -26 22 -42t41 -16t39.5 18t13.5 45v418h135v-409q0 -91 -46.5 -143t-140.5 -52zM286 816h84l119 -170h-102l-59 89l-59 -89h-102z" glyph-name="jcircumflex.smcp" horiz-adv-x="433" unicode=""/><glyph d="M210 -8q-75 0 -125 35.5t-67 94.5l128 51q7 -26 22 -42t41 -16t39.5 18t13.5 45v418h135v-409q0 -91 -46.5 -143t-140.5 -52zM286 816h84l119 -170h-102l-59 89l-59 -89h-102z" glyph-name="jcircumflex.smcp" horiz-adv-x="433" unicode=""/><glyph d="M224 263l-53 -70v-193h-134v596h134v-225l172 225h159l-181 -235l194 -361h-150zM172 -244l34 204h119l-70 -204h-83z" glyph-name="kcommaaccent.smcp" horiz-adv-x="524" unicode=""/><glyph d="M224 263l-53 -70v-193h-134v596h134v-225l172 225h159l-181 -235l194 -361h-150zM172 -244l34 204h119l-70 -204h-83z" glyph-name="kcommaaccent.smcp" horiz-adv-x="524" unicode=""/><glyph d="M37 596h134v-468h201v-128h-335v596zM170 816h126l-150 -170h-91z" glyph-name="lacute.smcp" horiz-adv-x="400" unicode=""/><glyph d="M37 596h134v-468h201v-128h-335v596zM170 816h126l-150 -170h-91z" glyph-name="lacute.smcp" horiz-adv-x="400" unicode=""/><glyph d="M37 596h134v-468h201v-128h-335v596zM271 596h109l-51 -171h-83z" glyph-name="lcaron.smcp" horiz-adv-x="400" unicode=""/><glyph d="M37 596h134v-468h201v-128h-335v596zM271 596h109l-51 -171h-83z" glyph-name="lcaron.smcp" horiz-adv-x="400" unicode=""/><glyph d="M37 596h134v-468h201v-128h-335v596zM112 -254l34 204h119l-70 -204h-83z" glyph-name="lcommaaccent.smcp" horiz-adv-x="400" unicode=""/><glyph d="M37 596h134v-468h201v-128h-335v596zM112 -254l34 204h119l-70 -204h-83z" glyph-name="lcommaaccent.smcp" horiz-adv-x="400" unicode=""/><glyph d="M37 596h134v-468h200v-128h-334v596zM224 315q0 35 21.5 57t57.5 22q37 0 58 -22t21 -57t-21 -56.5t-58 -21.5q-38 0 -58.5 21.5t-20.5 56.5z" glyph-name="ldot.smcp" horiz-adv-x="399" unicode=""/><glyph d="M37 596h134v-468h200v-128h-334v596zM224 315q0 35 21.5 57t57.5 22q37 0 58 -22t21 -57t-21 -56.5t-58 -21.5q-38 0 -58.5 21.5t-20.5 56.5z" glyph-name="ldot.smcp" horiz-adv-x="399" unicode=""/><glyph d="M12 325l59 17v254h134v-214l134 41v-98l-134 -41v-156h201v-128h-335v244l-59 -17v98z" glyph-name="lslash.smcp" horiz-adv-x="434" unicode=""/><glyph d="M12 325l59 17v254h134v-214l134 41v-98l-134 -41v-156h201v-128h-335v244l-59 -17v98z" glyph-name="lslash.smcp" horiz-adv-x="434" unicode=""/><glyph d="M37 596h145l227 -359v359h133v-596h-134l-238 374v-374h-133v596zM363 816h126l-150 -170h-91z" glyph-name="nacute.smcp" horiz-adv-x="579" unicode=""/><glyph d="M37 596h145l227 -359v359h133v-596h-134l-238 374v-374h-133v596zM363 816h126l-150 -170h-91z" glyph-name="nacute.smcp" horiz-adv-x="579" unicode=""/><glyph d="M37 596h145l227 -359v359h133v-596h-134l-238 374v-374h-133v596zM125 646q0 61 27.5 98t76.5 37q25 0 43 -7.5t34 -16.5q14 -10 26.5 -17.5t25.5 -7.5q28 0 28 45h78q0 -62 -26 -98.5t-79 -36.5q-29 0 -49.5 10.5t-37.5 20.5q-11 7 -21.5 12t-21.5 5q-26 0 -26 -44h-78z" glyph-name="ntilde.smcp" horiz-adv-x="579" unicode=""/><glyph d="M37 596h145l227 -359v359h133v-596h-134l-238 374v-374h-133v596zM134 808h102l59 -89l59 89h102l-119 -170h-84z" glyph-name="ncaron.smcp" horiz-adv-x="579" unicode=""/><glyph d="M37 596h145l227 -359v359h133v-596h-134l-238 374v-374h-133v596zM134 808h102l59 -89l59 89h102l-119 -170h-84z" glyph-name="ncaron.smcp" horiz-adv-x="579" unicode=""/><glyph d="M37 596h145l227 -359v359h133v-596h-134l-238 374v-374h-133v596zM206 -254l34 204h119l-70 -204h-83z" glyph-name="ncommaaccent.smcp" horiz-adv-x="579" unicode=""/><glyph d="M37 596h145l227 -359v359h133v-596h-134l-238 374v-374h-133v596zM206 -254l34 204h119l-70 -204h-83z" glyph-name="ncommaaccent.smcp" horiz-adv-x="579" unicode=""/><glyph d="M326 -8q-64 0 -119.5 24t-96.5 65.5t-65 97t-24 119.5q0 63 24 119t65 97.5t96.5 65.5t119.5 24q63 0 119 -24t97.5 -65.5t65.5 -97.5t24 -119q0 -64 -24 -119.5t-65.5 -97t-97 -65.5t-119.5 -24zM326 124q37 0 68 13.5t53.5 37.5t35.5 55.5t13 67.5t-13 67.5t-35.5 55.5 t-54 37.5t-67.5 13.5t-67 -13.5t-53.5 -37.5t-35.5 -55.5t-13 -67.5t13 -67.5t35.5 -55.5t53.5 -37.5t67 -13.5zM392 816h126l-150 -170h-91z" glyph-name="oacute.smcp" horiz-adv-x="653" unicode=""/><glyph d="M326 -8q-64 0 -119.5 24t-96.5 65.5t-65 97t-24 119.5q0 63 24 119t65 97.5t96.5 65.5t119.5 24q63 0 119 -24t97.5 -65.5t65.5 -97.5t24 -119q0 -64 -24 -119.5t-65.5 -97t-97 -65.5t-119.5 -24zM326 124q37 0 68 13.5t53.5 37.5t35.5 55.5t13 67.5t-13 67.5t-35.5 55.5 t-54 37.5t-67.5 13.5t-67 -13.5t-53.5 -37.5t-35.5 -55.5t-13 -67.5t13 -67.5t35.5 -55.5t53.5 -37.5t67 -13.5zM392 816h126l-150 -170h-91z" glyph-name="oacute.smcp" horiz-adv-x="653" unicode=""/><glyph d="M326 -8q-64 0 -119.5 24t-96.5 65.5t-65 97t-24 119.5q0 63 24 119t65 97.5t96.5 65.5t119.5 24q63 0 119 -24t97.5 -65.5t65.5 -97.5t24 -119q0 -64 -24 -119.5t-65.5 -97t-97 -65.5t-119.5 -24zM326 124q37 0 68 13.5t53.5 37.5t35.5 55.5t13 67.5t-13 67.5t-35.5 55.5 t-54 37.5t-67.5 13.5t-67 -13.5t-53.5 -37.5t-35.5 -55.5t-13 -67.5t13 -67.5t35.5 -55.5t53.5 -37.5t67 -13.5zM144 816h127l114 -170h-91z" glyph-name="ograve.smcp" horiz-adv-x="653" unicode=""/><glyph d="M326 -8q-64 0 -119.5 24t-96.5 65.5t-65 97t-24 119.5q0 63 24 119t65 97.5t96.5 65.5t119.5 24q63 0 119 -24t97.5 -65.5t65.5 -97.5t24 -119q0 -64 -24 -119.5t-65.5 -97t-97 -65.5t-119.5 -24zM326 124q37 0 68 13.5t53.5 37.5t35.5 55.5t13 67.5t-13 67.5t-35.5 55.5 t-54 37.5t-67.5 13.5t-67 -13.5t-53.5 -37.5t-35.5 -55.5t-13 -67.5t13 -67.5t35.5 -55.5t53.5 -37.5t67 -13.5zM144 816h127l114 -170h-91z" glyph-name="ograve.smcp" horiz-adv-x="653" unicode=""/><glyph d="M326 -8q-64 0 -119.5 24t-96.5 65.5t-65 97t-24 119.5q0 63 24 119t65 97.5t96.5 65.5t119.5 24q63 0 119 -24t97.5 -65.5t65.5 -97.5t24 -119q0 -64 -24 -119.5t-65.5 -97t-97 -65.5t-119.5 -24zM326 124q37 0 68 13.5t53.5 37.5t35.5 55.5t13 67.5t-13 67.5t-35.5 55.5 t-54 37.5t-67.5 13.5t-67 -13.5t-53.5 -37.5t-35.5 -55.5t-13 -67.5t13 -67.5t35.5 -55.5t53.5 -37.5t67 -13.5zM284 816h84l119 -170h-102l-59 89l-59 -89h-102z" glyph-name="ocircumflex.smcp" horiz-adv-x="653" unicode=""/><glyph d="M326 -8q-64 0 -119.5 24t-96.5 65.5t-65 97t-24 119.5q0 63 24 119t65 97.5t96.5 65.5t119.5 24q63 0 119 -24t97.5 -65.5t65.5 -97.5t24 -119q0 -64 -24 -119.5t-65.5 -97t-97 -65.5t-119.5 -24zM326 124q37 0 68 13.5t53.5 37.5t35.5 55.5t13 67.5t-13 67.5t-35.5 55.5 t-54 37.5t-67.5 13.5t-67 -13.5t-53.5 -37.5t-35.5 -55.5t-13 -67.5t13 -67.5t35.5 -55.5t53.5 -37.5t67 -13.5zM284 816h84l119 -170h-102l-59 89l-59 -89h-102z" glyph-name="ocircumflex.smcp" horiz-adv-x="653" unicode=""/><glyph d="M326 -8q-64 0 -119.5 24t-96.5 65.5t-65 97t-24 119.5q0 63 24 119t65 97.5t96.5 65.5t119.5 24q63 0 119 -24t97.5 -65.5t65.5 -97.5t24 -119q0 -64 -24 -119.5t-65.5 -97t-97 -65.5t-119.5 -24zM326 124q37 0 68 13.5t53.5 37.5t35.5 55.5t13 67.5t-13 67.5t-35.5 55.5 t-54 37.5t-67.5 13.5t-67 -13.5t-53.5 -37.5t-35.5 -55.5t-13 -67.5t13 -67.5t35.5 -55.5t53.5 -37.5t67 -13.5zM159 715q0 32 19.5 52t52.5 20q34 0 53 -20t19 -52t-19 -51.5t-53 -19.5t-53 19.5t-19 51.5zM350 715q0 32 19.5 52t52.5 20t52.5 -20t19.5 -52t-19.5 -51.5 t-52.5 -19.5q-35 0 -53.5 19.5t-18.5 51.5z" glyph-name="odieresis.smcp" horiz-adv-x="653" unicode=""/><glyph d="M326 -8q-64 0 -119.5 24t-96.5 65.5t-65 97t-24 119.5q0 63 24 119t65 97.5t96.5 65.5t119.5 24q63 0 119 -24t97.5 -65.5t65.5 -97.5t24 -119q0 -64 -24 -119.5t-65.5 -97t-97 -65.5t-119.5 -24zM326 124q37 0 68 13.5t53.5 37.5t35.5 55.5t13 67.5t-13 67.5t-35.5 55.5 t-54 37.5t-67.5 13.5t-67 -13.5t-53.5 -37.5t-35.5 -55.5t-13 -67.5t13 -67.5t35.5 -55.5t53.5 -37.5t67 -13.5zM159 715q0 32 19.5 52t52.5 20q34 0 53 -20t19 -52t-19 -51.5t-53 -19.5t-53 19.5t-19 51.5zM350 715q0 32 19.5 52t52.5 20t52.5 -20t19.5 -52t-19.5 -51.5 t-52.5 -19.5q-35 0 -53.5 19.5t-18.5 51.5z" glyph-name="odieresis.smcp" horiz-adv-x="653" unicode=""/><glyph d="M326 -8q-64 0 -119.5 24t-96.5 65.5t-65 97t-24 119.5q0 63 24 119t65 97.5t96.5 65.5t119.5 24q63 0 119 -24t97.5 -65.5t65.5 -97.5t24 -119q0 -64 -24 -119.5t-65.5 -97t-97 -65.5t-119.5 -24zM326 124q37 0 68 13.5t53.5 37.5t35.5 55.5t13 67.5t-13 67.5t-35.5 55.5 t-54 37.5t-67.5 13.5t-67 -13.5t-53.5 -37.5t-35.5 -55.5t-13 -67.5t13 -67.5t35.5 -55.5t53.5 -37.5t67 -13.5zM167 646q0 61 27.5 98t76.5 37q25 0 43 -7.5t34 -16.5q14 -10 26.5 -17.5t25.5 -7.5q28 0 28 45h78q0 -62 -26 -98.5t-79 -36.5q-29 0 -49.5 10.5t-37.5 20.5 q-11 7 -21.5 12t-21.5 5q-26 0 -26 -44h-78z" glyph-name="otilde.smcp" horiz-adv-x="653" unicode=""/><glyph d="M326 -8q-64 0 -119.5 24t-96.5 65.5t-65 97t-24 119.5q0 63 24 119t65 97.5t96.5 65.5t119.5 24q63 0 119 -24t97.5 -65.5t65.5 -97.5t24 -119q0 -64 -24 -119.5t-65.5 -97t-97 -65.5t-119.5 -24zM326 124q37 0 68 13.5t53.5 37.5t35.5 55.5t13 67.5t-13 67.5t-35.5 55.5 t-54 37.5t-67.5 13.5t-67 -13.5t-53.5 -37.5t-35.5 -55.5t-13 -67.5t13 -67.5t35.5 -55.5t53.5 -37.5t67 -13.5zM167 646q0 61 27.5 98t76.5 37q25 0 43 -7.5t34 -16.5q14 -10 26.5 -17.5t25.5 -7.5q28 0 28 45h78q0 -62 -26 -98.5t-79 -36.5q-29 0 -49.5 10.5t-37.5 20.5 q-11 7 -21.5 12t-21.5 5q-26 0 -26 -44h-78z" glyph-name="otilde.smcp" horiz-adv-x="653" unicode=""/><glyph d="M326 -8q-64 0 -119.5 24t-96.5 65.5t-65 97t-24 119.5q0 63 24 119t65 97.5t96.5 65.5t119.5 24q63 0 119 -24t97.5 -65.5t65.5 -97.5t24 -119q0 -64 -24 -119.5t-65.5 -97t-97 -65.5t-119.5 -24zM326 124q37 0 68 13.5t53.5 37.5t35.5 55.5t13 67.5t-13 67.5t-35.5 55.5 t-54 37.5t-67.5 13.5t-67 -13.5t-53.5 -37.5t-35.5 -55.5t-13 -67.5t13 -67.5t35.5 -55.5t53.5 -37.5t67 -13.5zM194 732h264v-86h-264v86z" glyph-name="omacron.smcp" horiz-adv-x="653" unicode=""/><glyph d="M326 -8q-64 0 -119.5 24t-96.5 65.5t-65 97t-24 119.5q0 63 24 119t65 97.5t96.5 65.5t119.5 24q63 0 119 -24t97.5 -65.5t65.5 -97.5t24 -119q0 -64 -24 -119.5t-65.5 -97t-97 -65.5t-119.5 -24zM326 124q37 0 68 13.5t53.5 37.5t35.5 55.5t13 67.5t-13 67.5t-35.5 55.5 t-54 37.5t-67.5 13.5t-67 -13.5t-53.5 -37.5t-35.5 -55.5t-13 -67.5t13 -67.5t35.5 -55.5t53.5 -37.5t67 -13.5zM194 732h264v-86h-264v86z" glyph-name="omacron.smcp" horiz-adv-x="653" unicode=""/><glyph d="M326 -8q-64 0 -119.5 24t-96.5 65.5t-65 97t-24 119.5q0 63 24 119t65 97.5t96.5 65.5t119.5 24q63 0 119 -24t97.5 -65.5t65.5 -97.5t24 -119q0 -64 -24 -119.5t-65.5 -97t-97 -65.5t-119.5 -24zM326 124q37 0 68 13.5t53.5 37.5t35.5 55.5t13 67.5t-13 67.5t-35.5 55.5 t-54 37.5t-67.5 13.5t-67 -13.5t-53.5 -37.5t-35.5 -55.5t-13 -67.5t13 -67.5t35.5 -55.5t53.5 -37.5t67 -13.5zM326 638q-41 0 -71.5 13t-50.5 35.5t-29.5 54t-9.5 67.5h85q0 -48 19.5 -71t56.5 -25q36 2 56 25t20 71h86q0 -36 -11 -67.5t-32 -54t-51 -35.5t-68 -13z" glyph-name="obreve.smcp" horiz-adv-x="653" unicode=""/><glyph d="M326 -8q-64 0 -119.5 24t-96.5 65.5t-65 97t-24 119.5q0 63 24 119t65 97.5t96.5 65.5t119.5 24q63 0 119 -24t97.5 -65.5t65.5 -97.5t24 -119q0 -64 -24 -119.5t-65.5 -97t-97 -65.5t-119.5 -24zM326 124q37 0 68 13.5t53.5 37.5t35.5 55.5t13 67.5t-13 67.5t-35.5 55.5 t-54 37.5t-67.5 13.5t-67 -13.5t-53.5 -37.5t-35.5 -55.5t-13 -67.5t13 -67.5t35.5 -55.5t53.5 -37.5t67 -13.5zM326 638q-41 0 -71.5 13t-50.5 35.5t-29.5 54t-9.5 67.5h85q0 -48 19.5 -71t56.5 -25q36 2 56 25t20 71h86q0 -36 -11 -67.5t-32 -54t-51 -35.5t-68 -13z" glyph-name="obreve.smcp" horiz-adv-x="653" unicode=""/><glyph d="M326 -8q-64 0 -119.5 24t-96.5 65.5t-65 97t-24 119.5q0 63 24 119t65 97.5t96.5 65.5t119.5 24q63 0 119 -24t97.5 -65.5t65.5 -97.5t24 -119q0 -64 -24 -119.5t-65.5 -97t-97 -65.5t-119.5 -24zM326 124q37 0 68 13.5t53.5 37.5t35.5 55.5t13 67.5t-13 67.5t-35.5 55.5 t-54 37.5t-67.5 13.5t-67 -13.5t-53.5 -37.5t-35.5 -55.5t-13 -67.5t13 -67.5t35.5 -55.5t53.5 -37.5t67 -13.5zM309 813h120l-150 -170h-84zM475 813h120l-150 -170h-84z" glyph-name="ohungarumlaut.smcp" horiz-adv-x="653" unicode=""/><glyph d="M326 -8q-64 0 -119.5 24t-96.5 65.5t-65 97t-24 119.5q0 63 24 119t65 97.5t96.5 65.5t119.5 24q63 0 119 -24t97.5 -65.5t65.5 -97.5t24 -119q0 -64 -24 -119.5t-65.5 -97t-97 -65.5t-119.5 -24zM326 124q37 0 68 13.5t53.5 37.5t35.5 55.5t13 67.5t-13 67.5t-35.5 55.5 t-54 37.5t-67.5 13.5t-67 -13.5t-53.5 -37.5t-35.5 -55.5t-13 -67.5t13 -67.5t35.5 -55.5t53.5 -37.5t67 -13.5zM309 813h120l-150 -170h-84zM475 813h120l-150 -170h-84z" glyph-name="ohungarumlaut.smcp" horiz-adv-x="653" unicode=""/><glyph d="M326 -8q-40 0 -77 9.5t-69 26.5l-23 -28h-150l84 102q-33 40 -51.5 89.5t-18.5 106.5q0 63 24 119t65 97.5t96.5 65.5t119.5 24q41 0 78 -10t70 -29l25 31h150l-86 -105q32 -40 50.5 -89t18.5 -104q0 -64 -24 -119.5t-65.5 -97t-97 -65.5t-119.5 -24zM156 298 q0 -49 23 -89l208 252q-30 11 -61 11q-36 0 -67 -13.5t-54 -37.5t-36 -55.5t-13 -67.5zM326 124q37 0 68 13.5t53.5 37.5t35.5 55.5t13 67.5q0 47 -22 86l-207 -250q26 -10 59 -10z" glyph-name="oslash.smcp" horiz-adv-x="653" unicode=""/><glyph d="M326 -8q-40 0 -77 9.5t-69 26.5l-23 -28h-150l84 102q-33 40 -51.5 89.5t-18.5 106.5q0 63 24 119t65 97.5t96.5 65.5t119.5 24q41 0 78 -10t70 -29l25 31h150l-86 -105q32 -40 50.5 -89t18.5 -104q0 -64 -24 -119.5t-65.5 -97t-97 -65.5t-119.5 -24zM156 298 q0 -49 23 -89l208 252q-30 11 -61 11q-36 0 -67 -13.5t-54 -37.5t-36 -55.5t-13 -67.5zM326 124q37 0 68 13.5t53.5 37.5t35.5 55.5t13 67.5q0 47 -22 86l-207 -250q26 -10 59 -10z" glyph-name="oslash.smcp" horiz-adv-x="653" unicode=""/><glyph d="M326 -8q-40 0 -77 9.5t-69 26.5l-23 -28h-150l84 102q-33 40 -51.5 89.5t-18.5 106.5q0 63 24 119t65 97.5t96.5 65.5t119.5 24q41 0 78 -10t70 -29l25 31h150l-86 -105q32 -40 50.5 -89t18.5 -104q0 -64 -24 -119.5t-65.5 -97t-97 -65.5t-119.5 -24zM156 298 q0 -49 23 -89l208 252q-30 11 -61 11q-36 0 -67 -13.5t-54 -37.5t-36 -55.5t-13 -67.5zM326 124q37 0 68 13.5t53.5 37.5t35.5 55.5t13 67.5q0 47 -22 86l-207 -250q26 -10 59 -10zM386 816h126l-150 -170h-91z" glyph-name="oslashacute.smcp" horiz-adv-x="653" unicode=""/><glyph d="M326 -8q-40 0 -77 9.5t-69 26.5l-23 -28h-150l84 102q-33 40 -51.5 89.5t-18.5 106.5q0 63 24 119t65 97.5t96.5 65.5t119.5 24q41 0 78 -10t70 -29l25 31h150l-86 -105q32 -40 50.5 -89t18.5 -104q0 -64 -24 -119.5t-65.5 -97t-97 -65.5t-119.5 -24zM156 298 q0 -49 23 -89l208 252q-30 11 -61 11q-36 0 -67 -13.5t-54 -37.5t-36 -55.5t-13 -67.5zM326 124q37 0 68 13.5t53.5 37.5t35.5 55.5t13 67.5q0 47 -22 86l-207 -250q26 -10 59 -10zM386 816h126l-150 -170h-91z" glyph-name="oslashacute.smcp" horiz-adv-x="653" unicode=""/><glyph d="M500 53q-35 -29 -78.5 -45t-95.5 -16q-64 0 -119.5 24t-96.5 65.5t-65 97t-24 119.5q0 63 24 119t65 97.5t96.5 65.5t119.5 24q52 0 95.5 -16.5t78.5 -45.5v54h354v-125h-221v-109h221v-126h-221v-111h221v-125h-354v53zM326 124q37 0 68 13.5t53.5 37.5t35.5 55.5 t13 67.5t-13 67.5t-35.5 55.5t-54 37.5t-67.5 13.5t-67 -13.5t-53.5 -37.5t-35.5 -55.5t-13 -67.5t13 -67.5t35.5 -55.5t53.5 -37.5t67 -13.5z" glyph-name="oe.smcp" horiz-adv-x="885" unicode=""/><glyph d="M500 53q-35 -29 -78.5 -45t-95.5 -16q-64 0 -119.5 24t-96.5 65.5t-65 97t-24 119.5q0 63 24 119t65 97.5t96.5 65.5t119.5 24q52 0 95.5 -16.5t78.5 -45.5v54h354v-125h-221v-109h221v-126h-221v-111h221v-125h-354v53zM326 124q37 0 68 13.5t53.5 37.5t35.5 55.5 t13 67.5t-13 67.5t-35.5 55.5t-54 37.5t-67.5 13.5t-67 -13.5t-53.5 -37.5t-35.5 -55.5t-13 -67.5t13 -67.5t35.5 -55.5t53.5 -37.5t67 -13.5z" glyph-name="oe.smcp" horiz-adv-x="885" unicode=""/><glyph d="M37 596h207q53 0 95 -16t70.5 -44t43.5 -64.5t15 -78.5q0 -57 -28.5 -104t-85.5 -71l130 -218h-152l-162 289v-289h-133v596zM170 473v-168h64q25 0 43 7.5t30 19.5t17.5 27.5t5.5 31.5q0 82 -96 82h-64zM286 816h126l-150 -170h-91z" glyph-name="racute.smcp" horiz-adv-x="489" unicode=""/><glyph d="M37 596h207q53 0 95 -16t70.5 -44t43.5 -64.5t15 -78.5q0 -57 -28.5 -104t-85.5 -71l130 -218h-152l-162 289v-289h-133v596zM170 473v-168h64q25 0 43 7.5t30 19.5t17.5 27.5t5.5 31.5q0 82 -96 82h-64zM286 816h126l-150 -170h-91z" glyph-name="racute.smcp" horiz-adv-x="489" unicode=""/><glyph d="M37 596h207q53 0 95 -16t70.5 -44t43.5 -64.5t15 -78.5q0 -57 -28.5 -104t-85.5 -71l130 -218h-152l-162 289v-289h-133v596zM77 816h102l59 -89l59 89h102l-119 -170h-84zM170 473v-168h64q25 0 43 7.5t30 19.5t17.5 27.5t5.5 31.5q0 82 -96 82h-64z" glyph-name="rcaron.smcp" horiz-adv-x="489" unicode=""/><glyph d="M37 596h207q53 0 95 -16t70.5 -44t43.5 -64.5t15 -78.5q0 -57 -28.5 -104t-85.5 -71l130 -218h-152l-162 289v-289h-133v596zM77 816h102l59 -89l59 89h102l-119 -170h-84zM170 473v-168h64q25 0 43 7.5t30 19.5t17.5 27.5t5.5 31.5q0 82 -96 82h-64z" glyph-name="rcaron.smcp" horiz-adv-x="489" unicode=""/><glyph d="M37 596h207q53 0 95 -16t70.5 -44t43.5 -64.5t15 -78.5q0 -57 -28.5 -104t-85.5 -71l130 -218h-152l-162 289v-289h-133v596zM170 473v-168h64q25 0 43 7.5t30 19.5t17.5 27.5t5.5 31.5q0 82 -96 82h-64zM154 -252l34 204h119l-70 -204h-83z" glyph-name="rcommaaccent.smcp" horiz-adv-x="489" unicode=""/><glyph d="M37 596h207q53 0 95 -16t70.5 -44t43.5 -64.5t15 -78.5q0 -57 -28.5 -104t-85.5 -71l130 -218h-152l-162 289v-289h-133v596zM170 473v-168h64q25 0 43 7.5t30 19.5t17.5 27.5t5.5 31.5q0 82 -96 82h-64zM154 -252l34 204h119l-70 -204h-83z" glyph-name="rcommaaccent.smcp" horiz-adv-x="489" unicode=""/><glyph d="M260 -8q-101 0 -162 58t-61 165v381h134v-385q0 -44 24 -70.5t64 -26.5t65 26.5t25 70.5v385h134v-381q0 -54 -16 -95.5t-45 -70t-70.5 -43t-91.5 -14.5zM219 816h84l119 -170h-102l-59 89l-59 -89h-102z" glyph-name="ucircumflex.smcp" horiz-adv-x="519" unicode=""/><glyph d="M260 -8q-101 0 -162 58t-61 165v381h134v-385q0 -44 24 -70.5t64 -26.5t65 26.5t25 70.5v385h134v-381q0 -54 -16 -95.5t-45 -70t-70.5 -43t-91.5 -14.5zM219 816h84l119 -170h-102l-59 89l-59 -89h-102z" glyph-name="ucircumflex.smcp" horiz-adv-x="519" unicode=""/><glyph d="M307 816h126l-150 -170h-91zM244 -8q-43 0 -78 8.5t-63.5 23.5t-51.5 34.5t-43 41.5l117 92q22 -35 53 -55t66 -20q36 0 56.5 19t20.5 44q0 15 -9.5 26t-25.5 19t-36.5 14l-43.5 13q-30 9 -60 20.5t-54.5 31t-40 48.5t-15.5 73q0 39 15 72t42 57t64.5 37.5t82.5 13.5 q78 0 127 -27.5t83 -65.5l-108 -83q-17 28 -43 43.5t-58 15.5t-50.5 -16t-18.5 -39q0 -15 9 -25.5t24.5 -18.5t36 -14.5l43.5 -13.5q30 -9 61 -21.5t56.5 -32.5t41.5 -50t16 -74q0 -37 -14.5 -71.5t-42 -61t-68 -42.5t-91.5 -16z" glyph-name="sacute.smcp" horiz-adv-x="488" unicode=""/><glyph d="M307 816h126l-150 -170h-91zM244 -8q-43 0 -78 8.5t-63.5 23.5t-51.5 34.5t-43 41.5l117 92q22 -35 53 -55t66 -20q36 0 56.5 19t20.5 44q0 15 -9.5 26t-25.5 19t-36.5 14l-43.5 13q-30 9 -60 20.5t-54.5 31t-40 48.5t-15.5 73q0 39 15 72t42 57t64.5 37.5t82.5 13.5 q78 0 127 -27.5t83 -65.5l-108 -83q-17 28 -43 43.5t-58 15.5t-50.5 -16t-18.5 -39q0 -15 9 -25.5t24.5 -18.5t36 -14.5l43.5 -13.5q30 -9 61 -21.5t56.5 -32.5t41.5 -50t16 -74q0 -37 -14.5 -71.5t-42 -61t-68 -42.5t-91.5 -16z" glyph-name="sacute.smcp" horiz-adv-x="488" unicode=""/></font>
</defs>
</svg>
