<svg xmlns="http://www.w3.org/2000/svg" viewBox="0 0 296.73 296.73"><path d="M92.42,68.92s4.4-30.39,6-38.09S106.51,17.4,112.9,17.4s13.43,5.5,13.87,13,2,43.81,2,43.81c0,4.38-4.16,6.11-9.11,6s-25.93,10.32-30,14.12-4.88,2.81-4.88-.74-.57-12.8,3-16.52S91.87,72.69,92.42,68.92Z" style="fill:#ba58a1"/><path d="M135.14,145.53c-26,1.17-44,10.68-59.12,31.05,0,0,43.37-3.19,65.83-4.18s70.9-1.22,70.9-1.22C186.33,146.63,177,143.66,135.14,145.53Z" style="fill:#ba58a1"/><path d="M157.7,71.55s-.44-43.38-.44-47.12,4.19-8.59,9.47-9.8,13.54-.11,15.86,7.93,9.24,40.51,9.24,40.51,11.78,8.48,11.78,16.74.11,12.88-3.41,10.24-26-12.55-32.7-13-10-.22-9.91-2.87Z" style="fill:#ba58a1"/><path d="M239.72,183.73c-2.42-4.07.11-12.77-1.65-34.34S233,114.27,205.7,82.12c.33,5.61-.22,9.36-2.64,10.68s-13.65-5.07-21.47-9.14-19.92-4.73-24.66-6-.66-10.57-1.87-12-22.46-1.1-24.33.44,1.21,7.59.33,12.11-18.27,5.61-26.53,9.9-18,11.12-20.48,12.56-1.21-10.46-1.21-10.46c-19.15,25.65-20.47,41.94-21.47,53.61S60.05,171,60.16,177.13s-6.49,18.16-9.35,29-4.63,17.4-.56,23.34c-1.3-12,11.89-20.69,20.15-25.1s10.35-13.65,14.09-26.53l-12.33.79s14.54-34.81,67.27-36.35c58.69-1.72,69,23.56,76.51,30.28l-13.21.33c6,10.89,6.28,21.13,16.19,26.64s33,13.76,33.46,20.47C255.58,205.75,242.14,187.81,239.72,183.73Zm-82.25-55.6L144,121.72l-12.9,7.44,1.94-14.77-11.05-10,14.64-2.71,6.06-13.59,7.11,13.08,14.8,1.57-10.25,10.8Z" style="fill:#ba58a1"/><path d="M149.84,278.49c-10.08-1.21-17.07-9.33-12.2-12.54,2.71-1.79,4,3.35,13.21,3.6,8.09-.74,9.59-5.58,13.44-3C168.75,269.59,160.71,279.06,149.84,278.49Z" style="fill:#ba58a1"/><path d="M132.93,269.13c-36.11-10-58.45-24.76-69.13-58.79l8.14-4.81c1.87,30.66,28.3,52.66,62.2,60.36Z" style="fill:#ba58a1"/><path d="M168,268.36c33.08-12.45,50.92-32.05,64.52-58.63l-8-4.21c-3.27,19.13-28.37,47.62-57.78,59.82Z" style="fill:#ba58a1"/><circle cx="148.37" cy="148.37" r="148.37" style="fill:none"/></svg>