<svg id="Layer_1" data-name="Layer 1" xmlns="http://www.w3.org/2000/svg" viewBox="0 0 117.32 117.35"><defs><style>.cls-1{fill:#0b0009;}</style></defs><title>volume</title><path class="cls-1" d="M.05,25.71C-.31,22,1.26,18.84,3.49,16.06A110.6,110.6,0,0,1,17.07,2.18c3.43-3,7.48-3,10,.66,5.57,8.06,10.7,16.42,15.74,24.82,1.75,2.91-.5,5.09-2.72,6.66a42.61,42.61,0,0,1-5.73,3c-6.64,3.3-7.42,4.5-4.64,11.14,8,19,21.3,32.57,41.14,39.31,3.9,1.33,6.36.52,8.08-3.2,7.39-16,8.66-11.65,19.47-5.09,4.68,2.84,9.44,5.58,14,8.63,6.14,4.13,6.44,8,1.34,13.41-.11.12-.21.26-.33.38-18.19,17.8-16.56,19.74-45.43,8.32C32,96,9.46,68.74.72,30.65.35,29,.27,27.36.05,25.71Z"/></svg>