<svg id="Layer_1" data-name="Layer 1" xmlns="http://www.w3.org/2000/svg" viewBox="0 0 130.78 110.49"><defs><style>.cls-1{fill:#0b0009;}</style></defs><title>volume</title><path class="cls-1" d="M65.43,0q26.75,0,53.5,0c9.16,0,11.83,2.74,11.84,12q0,32,0,64c0,8-3.41,11.4-11.6,11.41-14.33,0-28.67,0-43,0-1.48,0-3.89-.91-4.2,1.32-.34,2.48,2.28,2.48,3.94,2.86C85.46,93.84,95,95.93,104.61,98c2.73.6,5.68,1.1,3.79,5-1.39,2.9,1.09,9.07-6.37,7-8.15-2.24-16.64-3.28-24.76-5.62-9.42-2.72-18.42-1.33-27.56.9-7.1,1.73-14.31,3-21.37,4.88-3.16.83-4.32-.31-4.87-3a19.75,19.75,0,0,0-.81-3.89c-1.58-3.62.29-4.59,3.42-5.24,9.58-2,19.13-4.19,28.69-6.32.81-.18,1.62-.39,2.42-.6,1.28-.34,2.11-1.08,1.81-2.48s-1.44-1.2-2.41-1.21c-3.5,0-7,0-10.5,0-11.5,0-23,0-34.5,0C3.77,87.4,0,83.65,0,75.73Q0,43.48,0,11.23C.05,3.46,3.55,0,11.43,0,29.43,0,47.43,0,65.43,0Zm-.19,75c16.17,0,32.33-.07,48.49.06,3.47,0,5.11-.67,5.06-4.64q-.27-27,0-54c0-3.56-1.4-4.06-4.42-4.05q-48.73.11-97.48,0c-3.44,0-4.6.92-4.56,4.49q.24,26.73,0,53.48c0,3.82,1.29,4.78,4.92,4.75C33.25,75,49.25,75.05,65.24,75.05Z"/></svg>