<svg id="Layer_1" data-name="Layer 1" xmlns="http://www.w3.org/2000/svg" viewBox="0 0 116.26 115.88"><defs><style>.cls-1{fill:#0b0009;}</style></defs><title>volume</title><path class="cls-1" d="M0,56.88c0-4.33,0-8.66,0-13,.07-6.07,2.35-8.4,8.49-8.51,5.33-.1,10.66,0,16-.06,1.55,0,3.68.85,4.44-1.14.63-1.65-1.25-2.55-2.25-3.56-6.45-6.49-12.91-13-19.51-19.33C4.94,9.13,3.45,7.05,6.74,5c2.57-1.62,3.73-7.7,8.8-2.57,24.1,24.36,48.4,48.53,72.63,72.76,8.59,8.6,17.08,17.3,25.83,25.72,2.61,2.52,3.34,4.29.12,6.59a10.05,10.05,0,0,0-2.1,2.12c-2.06,2.74-3.87,2.79-6.33.21C100,103.8,94,98,88.1,92.14c-.93-.94-1.82-2.31-3.25-1.84-1.66.55-1,2.27-1,3.5-.07,5,0,10,0,15,0,2.45.57,5.37-2.15,6.69s-4.65-1-6.44-2.64c-8-7.23-16.6-14-23.81-22-8.09-9-17-13.51-29.21-11.62-4.23.66-8.64.17-13,.14-6.4,0-9.15-2.74-9.21-9C0,65.87,0,61.38,0,56.88Z"/><path class="cls-1" d="M82.16,46.13q-13-13.37-26-26.74c-1.34-1.37-1.42-2.5.17-3.66,6.71-4.89,13.28-10,20.19-14.58,3.79-2.53,7.12-.72,7.19,3.78.2,13.43.07,26.86.07,40.29Z"/></svg>