<?xml version="1.0" encoding="UTF-8" standalone="no"?>
<!DOCTYPE svg PUBLIC "-//W3C//DTD SVG 1.1//EN" "http://www.w3.org/Graphics/SVG/1.1/DTD/svg11.dtd">
<svg width="100%" height="100%" viewBox="0 0 93 83" version="1.1" xmlns="http://www.w3.org/2000/svg" xmlns:xlink="http://www.w3.org/1999/xlink" xml:space="preserve" xmlns:serif="http://www.serif.com/" style="fill-rule:evenodd;clip-rule:evenodd;stroke-linejoin:round;stroke-miterlimit:2;">
    <path d="M84.642,7.145C84.642,7.145 81.042,4.583 77.454,3.213C73.664,1.767 69.595,1.205 65.577,0.732C53.929,-0.64 41.969,-0.283 30.793,3.61C5.229,12.515 -10.335,46.667 7.987,69.57C24.861,90.662 63.247,84.91 75.757,61.294C85.084,43.686 65.419,47.484 68.797,36.229C72.136,25.1 108.407,23.426 84.642,7.145ZM32.502,59.687C36.569,59.689 39.914,63.034 39.916,67.101C39.914,71.168 36.569,74.513 32.502,74.515C28.435,74.513 25.09,71.168 25.088,67.101C25.09,63.035 28.436,59.689 32.502,59.687ZM15.339,47.486C19.406,47.488 22.751,50.833 22.753,54.9C22.751,58.967 19.406,62.312 15.339,62.314C11.273,62.312 7.927,58.966 7.925,54.9C7.927,50.833 11.272,47.488 15.339,47.486ZM16.623,25.017C20.69,25.019 24.035,28.364 24.037,32.431C24.035,36.498 20.69,39.843 16.623,39.845C12.556,39.843 9.211,36.497 9.21,32.43C9.212,28.364 12.558,25.018 16.624,25.016L16.623,25.017ZM34.253,8.613C38.32,8.615 41.665,11.96 41.667,16.027C41.665,20.094 38.32,23.439 34.253,23.441C30.187,23.439 26.841,20.093 26.839,16.027C26.841,11.96 30.186,8.615 34.253,8.613Z" style="fill:white;"/>
</svg>
