<svg id="Layer_1" data-name="Layer 1" xmlns="http://www.w3.org/2000/svg" viewBox="0 0 111.41 113.81"><defs><style>.cls-1{fill:#0b0009;}</style></defs><title>volume</title><path class="cls-1" d="M111.18,89.12c2.23,12.54-12.42,25.56-24.6,24.65-13.88-1-24.44-10.73-24.51-24.7a25,25,0,0,1,25.08-25.4C99.24,63.62,113,74.89,111.18,89.12Z"/><path class="cls-1" d="M87.8,47.46c-4.33,0-8.65.07-13,0-5.73-.12-9.57-3.4-9.76-9.08-.3-9-.28-17.95,0-26.92.15-5.59,3.62-8.91,9.22-9q13.45-.29,26.92,0c5.48.11,8.74,3.19,8.89,8.7q.39,13.71,0,27.42c-.19,5.87-3.76,8.84-9.77,8.92C96.1,47.51,92,47.47,87.8,47.46Z"/><path class="cls-1" d="M24.23,110.5c-4.33,0-8.67.13-13,0-5.59-.2-9-3.57-9.1-9.13q-.19-13.25,0-26.49c.09-5.73,3.61-9.43,9.34-9.57q13-.32,26,0c6,.14,9.54,3.93,9.61,9.82q.14,13,0,26c-.06,5.85-3.39,9.16-9.34,9.35C33.23,110.61,28.73,110.5,24.23,110.5Z"/><path class="cls-1" d="M.07,32.11c.59-5.19-1-11.34,2-17.28C7.78,3.47,18.69-1.92,32.07.62c9.28,1.75,18,12.05,18.81,22.81.48,7,.34,14,.18,21-.09,4.38-2.91,6.89-7,6.85s-6.74-2.69-6.89-7,0-8.67,0-13c0-1.73.25-3.63,1.62-4.56,4.38-2.95,2.53-6.27.76-9.49-3-5.53-10-9.29-15.88-8.36C16.45,10,11.83,14.46,9.29,21.21a3.32,3.32,0,0,0,.88,4c3.64,3.67,5.34,18.09,2.72,22.5-1.83,3.1-4.74,4-8.17,3.27S-.19,48.07,0,44.46C.25,40.64.07,36.79.07,32.11Z"/></svg>