<svg id="Layer_1" data-name="Layer 1" xmlns="http://www.w3.org/2000/svg" viewBox="0 0 84.79 126.49"><defs><style>.cls-1{fill:#0b0009;}</style></defs><title>volume</title><path class="cls-1" d="M34.14,99.75c0-5.83,0-11.66,0-17.5,0-1.07.5-2.62-1-3-.73-.17-1.81.59-2.56,1.16-6.48,4.94-13.06,9.77-19.32,15-3,2.51-4.72,2.43-7.1-.79-5.11-6.93-5.29-6.83,1.67-12.23s13.64-10.64,20.6-15.76c3.25-2.4,4.2-3.95.21-6.83C18.18,53.68,10.11,47,1.75,40.69-.35,39.11-.52,38.11,1,35.92c5.78-8.3,5.71-8.39,13.5-2.45,5.16,3.93,10.21,8,15.39,11.89,1,.75,2,2.26,3.37,1.64s.84-2.35.84-3.6c0-10.5,0-21,0-31.49,0-4.38-.21-8.86,4.72-11.12,4.54-2.08,7.87.3,11.31,2.92C59.69,10.94,69.36,18,78.94,25.15c7.69,5.75,7.8,12,.27,17.88Q68.19,51.6,57,60c-3,2.24-3.43,3.95-.09,6.4C64.27,71.75,71.46,77.41,78.69,83c8.15,6.3,8.13,12.4,0,18.48q-14.78,11-29.53,22.11c-3.24,2.44-6.62,4-10.6,2s-4.45-5.49-4.42-9.33C34.16,110.74,34.14,105.25,34.14,99.75ZM47.6,92.11c0,4,0,8,0,11.94,0,2.17.65,3.28,2.93,1.55,5-3.81,10.07-7.52,15.09-11.29,1.7-1.28,2.47-2.47.18-4.16-4.93-3.63-9.68-7.5-14.54-11.24-2.29-1.76-3.83-2-3.71,1.75S47.6,88.29,47.6,92.11Zm0-58c0,3.83.1,7.66,0,11.49-.11,3.36,1,4,3.66,2,4.87-3.75,9.65-7.62,14.59-11.27,2.35-1.73,1.42-2.92-.24-4.17-4.92-3.69-9.9-7.29-14.76-11-2.37-1.83-3.2-1.13-3.21,1.54C47.59,26.44,47.6,30.27,47.6,34.1Z"/></svg>