<svg id="Layer_1" data-name="Layer 1" xmlns="http://www.w3.org/2000/svg" viewBox="0 0 93.93 113.79"><defs><style>.cls-1{fill:#0b0009;}</style></defs><title>volume</title><path class="cls-1" d="M47.34,84.27c-14,0-28-.09-42,.06-3.42,0-4.61-.94-4.58-4.51.14-23.15,0-46.31.09-69.46C.89,3.45,4.39,0,11.36,0q36,0,72,0c7,0,10.47,3.43,10.48,10.34,0,23.16,0,46.31.09,69.47,0,3.58-1.17,4.54-4.58,4.5C75.32,84.18,61.33,84.27,47.34,84.27Zm7.24-16.13a7.24,7.24,0,1,0-14.48.27,7.25,7.25,0,0,0,14.48-.27Z"/><path class="cls-1" d="M47.28,113.77c-11.82,0-23.63.06-35.45,0A11.78,11.78,0,0,1,.92,97.3C1.82,95,3.76,96,5.22,96c18.64-.07,37.27,0,55.91,0,9.49,0,19,.1,28.46-.06,3,0,4.35.5,4.34,4,0,11.14-2.53,13.85-13.7,13.85Z"/></svg>