<svg id="Layer_1" data-name="Layer 1" xmlns="http://www.w3.org/2000/svg" viewBox="0 0 142.13 127.25"><defs><style>.cls-1{fill:#0b0009;}</style></defs><title>volume</title><path class="cls-1" d="M74.76,63.73v48.5c0,2.49.34,5.31-2.33,6.65s-4.73-.84-6.54-2.42C55.5,107.37,45.13,98.25,34.9,89a11.2,11.2,0,0,0-8.5-3.22c-6,.23-12,.1-18,0C3.17,85.75.3,83.26.17,78q-.34-14,0-28c.12-5.28,2.93-7.89,8.27-8q9.24-.27,18.49,0a10.27,10.27,0,0,0,7.67-2.83c9.53-8.57,19.15-17,28.75-25.53a34,34,0,0,1,3-2.61c1.71-1.21,3.34-3.2,5.71-2.18s2.71,3.53,2.7,6c0,7,0,14,0,21Q74.77,49.74,74.76,63.73Z"/><path class="cls-1" d="M125.87,57.52c-.17-8.27-4.92-20.93-14.35-31.71-2.15-2.46-2.1-3.86.12-6.13,8-8.19,7.92-8.26,14.83,1.32,20.4,28.28,18.6,65.41-4.29,91.41-2.22,2.51-3.57,2.6-5.94.25-6.86-6.79-6.89-6.66-1.37-14.59C122.08,87.73,126.07,76.32,125.87,57.52Z"/><path class="cls-1" d="M109.88,63.86c.55,10.35-3.29,19-9.14,26.94-2.12,2.89-3.93,3.23-6.16.33a13.32,13.32,0,0,0-1.08-1c-5.5-5.55-5.42-5.51-1.6-12.52,5.62-10.33,4.92-20.5-1.81-30-2.08-2.92-2.33-4.39.35-6.94,8.23-7.85,8.47-7.95,14.07,2C108.24,49.29,110.45,56.35,109.88,63.86Z"/></svg>