<svg xmlns="http://www.w3.org/2000/svg" xmlns:xlink="http://www.w3.org/1999/xlink" width="57" height="20" version="1.1" viewBox="0 0 57 20"><title>black-star</title><defs><rect id="path-1" width="57" height="20" x="0" y="0" rx="3"/><rect id="path-3" width="22" height="20" x="0" y="0"/></defs><g id="Page-1" fill="none" fill-rule="evenodd" stroke="none" stroke-width="1"><g id="github" transform="translate(-150.000000, -81.000000)"><g id="black-star" transform="translate(150.000000, 81.000000)"><mask id="mask-2" fill="#fff"><use xlink:href="#path-1"/></mask><use id="Mask" fill="#767676" xlink:href="#path-1"/><g id="颜色"><use fill="#444" fill-rule="evenodd" mask="url(#mask-2)" xlink:href="#path-3"/><use fill="none" xlink:href="#path-3"/><use fill="none" xlink:href="#path-3"/></g><text id="Cancel" fill="#FFF" font-family="PingFang SC" font-size="12" font-weight="526" mask="url(#mask-2)"><tspan x="27.276" y="14">Star</tspan></text><path id="Shape" fill="#FFF" d="M11.1519583,4 C7.75453932,4 5,6.75415482 5,10.1519583 C5,12.8699703 6.76292054,15.1761857 9.20717047,15.9893977 C9.51476838,16.0463033 9.62781061,15.8559771 9.62781061,15.6933347 C9.62781061,15.5468412 9.62204315,15.06199 9.61935167,14.547917 C7.90756928,14.9201104 7.54652623,13.8219859 7.54652623,13.8219859 C7.26661213,13.1110502 6.86365886,12.9218775 6.86365886,12.9218775 C6.30536865,12.5400716 6.90595357,12.5477615 6.90595357,12.5477615 C7.52345639,12.5912097 7.84874118,13.1817977 7.84874118,13.1817977 C8.39741896,14.1222784 9.28791492,13.8504387 9.63896104,13.6931793 C9.69394417,13.295609 9.85351058,13.0241538 10.0296104,12.8703548 C8.66310666,12.7150179 7.2266244,12.187103 7.2266244,9.83013396 C7.2266244,9.15841702 7.46693527,8.60973924 7.8606606,8.17871766 C7.79683403,8.02376521 7.58612946,7.39818795 7.9202577,6.5507557 C7.9202577,6.5507557 8.43702219,6.38542182 9.61243072,7.18133142 C10.1030494,7.04483485 10.6294263,6.97677881 11.1523428,6.97408733 C11.6748747,6.97639431 12.2016362,7.04483485 12.6934083,7.18133142 C13.8676634,6.38542182 14.3832744,6.5507557 14.3832744,6.5507557 C14.7181716,7.39818795 14.507467,8.02376521 14.4436405,8.17871766 C14.8381348,8.60935474 15.0769077,9.15841702 15.0769077,9.83013396 C15.0769077,12.1928704 13.6377339,12.7130954 12.2677697,12.8657409 C12.4884712,13.0568361 12.6849494,13.430952 12.6849494,14.0050066 C12.6849494,14.8282156 12.6776439,15.4907046 12.6776439,15.6933347 C12.6776439,15.8571306 12.7883792,16.0489948 13.1002066,15.9886287 C15.543303,15.1742632 17.3039166,12.8692014 17.3039166,10.1519583 C17.3039166,6.75415482 14.5493772,4 11.1519583,4 L11.1519583,4 Z" mask="url(#mask-2)"/></g></g></g></svg>