<svg xmlns="http://www.w3.org/2000/svg" xmlns:xlink="http://www.w3.org/1999/xlink" width="122" height="40" version="1.1" viewBox="0 0 122 40"><title>appstore</title><defs><rect id="path-1" width="122" height="40" x="0" y="0" rx="3"/></defs><g id="Page-1" fill="none" fill-rule="evenodd" stroke="none" stroke-width="1"><g id="Download"><g id="appstore"><mask id="mask-2" fill="#fff"><use xlink:href="#path-1"/></mask><use id="Mask" fill="#000" xlink:href="#path-1"/><path id="Shape" fill="#FFF" d="M59.8160755,9.25967626 C60.766728,9.25967626 60.7191954,10.2999007 60.7191954,10.2999007 L60.7191954,12.9950276 L61.7173804,12.9950276 L61.7173804,10.2999007 C61.7173806,10.2526178 61.7649131,8.40858355 60.1488039,8.40858355 C59.1030862,8.40858355 58.7228252,9.21239333 58.7228252,9.21239333 L58.6752926,8.50314941 L57.7721728,8.50314941 L57.8197054,9.77978847 L57.8197054,12.9950276 L58.8178905,12.9950276 L58.8178905,10.2526178 C58.8178911,10.2526178 58.8178905,9.25967626 59.8160755,9.25967626 Z M104.781937,9.25967626 C105.732589,9.25967626 105.685056,10.2999007 105.685056,10.2999007 L105.685056,12.9950276 L106.683241,12.9950276 L106.683241,10.2999007 C106.683242,10.2999007 106.730774,8.40858355 105.114665,8.40858355 C104.068947,8.40858355 103.783752,9.21239333 103.783752,9.21239333 L103.783752,6.4699835 L102.785566,6.4699835 L102.785566,12.9950276 L103.783752,12.9950276 L103.783752,10.2526178 C103.783752,10.2526178 103.783752,9.25967626 104.781937,9.25967626 Z M65.0921966,20.7967107 C62.7630981,20.7967107 61.9550435,22.4988961 61.9550435,22.4988961 L61.8599783,20.9858424 L60.0537386,20.9858424 L60.1488039,23.0190084 L60.1488039,33.752233 L62.1927067,33.752233 L62.1927067,28.9766573 C62.1927069,28.9766573 62.8106308,30.2532964 64.8070009,30.2532964 C70.1781873,30.2532964 70.1781873,20.7967107 65.0921966,20.7967107 Z M64.3792073,28.6929597 C62.2402393,28.6929597 62.1927067,26.4706621 62.1927067,26.4706621 L62.1927067,24.8157596 C62.1927068,24.8157596 62.2402393,22.4043303 64.4267399,22.4043303 C67.6114256,22.4043303 67.6114256,28.6929597 64.3792073,28.6929597 Z M49.0737028,10.725447 C49.0737028,7.6520567 44.7007015,7.6520567 44.7007015,10.77273 C44.7007015,13.9406861 49.0737028,13.8461203 49.0737028,10.725447 L49.0737028,10.725447 Z M48.0279851,10.725447 C48.0279851,12.9004617 45.6988866,12.9477447 45.6988866,10.77273 C45.6988866,8.64499819 48.0279851,8.59771527 48.0279851,10.725447 L48.0279851,10.725447 Z M70.3207851,10.725447 C70.3207851,7.6520567 65.9477839,7.6520567 65.9477839,10.77273 C65.9477839,13.9406861 70.3207851,13.8461203 70.3207851,10.725447 L70.3207851,10.725447 Z M69.2750674,10.725447 C69.2750674,12.9004617 66.9459689,12.9477447 66.9459689,10.77273 C66.9459689,8.64499819 69.2750674,8.59771527 69.2750674,10.725447 L69.2750674,10.725447 Z M92.8037157,9.25967626 C93.7543681,9.25967626 93.7068355,10.2999007 93.7068355,10.2999007 L93.7068355,12.9950276 L94.7050206,12.9950276 L94.7050206,10.2999007 C94.7050186,10.2999006 94.7525532,8.40858355 93.136444,8.40858355 C92.0907263,8.40858355 91.7104653,9.21239333 91.7104653,9.21239333 L91.6629327,8.50314941 L90.7598129,8.50314941 L90.8073455,9.77978847 L90.8073455,12.9950276 L91.8055306,12.9950276 L91.8055306,10.2526178 C91.8055306,10.2526178 91.8055306,9.25967626 92.8037157,9.25967626 Z M23.3585539,11.9548032 C21.5523143,11.9548032 20.0312704,13.0895934 19.0806179,13.0895934 C17.939835,13.0895934 16.8941173,12.049369 15.040345,12.049369 C11.4753983,12.049369 8.52837566,15.4064569 9.09876714,20.5130132 C9.62162598,25.0994572 12.9013769,30.3005793 15.3255407,30.3005793 C16.8465846,30.3005793 17.5120413,29.3076378 19.3658136,29.3076378 C21.2195859,29.3076378 21.7424448,30.2532964 23.3585539,30.2532964 C26.0679134,30.2532964 28.3019467,25.4777206 28.7772729,23.8701011 C25.0221957,22.3570474 24.0715433,16.9195106 28.1593488,14.3662325 C28.1593484,14.3662328 26.5907723,11.9548032 23.3585539,11.9548032 Z M23.7388149,6.139003 C21.1245207,6.32813471 18.6052917,8.88141283 18.8904874,11.7183885 C21.6949121,11.8129544 24.0240107,8.97597869 23.7388149,6.139003 L23.7388149,6.139003 Z M43.7975817,17.4869058 L41.2783527,17.4869058 L37.1905471,30.0641646 L39.2819825,30.0641646 L40.4227655,26.3760963 L44.5581036,26.3760963 L45.6988866,30.0641646 L47.8853872,30.0641646 L43.7975817,17.4869058 Z M44.1778427,24.8157596 L40.8030265,24.8157596 L42.4666683,19.283657 L44.1778427,24.8157596 Z M54.587487,20.7967107 C52.2583885,20.7967107 51.4503339,22.4988961 51.4503339,22.4988961 L51.3552687,20.9858424 L49.549029,20.9858424 L49.6440943,23.1608571 L49.6440943,33.752233 L51.6879971,33.752233 L51.6879971,28.9766573 C51.6879978,28.9766577 52.3059211,30.2532964 54.3022913,30.2532964 C59.6734777,30.2532964 59.6734777,20.7967107 54.587487,20.7967107 Z M53.8744977,28.6929597 C51.7355297,28.6929597 51.6879971,26.4706621 51.6879971,26.4706621 L51.6879971,24.8157596 C51.6879964,24.8157594 51.7355297,22.4043303 53.9220303,22.4043303 C57.1542487,22.4043303 57.1542487,28.6929597 53.8744977,28.6929597 Z M80.5878316,26.517945 C80.5878316,24.5320621 79.161853,23.5391206 77.4031459,22.8298766 C76.262363,22.3570474 74.9789822,21.8842181 74.9789822,20.607579 C74.9789822,19.5200717 75.9771672,18.9526765 77.1654828,18.9526765 C78.5439289,18.9526765 79.5896466,19.5200717 79.5896466,19.5200717 L80.1125054,17.9124521 C80.1125054,17.912452 79.0667877,17.297774 77.2130154,17.297774 C74.8839169,17.297774 72.9350794,18.621696 72.9350794,20.8439937 C72.9350794,22.4043303 74.0283297,23.6336864 76.262363,24.4374962 C77.4982112,24.8630426 78.5439289,25.4304377 78.5439289,26.7070768 C78.5439289,27.9837158 77.4982112,28.5983939 76.1197651,28.5983939 C74.3610581,28.5983939 73.2202751,27.7945841 73.2202751,27.7945841 L72.7449489,29.4494866 C72.7449496,29.449486 73.743134,30.2532964 76.0246999,30.2532964 C78.6389941,30.2532964 80.5878316,28.9766573 80.5878316,26.517945 Z M85.6262896,30.2532964 C86.6244747,30.2532964 87.1948662,30.0168817 87.1948662,30.0168817 L87.1473336,28.503828 C87.1473336,28.5983939 86.7670726,28.5983939 86.2442137,28.5983939 C85.4361591,28.5983939 85.0558982,28.0309987 85.0558982,26.8962085 L85.0558982,22.4988961 L87.2899314,22.4988961 L87.2899314,20.9858424 L85.0558982,20.9858424 L85.0558982,18.7162619 L83.059528,19.33094 L83.059528,20.9858424 L81.7286146,20.9858424 L81.7286146,22.4988961 L83.059528,22.4988961 L83.059528,27.0853402 C83.059528,29.1185061 83.7725174,30.2532964 85.6262896,30.2532964 Z M97.3668474,25.4777206 C97.3668474,19.1890912 88.4307144,19.1418082 88.4307144,25.6195694 C88.4307144,31.9081988 97.3668474,31.813633 97.3668474,25.4777206 L97.3668474,25.4777206 Z M95.275412,25.5250035 C95.275412,29.8750329 90.4746172,29.9223159 90.4746172,25.5722865 C90.4746172,21.26954 95.275412,21.1749742 95.275412,25.5250035 L95.275412,25.5250035 Z M103.308425,22.6880279 C103.641154,22.6880279 103.926349,22.7353108 103.926349,22.7353108 L103.926349,20.8439937 C103.926349,20.8439937 103.641154,20.7967107 103.451023,20.7967107 C101.454653,20.7967107 100.931794,22.8298766 100.931794,22.8298766 L100.836729,20.9858424 L99.0780219,20.9858424 L99.1255545,22.9244425 L99.1255545,30.0641646 L101.169457,30.0641646 L101.169457,25.0521743 C101.169458,25.0521739 101.21699,22.6880279 103.308425,22.6880279 Z M112.482221,29.6859012 L112.197026,28.2674134 C112.197026,28.2674134 111.293906,28.6929597 109.725329,28.6929597 C106.730774,28.6929597 106.873372,25.9978328 106.873372,25.9978328 L112.957548,25.9978328 C113.242743,23.1608571 112.10196,20.7967107 109.20247,20.7967107 C106.11285,20.7967107 104.924534,23.4918376 104.924534,25.6195694 C104.924534,28.0782817 106.302981,30.2532964 109.440134,30.2532964 C111.198841,30.2532964 112.482221,29.6859012 112.482221,29.6859012 Z M106.873372,24.579345 C106.873372,24.1065157 107.348698,22.1679156 109.059873,22.1679156 C111.198841,22.1679156 111.056243,24.579345 111.056243,24.579345 L106.873372,24.579345 L106.873372,24.579345 Z M40.1375697,6.75368107 C39.1869173,6.75368107 38.4263953,6.89552985 38.4263953,6.89552985 L38.4263953,12.9477447 C38.4263953,13.0423104 39.2819825,13.0423105 39.852374,13.0423105 C42.1339399,13.0423105 43.512386,11.9548032 43.512386,9.73250554 C43.512386,7.74662256 42.2765378,6.75368107 40.1375697,6.75368107 Z M40.0900371,12.2385007 C39.6622435,12.2385007 39.3770478,12.1912178 39.3770478,12.1912178 L39.3770478,7.60477377 C39.3770478,7.55749085 39.852374,7.55749085 40.1851024,7.55749085 C41.7061463,7.55749085 42.4666683,8.3140177 42.4666683,9.77978847 C42.4666683,11.3401251 41.6586137,12.2385007 40.0900371,12.2385007 Z M56.5363246,8.50314941 L55.5856721,8.50314941 L54.6825523,12.049369 L53.7318998,8.50314941 L52.9238452,8.50314941 L51.8781275,12.049369 L51.070073,8.50314941 L50.0718879,8.50314941 L51.4028013,12.9950276 L52.3534538,12.9950276 L53.3041062,9.68522261 L54.2072261,12.9950276 L55.1578785,12.9950276 L56.5363246,8.50314941 Z M63.4760875,12.9950276 L64.4742726,12.9950276 L64.4742726,6.4699835 L63.4760875,6.4699835 L63.4760875,12.9950276 L63.4760875,12.9950276 Z M74.1709276,12.4749154 L74.2659928,12.9950276 L75.1691127,12.9950276 L75.0740474,12.1439349 L75.0740474,10.2526178 C75.0740474,9.02326162 74.5036559,8.40858355 73.3153404,8.40858355 C72.3646879,8.40858355 71.7942964,8.78684698 71.7942964,8.78684698 L71.9844269,9.44880797 C71.9844269,9.44880789 72.4122205,9.11782748 73.1727425,9.11782748 C73.8381992,9.11782748 74.0758623,9.44880797 74.0758623,10.110769 C72.7449489,10.063486 71.4615681,10.5363153 71.4615681,11.7656715 C71.4615681,13.2314422 73.4104056,13.5151398 74.1709276,12.4749154 Z M72.4597532,11.6711056 C72.4597532,10.5835982 74.123395,10.77273 74.123395,10.77273 L74.123395,11.434691 C74.123395,12.4749154 72.4597532,12.7586129 72.4597532,11.6711056 L72.4597532,11.6711056 Z M79.8748423,12.2857837 L79.9223749,12.9950276 L80.8254947,12.9950276 C80.8254937,12.9950276 80.7779621,12.3330666 80.7779621,11.7656715 L80.7779621,6.4699835 L79.7797771,6.4699835 L79.7797771,9.02326162 C79.7797772,9.02326165 79.4470487,8.40858355 78.4963962,8.40858355 C75.9296346,8.40858355 75.8345694,13.0895934 78.401331,13.0895934 C79.5421139,13.0895934 79.8748423,12.2857837 79.8748423,12.2857837 Z M79.7797771,10.3471836 L79.7797771,11.1037105 C79.7797771,11.1037105 79.7797771,12.2857837 78.6865267,12.2857837 C77.1654828,12.2857837 77.0704176,9.21239333 78.7340594,9.21239333 C79.7797771,9.21239333 79.7797771,10.3471836 79.7797771,10.3471836 Z M89.3338342,10.725447 C89.3338342,7.6520567 84.9608329,7.6520567 84.9608329,10.77273 C84.9608329,13.9406861 89.3338342,13.8461203 89.3338342,10.725447 L89.3338342,10.725447 Z M88.2881165,10.725447 C88.2881165,12.9004617 85.959018,12.9477447 85.959018,10.77273 C85.959018,8.64499819 88.2881165,8.59771527 88.2881165,10.725447 L88.2881165,10.725447 Z M100.551533,13.0895934 C101.121925,13.0895934 101.359588,12.9477447 101.359588,12.9477447 L101.312055,12.1912178 C101.312055,12.1912178 101.169457,12.2385007 100.884262,12.2385007 C100.504001,12.2385007 100.31387,12.0020861 100.31387,11.434691 L100.31387,9.25967626 L101.40712,9.25967626 L101.40712,8.50314941 L100.31387,8.50314941 L100.31387,7.41564206 L99.315685,7.69933963 L99.315685,8.50314941 L98.6502283,8.50314941 L98.6502283,9.25967626 L99.315685,9.25967626 L99.315685,11.5292568 C99.315685,12.4749154 99.695946,13.0895934 100.551533,13.0895934 Z M111.864297,12.8058959 L111.721699,12.0966519 C111.721699,12.0966521 111.341439,12.2857837 110.485851,12.2857837 C109.01234,12.2857837 109.059873,11.0091446 109.059873,11.0091446 L112.054428,11.0091446 C112.292091,9.92163725 111.769232,8.40858355 110.248188,8.40858355 C108.869742,8.40858355 108.10922,9.59065676 108.10922,10.8200129 C108.10922,11.9548032 108.727144,13.0423105 110.343253,13.0423105 C111.293906,13.0423105 111.864297,12.8058959 111.864297,12.8058959 Z M110.153123,9.11782748 C111.246373,9.11782748 111.151308,10.2999007 111.151308,10.2999007 L109.059873,10.2999007 C109.059873,10.2999007 109.154938,9.11782748 110.153123,9.11782748 Z" mask="url(#mask-2)"/></g></g></g></svg>