<svg xmlns="http://www.w3.org/2000/svg" xmlns:xlink="http://www.w3.org/1999/xlink" width="130" height="40" version="1.1" viewBox="0 0 130 40"><title>googleplay</title><defs><rect id="path-1" width="130" height="40" x="0" y="0" rx="3"/><linearGradient id="linearGradient-3" x1="0%" x2="100%" y1="0%" y2="0%"><stop offset="0%" stop-color="#3588B7"/><stop offset="100%" stop-color="#66FFD4"/></linearGradient><linearGradient id="linearGradient-4" x1="0%" x2="100%" y1="0%" y2="0%"><stop offset="0%" stop-color="#9635C2"/><stop offset="100%" stop-color="#E3424F"/></linearGradient><linearGradient id="linearGradient-5" x1="0%" x2="100%" y1="0%" y2="0%"><stop offset="0%" stop-color="#60CAB6"/><stop offset="100%" stop-color="#D6FFA2"/></linearGradient><linearGradient id="linearGradient-6" x1="0%" x2="100%" y1="0%" y2="0%"><stop offset="0%" stop-color="#FF9877"/><stop offset="100%" stop-color="#FFC466"/></linearGradient></defs><g id="Page-1" fill="none" fill-rule="evenodd" stroke="none" stroke-width="1"><g id="Download" transform="translate(-133.000000, 0.000000)"><g id="googleplay" transform="translate(133.000000, 0.000000)"><mask id="mask-2" fill="#fff"><use xlink:href="#path-1"/></mask><use id="Mask" fill="#000" xlink:href="#path-1"/><g id="Group" mask="url(#mask-2)"><g id="Shape"><path fill="url(#linearGradient-3)" d="M13.1357388,12.4652406 L0.661512027,22.0909091 C0.283505155,21.9465241 0,21.513369 0,20.8877005 L0,4.09090909 C0,3.4171123 0.283505155,2.98395722 0.708762887,2.83957219 L13.1357388,12.4652406 L13.1357388,12.4652406 Z" transform="translate(12.000000, 7.000000)"/><path fill="url(#linearGradient-4)" d="M13.1357388,15.6417112 L1.74828179,21.9465241 C1.32302405,22.1871658 0.945017182,22.1871658 0.661512027,22.0909091 L10.6314433,11.8395722 L13.1357388,15.6417112 L13.1357388,15.6417112 Z" transform="translate(12.000000, 7.000000)"/><path fill="url(#linearGradient-5)" d="M0.708762887,2.83957219 C0.992268041,2.74331551 1.37027491,2.79144385 1.74828179,3.03208556 L13.088488,9.3368984 L10.5841924,13.0427807 L0.708762887,2.83957219 L0.708762887,2.83957219 Z" transform="translate(12.000000, 7.000000)"/><path fill="url(#linearGradient-6)" d="M13.088488,9.3368984 L17.104811,11.5508021 C18.0498282,12.0802139 18.0498282,12.8983957 17.104811,13.4278075 L13.1357388,15.6417112 L10.0171821,12.4652406 L13.088488,9.3368984 L13.088488,9.3368984 Z" transform="translate(12.000000, 7.000000)"/><path fill="#FFF" d="M50.652921,5.9197861 C52.306701,5.9197861 53.5352234,4.62032086 53.5352234,2.98395722 C53.5352234,1.29946524 52.2594502,2.66453526e-15 50.652921,2.66453526e-15 C49.0463918,2.66453526e-15 47.7706186,1.34759358 47.7706186,2.98395722 C47.7706186,4.62032086 49.0463918,5.9197861 50.652921,5.9197861 L50.652921,5.9197861 Z M50.652921,5.2459893 C49.4243986,5.2459893 48.5266323,4.23529412 48.5266323,2.98395722 C48.5266323,1.73262032 49.4243986,0.673796791 50.652921,0.673796791 C51.8814433,0.673796791 52.8264605,1.73262032 52.8264605,2.98395722 C52.8264605,4.23529412 51.8814433,5.2459893 50.652921,5.2459893 L50.652921,5.2459893 Z M49.9914089,23.197861 C52.3539519,23.197861 54.1967354,21.368984 54.1967354,18.9625668 C54.1967354,16.5561497 52.3539519,14.6791444 49.9914089,14.6791444 C47.628866,14.6791444 45.7860825,16.5561497 45.7860825,18.9625668 C45.7860825,21.368984 47.628866,23.197861 49.9914089,23.197861 L49.9914089,23.197861 Z M49.9914089,21.513369 C48.6683849,21.513369 47.628866,20.3582888 47.628866,18.9625668 C47.628866,17.5187166 48.621134,16.3636364 49.9914089,16.3636364 C51.4089347,16.3636364 52.3539519,17.4705882 52.3539519,18.9625668 C52.3539519,20.3582888 51.314433,21.513369 49.9914089,21.513369 L49.9914089,21.513369 Z M61.3316151,22.8609626 C61.3316151,24.4010695 60.5756014,25.315508 59.1108247,25.315508 C57.5042955,25.315508 57.0317869,23.8235294 57.0317869,23.8235294 L55.4252577,24.4973262 C55.4252577,24.4973262 56.3230241,27 59.1108247,27 C61.6623711,27 63.0798969,25.315508 63.0798969,22.5721925 L63.0798969,14.9679144 L61.3316151,14.9679144 L61.3316151,15.6898396 C61.0008591,15.2085561 60.1030928,14.6791444 59.1108247,14.6791444 C56.8900344,14.6791444 55.0945017,16.6524064 55.0945017,18.9625668 C55.0945017,21.2245989 56.8900344,23.197861 59.1108247,23.197861 C60.1030928,23.197861 60.9536082,22.7647059 61.3316151,22.1390374 L61.3316151,22.8609626 Z M110,14.631016 C110,14.5828877 107.82646,14.5828877 107.82646,14.5828877 L105.60567,20.2620321 L103.195876,14.5828877 L101.116838,14.631016 L104.613402,22.6684492 L102.676117,26.855615 L104.755155,26.855615 L110,14.631016 L110,14.631016 Z M98.5652921,23.0053476 L100.408076,23.0053476 L100.408076,17.9518717 C100.408076,15.3529412 98.612543,14.1016043 96.4390034,14.1016043 C93.7929553,14.1016043 92.9896907,16.0748663 92.9896907,16.0748663 L94.5962199,16.8449198 C94.5962199,16.8449198 95.0687285,15.8342246 96.4390034,15.8342246 C97.4312715,15.8342246 98.5180412,16.459893 98.5180412,17.7112299 C97.0060137,16.8449198 92.7061856,17.0855615 92.7061856,20.2620321 C92.7061856,22.6203209 95.0214777,23.2941176 95.919244,23.2941176 C97.1005155,23.2941176 97.8565292,22.8128342 98.4707904,21.8502674 L98.5652921,23.0053476 Z M75.0343643,21.3208556 L73.5695876,20.3582888 C73.5695876,20.4091402 73.0025773,21.513369 71.5378007,21.513369 C70.6400344,21.513369 69.9312715,21.0802139 69.5060137,20.2139037 L75.0816151,17.855615 C74.5618557,16.2673797 73.3805842,14.6791444 71.3487973,14.6791444 C69.0335052,14.6791444 67.3797251,16.5561497 67.3797251,18.9625668 C67.3797251,21.368984 69.1752577,23.197861 71.5378007,23.197861 C73.1915808,23.197861 74.3728522,22.2834225 75.0343643,21.3208556 Z M40.8247423,23.197861 C43.1872852,23.197861 45.0300687,21.368984 45.0300687,18.9625668 C45.0300687,16.5561497 43.1872852,14.6791444 40.8247423,14.6791444 C38.4621993,14.6791444 36.6194158,16.5561497 36.6194158,18.9625668 C36.6194158,21.368984 38.4621993,23.197861 40.8247423,23.197861 L40.8247423,23.197861 Z M29.8152921,23.197861 C33.5953608,23.197861 36.4304124,20.3101604 35.7689003,15.9786096 L29.8152921,15.9786096 L29.8152921,17.8074866 L34.0206186,17.8074866 C33.7843643,20.0695187 32.1305842,21.368984 29.8152921,21.368984 C27.169244,21.368984 25.137457,19.2513369 25.137457,16.6042781 C25.137457,13.8609626 27.2164948,11.7914439 29.8152921,11.7914439 C31.0438144,11.7914439 32.0833333,12.2245989 32.9810997,13.0909091 L34.2568729,11.7914439 C32.9810997,10.6363636 31.516323,9.96256684 29.8152921,9.96256684 C26.2714777,9.96256684 23.2001718,12.9465241 23.2001718,16.6042781 C23.2001718,20.2620321 26.2242268,23.197861 29.8152921,23.197861 L29.8152921,23.197861 Z M91.1941581,23.0053476 L91.1941581,10.5882353 L89.3513746,10.5882353 L89.3513746,23.0053476 L91.1941581,23.0053476 L91.1941581,23.0053476 Z M83.8230241,10.5882353 L79.5704467,10.5882353 L79.5704467,23.0053476 L81.4132302,23.0053476 L81.4132302,18.1925134 L83.8230241,18.1925134 C86.0910653,18.1925134 87.7448454,16.6524064 87.7448454,14.3903743 C87.7448454,12.1283422 86.0910653,10.5882353 83.8230241,10.5882353 L83.8230241,10.5882353 Z M66.3402062,22.9572193 L66.3402062,10.4438503 L64.4974227,10.4438503 L64.4974227,22.9572193 L66.3402062,22.9572193 L66.3402062,22.9572193 Z M59.2525773,21.513369 C57.8823024,21.513369 56.9372852,20.3582888 56.9372852,18.9625668 C56.9372852,17.5187166 57.8823024,16.3636364 59.2525773,16.3636364 C60.6228522,16.3636364 61.4733677,17.5187166 61.4733677,18.9625668 C61.4733677,20.3582888 60.5756014,21.513369 59.2525773,21.513369 L59.2525773,21.513369 Z M40.8247423,21.513369 C39.5017182,21.513369 38.4621993,20.3582888 38.4621993,18.9625668 C38.4621993,17.5187166 39.4544674,16.3636364 40.8247423,16.3636364 C42.242268,16.3636364 43.1872852,17.4705882 43.1872852,18.9625668 C43.1872852,20.3582888 42.1477663,21.513369 40.8247423,21.513369 L40.8247423,21.513369 Z M96.1554983,21.4171123 C95.4939863,21.4171123 94.6434708,21.1283422 94.6434708,20.3101604 C94.6434708,18.5775401 97.7147766,18.5775401 98.5652921,19.3957219 C98.5652921,19.8770053 97.6675258,21.4171123 96.1554983,21.4171123 L96.1554983,21.4171123 Z M69.1752577,18.8181818 C69.1752577,17.1336898 70.4982818,16.315508 71.3960481,16.315508 C71.9630584,16.315508 72.6718213,16.6042781 72.9553265,17.2299465 L69.1752577,18.8181818 L69.1752577,18.8181818 Z M83.8702749,12.4171123 C85.1460481,12.4171123 85.854811,13.5240642 85.854811,14.3903743 C85.854811,15.2566845 85.2405498,16.3636364 83.8702749,16.3636364 L81.4132302,16.3636364 L81.4132302,12.4171123 L83.8702749,12.4171123 L83.8702749,12.4171123 Z M26.6494845,2.79144385 L26.6494845,3.46524064 L28.6812715,3.46524064 C28.6340206,4.57219251 27.7362543,5.2459893 26.6494845,5.2459893 C25.4682131,5.2459893 24.475945,4.28342246 24.475945,2.98395722 C24.475945,1.54010695 25.5627148,0.673796791 26.6494845,0.673796791 C27.7362543,0.673796791 28.2087629,1.34759358 28.2087629,1.34759358 L28.6812715,0.86631016 C28.6812715,0.86631016 28.0670103,2.66453526e-15 26.6494845,2.66453526e-15 C25.0429553,2.66453526e-15 23.7671821,1.29946524 23.7671821,2.98395722 C23.7671821,4.57219251 24.9957045,5.9197861 26.6494845,5.9197861 C28.2560137,5.9197861 29.6262887,4.71657754 29.3900344,2.79144385 L26.6494845,2.79144385 Z M55.0945017,5.82352941 L55.0945017,1.15508021 L57.9295533,5.82352941 L58.685567,5.82352941 L58.685567,0.144385027 L57.9768041,0.144385027 L57.9768041,3.46524064 L58.024055,4.57219251 L57.9768041,4.57219251 L55.2835052,0.144385027 L54.3857388,0.144385027 L54.3857388,5.82352941 L55.0945017,5.82352941 L55.0945017,5.82352941 Z M45.7388316,0.818181818 L45.7388316,0.144385027 L41.911512,0.144385027 L41.911512,0.818181818 L43.4707904,0.818181818 L43.4707904,5.82352941 L44.1795533,5.82352941 L44.1795533,0.818181818 L45.7388316,0.818181818 L45.7388316,0.818181818 Z M41.1554983,5.82352941 L41.1554983,0.144385027 L40.4467354,0.144385027 L40.4467354,5.82352941 L41.1554983,5.82352941 L41.1554983,5.82352941 Z M37.9896907,0.818181818 L37.9896907,0.144385027 L34.1623711,0.144385027 L34.1623711,0.818181818 L35.7216495,0.818181818 L35.7216495,5.82352941 L36.4304124,5.82352941 L36.4304124,0.818181818 L37.9896907,0.818181818 L37.9896907,0.818181818 Z M33.54811,0.818181818 L33.54811,0.144385027 L30.2878007,0.144385027 L30.2878007,5.82352941 L33.54811,5.82352941 L33.54811,5.10160428 L30.9965636,5.10160428 L30.9965636,3.32085561 L33.3118557,3.32085561 L33.3118557,2.64705882 L30.9965636,2.64705882 L30.9965636,0.818181818 L33.54811,0.818181818 L33.54811,0.818181818 Z" transform="translate(12.000000, 7.000000)"/></g></g></g></g></g></svg>