<svg xmlns="http://www.w3.org/2000/svg" width="12" height="12" viewBox="0 0 21 21">
  <path fill="#3A934A" fill-rule="evenodd" d="M10.5,21 C4.70101013,21 0,16.2989899 0,10.5 C0,4.70101013 4.70101013,0 10.5,0 C16.2989899,0 21,4.70101013 21,10.5 C21,16.2989899 16.2989899,21 10.5,21 Z M12.6534793,10.3036962 C12.8458736,11.3774153 12.2704725,12.4403214 11.2849535,12.8316971 L12.7602457,16.8082747 C15.5986975,15.6812908 17.2560658,12.6201118 16.7020615,9.52769422 C16.148057,6.43527663 13.5403502,4.19172535 10.5,4.19172535 C7.45964983,4.19172535 4.85194291,6.43527663 4.29793853,9.52769422 C3.74393415,12.6201118 5.40130247,15.6812908 8.23975429,16.8082747 L9.71504656,12.8316971 C8.72952749,12.4403214 8.15412636,11.3774153 8.34652065,10.3036962 C8.53891498,9.22997716 9.4443523,8.45100871 10.5,8.45100871 C11.5556477,8.45100871 12.461085,9.22997716 12.6534793,10.3036962 Z"/>
</svg>
