<svg xmlns="http://www.w3.org/2000/svg" width="12" height="12" viewBox="0 0 21 21">
  <path fill="#9013FE" d="M10.5,0 C4.71055665,0 0,4.71011334 0,10.5 C0,16.29033 4.71055668,21 10.5,21 C16.29033,21 21,16.29033 21,10.5 C21,4.71011334 16.2903533,0 10.5,0 Z M6.89108,15.3661667 C6.89108,15.5427067 6.74708999,15.6862767 6.57096999,15.6862767 L4.43102333,15.6862767 C3.92858667,15.6862767 3.52020667,15.2778967 3.52020667,14.77588 L3.52020667,9.31100333 C3.52020667,8.80898666 3.92856334,8.40107333 4.43102333,8.40107333 L6.57096999,8.40107333 C6.74706666,8.40107333 6.89108,8.54373332 6.89108,8.72118333 L6.89108,15.3661667 Z M16.6715267,10.9226367 C16.8538767,11.1406633 16.9893967,11.4446967 16.9746967,11.84995 C16.9568467,12.3653133 16.6336333,12.6764867 16.2702867,12.8530267 C16.2988233,12.88826 16.3264733,12.9265733 16.3518833,12.96806 C16.52175,13.24582 16.5600867,13.57706 16.46603,13.9537767 C16.34164,14.4499833 15.99479,14.6867 15.6448133,14.80976 C15.77009,15.00058 15.8481167,15.22927 15.8481167,15.4593133 C15.8481167,15.7771833 15.69967,16.05674 15.4308233,16.2462067 C15.1530867,16.4419267 14.7491633,16.54135 14.2311167,16.54135 L10.5343233,16.54135 C10.5017733,16.54135 10.4692467,16.5364267 10.4384933,16.5261834 L7.63651,15.6416867 C7.50365001,15.5993367 7.41360667,15.4762767 7.41360667,15.3367433 L7.41360667,8.70156001 C7.41360667,8.55444334 7.51347334,8.42650669 7.65524667,8.39038669 L8.12693001,8.27269337 C8.20180668,8.25262671 10.0488733,7.73768336 10.12599,5.74042004 C10.2071433,3.66377672 10.7372067,3.21484336 11.5659833,3.16491004 L11.60523,3.16267005 C11.6337667,3.16043006 11.6640533,3.15910004 11.6935,3.15910004 C11.95698,3.15910004 12.4625433,3.23801339 12.8891933,3.76140338 C13.5663967,4.59151004 13.70817,6.10465338 13.31183,8.26331339 L16.19674,8.26331339 C16.2578033,8.26331339 16.8026367,8.27400005 17.16953,8.6685434 C17.40137,8.9173234 17.50434,9.2498934 17.47536,9.65603341 C17.4280867,10.3261433 17.06117,10.7149 16.6715267,10.9226367 Z"/>
</svg>
